<svg width="18" height="18" viewBox="0 0 18 18" fill="none" xmlns="http://www.w3.org/2000/svg">
<g clip-path="url(#clip0_89_34)">
<path d="M5.3958 2.56946H5.13885V2.8264H5.3958V2.56946Z" fill="#3A3A3A"/>
<path d="M5.65276 2.56946H5.39581V2.8264H5.65276V2.56946Z" fill="#3A3A3A"/>
<path d="M5.90978 2.56946H5.65283V2.8264H5.90978V2.56946Z" fill="#3A3A3A"/>
<path d="M6.16667 2.56946H5.90973V2.8264H6.16667V2.56946Z" fill="#3A3A3A"/>
<path d="M6.42363 2.56946H6.16669V2.8264H6.42363V2.56946Z" fill="#3A3A3A"/>
<path d="M6.68059 2.56946H6.42365V2.8264H6.68059V2.56946Z" fill="#3A3A3A"/>
<path d="M6.93749 2.56946H6.68054V2.8264H6.93749V2.56946Z" fill="#3A3A3A"/>
<path d="M7.19444 2.56946H6.9375V2.8264H7.19444V2.56946Z" fill="#3A3A3A"/>
<path d="M7.4514 2.56946H7.19446V2.8264H7.4514V2.56946Z" fill="#3A3A3A"/>
<path d="M7.7083 2.56946H7.45135V2.8264H7.7083V2.56946Z" fill="#3A3A3A"/>
<path d="M5.3958 2.82642H5.13885V3.08336H5.3958V2.82642Z" fill="#3A3A3A"/>
<path d="M5.65276 2.82642H5.39581V3.08336H5.65276V2.82642Z" fill="#3A3A3A"/>
<path d="M5.90978 2.82642H5.65283V3.08336H5.90978V2.82642Z" fill="#3A3A3A"/>
<path d="M6.16667 2.82642H5.90973V3.08336H6.16667V2.82642Z" fill="#3A3A3A"/>
<path d="M6.42363 2.82642H6.16669V3.08336H6.42363V2.82642Z" fill="#3A3A3A"/>
<path d="M6.68059 2.82642H6.42365V3.08336H6.68059V2.82642Z" fill="#3A3A3A"/>
<path d="M6.93749 2.82642H6.68054V3.08336H6.93749V2.82642Z" fill="#3A3A3A"/>
<path d="M7.19444 2.82642H6.9375V3.08336H7.19444V2.82642Z" fill="#3A3A3A"/>
<path d="M7.4514 2.82642H7.19446V3.08336H7.4514V2.82642Z" fill="#3A3A3A"/>
<path d="M7.7083 2.82642H7.45135V3.08336H7.7083V2.82642Z" fill="#3A3A3A"/>
<path d="M5.3958 3.08337H5.13885V3.34032H5.3958V3.08337Z" fill="#3A3A3A"/>
<path d="M5.65276 3.08337H5.39581V3.34032H5.65276V3.08337Z" fill="#3A3A3A"/>
<path d="M5.90978 3.08337H5.65283V3.34032H5.90978V3.08337Z" fill="#3A3A3A"/>
<path d="M6.16667 3.08337H5.90973V3.34032H6.16667V3.08337Z" fill="#3A3A3A"/>
<path d="M6.42363 3.08337H6.16669V3.34032H6.42363V3.08337Z" fill="#3A3A3A"/>
<path d="M6.68059 3.08337H6.42365V3.34032H6.68059V3.08337Z" fill="#3A3A3A"/>
<path d="M6.93749 3.08337H6.68054V3.34032H6.93749V3.08337Z" fill="#3A3A3A"/>
<path d="M7.19444 3.08337H6.9375V3.34032H7.19444V3.08337Z" fill="#3A3A3A"/>
<path d="M7.4514 3.08337H7.19446V3.34032H7.4514V3.08337Z" fill="#3A3A3A"/>
<path d="M7.7083 3.08337H7.45135V3.34032H7.7083V3.08337Z" fill="#3A3A3A"/>
<path d="M5.3958 3.34033H5.13885V3.59728H5.3958V3.34033Z" fill="#3A3A3A"/>
<path d="M5.65276 3.34033H5.39581V3.59728H5.65276V3.34033Z" fill="#3A3A3A"/>
<path d="M5.90978 3.34033H5.65283V3.59728H5.90978V3.34033Z" fill="#3A3A3A"/>
<path d="M6.16667 3.34033H5.90973V3.59728H6.16667V3.34033Z" fill="#3A3A3A"/>
<path d="M6.42363 3.34033H6.16669V3.59728H6.42363V3.34033Z" fill="#3A3A3A"/>
<path d="M6.68059 3.34033H6.42365V3.59728H6.68059V3.34033Z" fill="#3A3A3A"/>
<path d="M6.93749 3.34033H6.68054V3.59728H6.93749V3.34033Z" fill="#3A3A3A"/>
<path d="M7.19444 3.34033H6.9375V3.59728H7.19444V3.34033Z" fill="#3A3A3A"/>
<path d="M7.4514 3.34033H7.19446V3.59728H7.4514V3.34033Z" fill="#3A3A3A"/>
<path d="M7.7083 3.34033H7.45135V3.59728H7.7083V3.34033Z" fill="#3A3A3A"/>
<path d="M5.3958 3.59729H5.13885V3.85423H5.3958V3.59729Z" fill="#3A3A3A"/>
<path d="M5.65276 3.59729H5.39581V3.85423H5.65276V3.59729Z" fill="#3A3A3A"/>
<path d="M5.90978 3.59729H5.65283V3.85423H5.90978V3.59729Z" fill="#3A3A3A"/>
<path d="M6.16667 3.59729H5.90973V3.85423H6.16667V3.59729Z" fill="#3A3A3A"/>
<path d="M6.42363 3.59729H6.16669V3.85423H6.42363V3.59729Z" fill="#3A3A3A"/>
<path d="M6.68059 3.59729H6.42365V3.85423H6.68059V3.59729Z" fill="#3A3A3A"/>
<path d="M6.93749 3.59729H6.68054V3.85423H6.93749V3.59729Z" fill="#3A3A3A"/>
<path d="M7.19444 3.59729H6.9375V3.85423H7.19444V3.59729Z" fill="#3A3A3A"/>
<path d="M7.4514 3.59729H7.19446V3.85423H7.4514V3.59729Z" fill="#3A3A3A"/>
<path d="M7.7083 3.59729H7.45135V3.85423H7.7083V3.59729Z" fill="#3A3A3A"/>
<path d="M5.3958 3.85413H5.13885V4.11107H5.3958V3.85413Z" fill="#3A3A3A"/>
<path d="M5.65276 3.85413H5.39581V4.11107H5.65276V3.85413Z" fill="#3A3A3A"/>
<path d="M5.90978 3.85413H5.65283V4.11107H5.90978V3.85413Z" fill="#3A3A3A"/>
<path d="M6.16667 3.85413H5.90973V4.11107H6.16667V3.85413Z" fill="#3A3A3A"/>
<path d="M6.42363 3.85413H6.16669V4.11107H6.42363V3.85413Z" fill="#3A3A3A"/>
<path d="M6.68059 3.85413H6.42365V4.11107H6.68059V3.85413Z" fill="#3A3A3A"/>
<path d="M6.93749 3.85413H6.68054V4.11107H6.93749V3.85413Z" fill="#3A3A3A"/>
<path d="M7.19444 3.85413H6.9375V4.11107H7.19444V3.85413Z" fill="#3A3A3A"/>
<path d="M7.4514 3.85413H7.19446V4.11107H7.4514V3.85413Z" fill="#3A3A3A"/>
<path d="M7.7083 3.85413H7.45135V4.11107H7.7083V3.85413Z" fill="#3A3A3A"/>
<path d="M5.3958 4.11108H5.13885V4.36803H5.3958V4.11108Z" fill="#3A3A3A"/>
<path d="M5.65276 4.11108H5.39581V4.36803H5.65276V4.11108Z" fill="#3A3A3A"/>
<path d="M5.90978 4.11108H5.65283V4.36803H5.90978V4.11108Z" fill="#3A3A3A"/>
<path d="M6.16667 4.11108H5.90973V4.36803H6.16667V4.11108Z" fill="#3A3A3A"/>
<path d="M6.42363 4.11108H6.16669V4.36803H6.42363V4.11108Z" fill="#3A3A3A"/>
<path d="M6.68059 4.11108H6.42365V4.36803H6.68059V4.11108Z" fill="#3A3A3A"/>
<path d="M6.93749 4.11108H6.68054V4.36803H6.93749V4.11108Z" fill="#3A3A3A"/>
<path d="M7.19444 4.11108H6.9375V4.36803H7.19444V4.11108Z" fill="#3A3A3A"/>
<path d="M7.4514 4.11108H7.19446V4.36803H7.4514V4.11108Z" fill="#3A3A3A"/>
<path d="M7.7083 4.11108H7.45135V4.36803H7.7083V4.11108Z" fill="#3A3A3A"/>
<path d="M5.3958 4.36804H5.13885V4.62499H5.3958V4.36804Z" fill="#3A3A3A"/>
<path d="M5.65276 4.36804H5.39581V4.62499H5.65276V4.36804Z" fill="#3A3A3A"/>
<path d="M5.90978 4.36804H5.65283V4.62499H5.90978V4.36804Z" fill="#3A3A3A"/>
<path d="M6.16667 4.36804H5.90973V4.62499H6.16667V4.36804Z" fill="#3A3A3A"/>
<path d="M6.42363 4.36804H6.16669V4.62499H6.42363V4.36804Z" fill="#3A3A3A"/>
<path d="M6.68059 4.36804H6.42365V4.62499H6.68059V4.36804Z" fill="#3A3A3A"/>
<path d="M6.93749 4.36804H6.68054V4.62499H6.93749V4.36804Z" fill="#3A3A3A"/>
<path d="M7.19444 4.36804H6.9375V4.62499H7.19444V4.36804Z" fill="#3A3A3A"/>
<path d="M7.4514 4.36804H7.19446V4.62499H7.4514V4.36804Z" fill="#3A3A3A"/>
<path d="M7.7083 4.36804H7.45135V4.62499H7.7083V4.36804Z" fill="#3A3A3A"/>
<path d="M5.3958 4.625H5.13885V4.88194H5.3958V4.625Z" fill="#3A3A3A"/>
<path d="M5.65276 4.625H5.39581V4.88194H5.65276V4.625Z" fill="#3A3A3A"/>
<path d="M5.90978 4.625H5.65283V4.88194H5.90978V4.625Z" fill="#3A3A3A"/>
<path d="M6.16667 4.625H5.90973V4.88194H6.16667V4.625Z" fill="#3A3A3A"/>
<path d="M6.42363 4.625H6.16669V4.88194H6.42363V4.625Z" fill="#3A3A3A"/>
<path d="M6.68059 4.625H6.42365V4.88194H6.68059V4.625Z" fill="#3A3A3A"/>
<path d="M6.93749 4.625H6.68054V4.88194H6.93749V4.625Z" fill="#3A3A3A"/>
<path d="M7.19444 4.625H6.9375V4.88194H7.19444V4.625Z" fill="#3A3A3A"/>
<path d="M7.4514 4.625H7.19446V4.88194H7.4514V4.625Z" fill="#3A3A3A"/>
<path d="M7.7083 4.625H7.45135V4.88194H7.7083V4.625Z" fill="#3A3A3A"/>
<path d="M5.3958 4.88196H5.13885V5.1389H5.3958V4.88196Z" fill="#3A3A3A"/>
<path d="M5.65276 4.88196H5.39581V5.1389H5.65276V4.88196Z" fill="#3A3A3A"/>
<path d="M5.90978 4.88196H5.65283V5.1389H5.90978V4.88196Z" fill="#3A3A3A"/>
<path d="M6.16667 4.88196H5.90973V5.1389H6.16667V4.88196Z" fill="#3A3A3A"/>
<path d="M6.42363 4.88196H6.16669V5.1389H6.42363V4.88196Z" fill="#3A3A3A"/>
<path d="M6.68059 4.88196H6.42365V5.1389H6.68059V4.88196Z" fill="#3A3A3A"/>
<path d="M6.93749 4.88196H6.68054V5.1389H6.93749V4.88196Z" fill="#3A3A3A"/>
<path d="M7.19444 4.88196H6.9375V5.1389H7.19444V4.88196Z" fill="#3A3A3A"/>
<path d="M7.4514 4.88196H7.19446V5.1389H7.4514V4.88196Z" fill="#3A3A3A"/>
<path d="M7.7083 4.88196H7.45135V5.1389H7.7083V4.88196Z" fill="#3A3A3A"/>
<path d="M7.96526 5.13892H7.70831V5.39586H7.96526V5.13892Z" fill="#3A3A3A"/>
<path d="M8.22222 5.13892H7.96527V5.39586H8.22222V5.13892Z" fill="#3A3A3A"/>
<path d="M8.47917 5.13892H8.22223V5.39586H8.47917V5.13892Z" fill="#3A3A3A"/>
<path d="M8.73613 5.13892H8.47919V5.39586H8.73613V5.13892Z" fill="#3A3A3A"/>
<path d="M8.99303 5.13892H8.73608V5.39586H8.99303V5.13892Z" fill="#3A3A3A"/>
<path d="M9.24999 5.13892H8.99304V5.39586H9.24999V5.13892Z" fill="#3A3A3A"/>
<path d="M9.50694 5.13892H9.25V5.39586H9.50694V5.13892Z" fill="#3A3A3A"/>
<path d="M9.76384 5.13892H9.5069V5.39586H9.76384V5.13892Z" fill="#3A3A3A"/>
<path d="M10.0208 5.13892H9.76385V5.39586H10.0208V5.13892Z" fill="#3A3A3A"/>
<path d="M10.2778 5.13892H10.0208V5.39586H10.2778V5.13892Z" fill="#3A3A3A"/>
<path d="M10.5347 5.13892H10.2778V5.39586H10.5347V5.13892Z" fill="#3A3A3A"/>
<path d="M10.7917 5.13892H10.5347V5.39586H10.7917V5.13892Z" fill="#3A3A3A"/>
<path d="M11.0486 5.13892H10.7917V5.39586H11.0486V5.13892Z" fill="#3A3A3A"/>
<path d="M11.3055 5.13892H11.0486V5.39586H11.3055V5.13892Z" fill="#3A3A3A"/>
<path d="M11.5625 5.13892H11.3055V5.39586H11.5625V5.13892Z" fill="#3A3A3A"/>
<path d="M11.8194 5.13892H11.5625V5.39586H11.8194V5.13892Z" fill="#3A3A3A"/>
<path d="M12.0763 5.13892H11.8194V5.39586H12.0763V5.13892Z" fill="#3A3A3A"/>
<path d="M12.3333 5.13892H12.0764V5.39586H12.3333V5.13892Z" fill="#3A3A3A"/>
<path d="M12.5903 5.13892H12.3333V5.39586H12.5903V5.13892Z" fill="#3A3A3A"/>
<path d="M12.8472 5.13892H12.5903V5.39586H12.8472V5.13892Z" fill="#3A3A3A"/>
<path d="M7.96526 5.39575H7.70831V5.6527H7.96526V5.39575Z" fill="#3A3A3A"/>
<path d="M8.22222 5.39575H7.96527V5.6527H8.22222V5.39575Z" fill="#3A3A3A"/>
<path d="M8.47917 5.39575H8.22223V5.6527H8.47917V5.39575Z" fill="#3A3A3A"/>
<path d="M8.73613 5.39575H8.47919V5.6527H8.73613V5.39575Z" fill="#3A3A3A"/>
<path d="M8.99303 5.39575H8.73608V5.6527H8.99303V5.39575Z" fill="#3A3A3A"/>
<path d="M9.24999 5.39575H8.99304V5.6527H9.24999V5.39575Z" fill="#3A3A3A"/>
<path d="M9.50694 5.39575H9.25V5.6527H9.50694V5.39575Z" fill="#3A3A3A"/>
<path d="M9.76384 5.39575H9.5069V5.6527H9.76384V5.39575Z" fill="#3A3A3A"/>
<path d="M10.0208 5.39575H9.76385V5.6527H10.0208V5.39575Z" fill="#3A3A3A"/>
<path d="M10.2778 5.39575H10.0208V5.6527H10.2778V5.39575Z" fill="#3A3A3A"/>
<path d="M10.5347 5.39575H10.2778V5.6527H10.5347V5.39575Z" fill="#3A3A3A"/>
<path d="M10.7917 5.39575H10.5347V5.6527H10.7917V5.39575Z" fill="#3A3A3A"/>
<path d="M11.0486 5.39575H10.7917V5.6527H11.0486V5.39575Z" fill="#3A3A3A"/>
<path d="M11.3055 5.39575H11.0486V5.6527H11.3055V5.39575Z" fill="#3A3A3A"/>
<path d="M11.5625 5.39575H11.3055V5.6527H11.5625V5.39575Z" fill="#3A3A3A"/>
<path d="M11.8194 5.39575H11.5625V5.6527H11.8194V5.39575Z" fill="#3A3A3A"/>
<path d="M12.0763 5.39575H11.8194V5.6527H12.0763V5.39575Z" fill="#3A3A3A"/>
<path d="M12.3333 5.39575H12.0764V5.6527H12.3333V5.39575Z" fill="#3A3A3A"/>
<path d="M12.5903 5.39575H12.3333V5.6527H12.5903V5.39575Z" fill="#3A3A3A"/>
<path d="M12.8472 5.39575H12.5903V5.6527H12.8472V5.39575Z" fill="#3A3A3A"/>
<path d="M7.96526 5.65271H7.70831V5.90965H7.96526V5.65271Z" fill="#3A3A3A"/>
<path d="M8.22222 5.65271H7.96527V5.90965H8.22222V5.65271Z" fill="#3A3A3A"/>
<path d="M8.47917 5.65271H8.22223V5.90965H8.47917V5.65271Z" fill="#3A3A3A"/>
<path d="M8.73613 5.65271H8.47919V5.90965H8.73613V5.65271Z" fill="#3A3A3A"/>
<path d="M8.99303 5.65271H8.73608V5.90965H8.99303V5.65271Z" fill="#3A3A3A"/>
<path d="M9.24999 5.65271H8.99304V5.90965H9.24999V5.65271Z" fill="#3A3A3A"/>
<path d="M9.50694 5.65271H9.25V5.90965H9.50694V5.65271Z" fill="#3A3A3A"/>
<path d="M9.76384 5.65271H9.5069V5.90965H9.76384V5.65271Z" fill="#3A3A3A"/>
<path d="M10.0208 5.65271H9.76385V5.90965H10.0208V5.65271Z" fill="#3A3A3A"/>
<path d="M10.2778 5.65271H10.0208V5.90965H10.2778V5.65271Z" fill="#3A3A3A"/>
<path d="M10.5347 5.65271H10.2778V5.90965H10.5347V5.65271Z" fill="#3A3A3A"/>
<path d="M10.7917 5.65271H10.5347V5.90965H10.7917V5.65271Z" fill="#3A3A3A"/>
<path d="M11.0486 5.65271H10.7917V5.90965H11.0486V5.65271Z" fill="#3A3A3A"/>
<path d="M11.3055 5.65271H11.0486V5.90965H11.3055V5.65271Z" fill="#3A3A3A"/>
<path d="M11.5625 5.65271H11.3055V5.90965H11.5625V5.65271Z" fill="#3A3A3A"/>
<path d="M11.8194 5.65271H11.5625V5.90965H11.8194V5.65271Z" fill="#3A3A3A"/>
<path d="M12.0763 5.65271H11.8194V5.90965H12.0763V5.65271Z" fill="#3A3A3A"/>
<path d="M12.3333 5.65271H12.0764V5.90965H12.3333V5.65271Z" fill="#3A3A3A"/>
<path d="M12.5903 5.65271H12.3333V5.90965H12.5903V5.65271Z" fill="#3A3A3A"/>
<path d="M12.8472 5.65271H12.5903V5.90965H12.8472V5.65271Z" fill="#3A3A3A"/>
<path d="M7.96526 5.90967H7.70831V6.16661H7.96526V5.90967Z" fill="#3A3A3A"/>
<path d="M8.22222 5.90967H7.96527V6.16661H8.22222V5.90967Z" fill="#3A3A3A"/>
<path d="M8.47917 5.90967H8.22223V6.16661H8.47917V5.90967Z" fill="#3A3A3A"/>
<path d="M8.73613 5.90967H8.47919V6.16661H8.73613V5.90967Z" fill="#3A3A3A"/>
<path d="M8.99303 5.90967H8.73608V6.16661H8.99303V5.90967Z" fill="#3A3A3A"/>
<path d="M9.24999 5.90967H8.99304V6.16661H9.24999V5.90967Z" fill="#3A3A3A"/>
<path d="M9.50694 5.90967H9.25V6.16661H9.50694V5.90967Z" fill="#3A3A3A"/>
<path d="M9.76384 5.90967H9.5069V6.16661H9.76384V5.90967Z" fill="#3A3A3A"/>
<path d="M10.0208 5.90967H9.76385V6.16661H10.0208V5.90967Z" fill="#3A3A3A"/>
<path d="M10.2778 5.90967H10.0208V6.16661H10.2778V5.90967Z" fill="#3A3A3A"/>
<path d="M10.5347 5.90967H10.2778V6.16661H10.5347V5.90967Z" fill="#3A3A3A"/>
<path d="M10.7917 5.90967H10.5347V6.16661H10.7917V5.90967Z" fill="#3A3A3A"/>
<path d="M11.0486 5.90967H10.7917V6.16661H11.0486V5.90967Z" fill="#3A3A3A"/>
<path d="M11.3055 5.90967H11.0486V6.16661H11.3055V5.90967Z" fill="#3A3A3A"/>
<path d="M11.5625 5.90967H11.3055V6.16661H11.5625V5.90967Z" fill="#3A3A3A"/>
<path d="M11.8194 5.90967H11.5625V6.16661H11.8194V5.90967Z" fill="#3A3A3A"/>
<path d="M12.0763 5.90967H11.8194V6.16661H12.0763V5.90967Z" fill="#3A3A3A"/>
<path d="M12.3333 5.90967H12.0764V6.16661H12.3333V5.90967Z" fill="#3A3A3A"/>
<path d="M12.5903 5.90967H12.3333V6.16661H12.5903V5.90967Z" fill="#3A3A3A"/>
<path d="M12.8472 5.90967H12.5903V6.16661H12.8472V5.90967Z" fill="#3A3A3A"/>
<path d="M7.96526 6.16663H7.70831V6.42357H7.96526V6.16663Z" fill="#3A3A3A"/>
<path d="M8.22222 6.16663H7.96527V6.42357H8.22222V6.16663Z" fill="#3A3A3A"/>
<path d="M8.47917 6.16663H8.22223V6.42357H8.47917V6.16663Z" fill="#3A3A3A"/>
<path d="M8.73613 6.16663H8.47919V6.42357H8.73613V6.16663Z" fill="#3A3A3A"/>
<path d="M8.99303 6.16663H8.73608V6.42357H8.99303V6.16663Z" fill="#3A3A3A"/>
<path d="M9.24999 6.16663H8.99304V6.42357H9.24999V6.16663Z" fill="#3A3A3A"/>
<path d="M9.50694 6.16663H9.25V6.42357H9.50694V6.16663Z" fill="#3A3A3A"/>
<path d="M9.76384 6.16663H9.5069V6.42357H9.76384V6.16663Z" fill="#3A3A3A"/>
<path d="M10.0208 6.16663H9.76385V6.42357H10.0208V6.16663Z" fill="#3A3A3A"/>
<path d="M10.2778 6.16663H10.0208V6.42357H10.2778V6.16663Z" fill="#3A3A3A"/>
<path d="M10.5347 6.16663H10.2778V6.42357H10.5347V6.16663Z" fill="#3A3A3A"/>
<path d="M10.7917 6.16663H10.5347V6.42357H10.7917V6.16663Z" fill="#3A3A3A"/>
<path d="M11.0486 6.16663H10.7917V6.42357H11.0486V6.16663Z" fill="#3A3A3A"/>
<path d="M11.3055 6.16663H11.0486V6.42357H11.3055V6.16663Z" fill="#3A3A3A"/>
<path d="M11.5625 6.16663H11.3055V6.42357H11.5625V6.16663Z" fill="#3A3A3A"/>
<path d="M11.8194 6.16663H11.5625V6.42357H11.8194V6.16663Z" fill="#3A3A3A"/>
<path d="M12.0763 6.16663H11.8194V6.42357H12.0763V6.16663Z" fill="#3A3A3A"/>
<path d="M12.3333 6.16663H12.0764V6.42357H12.3333V6.16663Z" fill="#3A3A3A"/>
<path d="M12.5903 6.16663H12.3333V6.42357H12.5903V6.16663Z" fill="#3A3A3A"/>
<path d="M12.8472 6.16663H12.5903V6.42357H12.8472V6.16663Z" fill="#3A3A3A"/>
<path d="M7.96526 6.42358H7.70831V6.68053H7.96526V6.42358Z" fill="#3A3A3A"/>
<path d="M8.22222 6.42358H7.96527V6.68053H8.22222V6.42358Z" fill="#3A3A3A"/>
<path d="M8.47917 6.42358H8.22223V6.68053H8.47917V6.42358Z" fill="#3A3A3A"/>
<path d="M8.73613 6.42358H8.47919V6.68053H8.73613V6.42358Z" fill="#3A3A3A"/>
<path d="M8.99303 6.42358H8.73608V6.68053H8.99303V6.42358Z" fill="#3A3A3A"/>
<path d="M9.24999 6.42358H8.99304V6.68053H9.24999V6.42358Z" fill="#3A3A3A"/>
<path d="M9.50694 6.42358H9.25V6.68053H9.50694V6.42358Z" fill="#3A3A3A"/>
<path d="M9.76384 6.42358H9.5069V6.68053H9.76384V6.42358Z" fill="#3A3A3A"/>
<path d="M10.0208 6.42358H9.76385V6.68053H10.0208V6.42358Z" fill="#3A3A3A"/>
<path d="M10.2778 6.42358H10.0208V6.68053H10.2778V6.42358Z" fill="#3A3A3A"/>
<path d="M10.5347 6.42358H10.2778V6.68053H10.5347V6.42358Z" fill="#3A3A3A"/>
<path d="M10.7917 6.42358H10.5347V6.68053H10.7917V6.42358Z" fill="#3A3A3A"/>
<path d="M11.0486 6.42358H10.7917V6.68053H11.0486V6.42358Z" fill="#3A3A3A"/>
<path d="M11.3055 6.42358H11.0486V6.68053H11.3055V6.42358Z" fill="#3A3A3A"/>
<path d="M11.5625 6.42358H11.3055V6.68053H11.5625V6.42358Z" fill="#3A3A3A"/>
<path d="M11.8194 6.42358H11.5625V6.68053H11.8194V6.42358Z" fill="#3A3A3A"/>
<path d="M12.0763 6.42358H11.8194V6.68053H12.0763V6.42358Z" fill="#3A3A3A"/>
<path d="M12.3333 6.42358H12.0764V6.68053H12.3333V6.42358Z" fill="#3A3A3A"/>
<path d="M12.5903 6.42358H12.3333V6.68053H12.5903V6.42358Z" fill="#3A3A3A"/>
<path d="M12.8472 6.42358H12.5903V6.68053H12.8472V6.42358Z" fill="#3A3A3A"/>
<path d="M7.96526 6.68054H7.70831V6.93749H7.96526V6.68054Z" fill="#3A3A3A"/>
<path d="M8.22222 6.68054H7.96527V6.93749H8.22222V6.68054Z" fill="#3A3A3A"/>
<path d="M8.47917 6.68054H8.22223V6.93749H8.47917V6.68054Z" fill="#3A3A3A"/>
<path d="M8.73613 6.68054H8.47919V6.93749H8.73613V6.68054Z" fill="#3A3A3A"/>
<path d="M8.99303 6.68054H8.73608V6.93749H8.99303V6.68054Z" fill="#3A3A3A"/>
<path d="M9.24999 6.68054H8.99304V6.93749H9.24999V6.68054Z" fill="#3A3A3A"/>
<path d="M9.50694 6.68054H9.25V6.93749H9.50694V6.68054Z" fill="#3A3A3A"/>
<path d="M9.76384 6.68054H9.5069V6.93749H9.76384V6.68054Z" fill="#3A3A3A"/>
<path d="M10.0208 6.68054H9.76385V6.93749H10.0208V6.68054Z" fill="#3A3A3A"/>
<path d="M10.2778 6.68054H10.0208V6.93749H10.2778V6.68054Z" fill="#3A3A3A"/>
<path d="M10.5347 6.68054H10.2778V6.93749H10.5347V6.68054Z" fill="#3A3A3A"/>
<path d="M10.7917 6.68054H10.5347V6.93749H10.7917V6.68054Z" fill="#3A3A3A"/>
<path d="M11.0486 6.68054H10.7917V6.93749H11.0486V6.68054Z" fill="#3A3A3A"/>
<path d="M11.3055 6.68054H11.0486V6.93749H11.3055V6.68054Z" fill="#3A3A3A"/>
<path d="M11.5625 6.68054H11.3055V6.93749H11.5625V6.68054Z" fill="#3A3A3A"/>
<path d="M11.8194 6.68054H11.5625V6.93749H11.8194V6.68054Z" fill="#3A3A3A"/>
<path d="M12.0763 6.68054H11.8194V6.93749H12.0763V6.68054Z" fill="#3A3A3A"/>
<path d="M12.3333 6.68054H12.0764V6.93749H12.3333V6.68054Z" fill="#3A3A3A"/>
<path d="M12.5903 6.68054H12.3333V6.93749H12.5903V6.68054Z" fill="#3A3A3A"/>
<path d="M12.8472 6.68054H12.5903V6.93749H12.8472V6.68054Z" fill="#3A3A3A"/>
<path d="M7.96526 6.9375H7.70831V7.19444H7.96526V6.9375Z" fill="#3A3A3A"/>
<path d="M8.22222 6.9375H7.96527V7.19444H8.22222V6.9375Z" fill="#3A3A3A"/>
<path d="M8.47917 6.9375H8.22223V7.19444H8.47917V6.9375Z" fill="#3A3A3A"/>
<path d="M8.73613 6.9375H8.47919V7.19444H8.73613V6.9375Z" fill="#3A3A3A"/>
<path d="M8.99303 6.9375H8.73608V7.19444H8.99303V6.9375Z" fill="#3A3A3A"/>
<path d="M9.24999 6.9375H8.99304V7.19444H9.24999V6.9375Z" fill="#3A3A3A"/>
<path d="M9.50694 6.9375H9.25V7.19444H9.50694V6.9375Z" fill="#3A3A3A"/>
<path d="M9.76384 6.9375H9.5069V7.19444H9.76384V6.9375Z" fill="#3A3A3A"/>
<path d="M10.0208 6.9375H9.76385V7.19444H10.0208V6.9375Z" fill="#3A3A3A"/>
<path d="M10.2778 6.9375H10.0208V7.19444H10.2778V6.9375Z" fill="#3A3A3A"/>
<path d="M10.5347 6.9375H10.2778V7.19444H10.5347V6.9375Z" fill="#3A3A3A"/>
<path d="M10.7917 6.9375H10.5347V7.19444H10.7917V6.9375Z" fill="#3A3A3A"/>
<path d="M11.0486 6.9375H10.7917V7.19444H11.0486V6.9375Z" fill="#3A3A3A"/>
<path d="M11.3055 6.9375H11.0486V7.19444H11.3055V6.9375Z" fill="#3A3A3A"/>
<path d="M11.5625 6.9375H11.3055V7.19444H11.5625V6.9375Z" fill="#3A3A3A"/>
<path d="M11.8194 6.9375H11.5625V7.19444H11.8194V6.9375Z" fill="#3A3A3A"/>
<path d="M12.0763 6.9375H11.8194V7.19444H12.0763V6.9375Z" fill="#3A3A3A"/>
<path d="M12.3333 6.9375H12.0764V7.19444H12.3333V6.9375Z" fill="#3A3A3A"/>
<path d="M12.5903 6.9375H12.3333V7.19444H12.5903V6.9375Z" fill="#3A3A3A"/>
<path d="M12.8472 6.9375H12.5903V7.19444H12.8472V6.9375Z" fill="#3A3A3A"/>
<path d="M7.96526 7.19446H7.70831V7.4514H7.96526V7.19446Z" fill="#3A3A3A"/>
<path d="M8.22222 7.19446H7.96527V7.4514H8.22222V7.19446Z" fill="#3A3A3A"/>
<path d="M8.47917 7.19446H8.22223V7.4514H8.47917V7.19446Z" fill="#3A3A3A"/>
<path d="M8.73613 7.19446H8.47919V7.4514H8.73613V7.19446Z" fill="#3A3A3A"/>
<path d="M8.99303 7.19446H8.73608V7.4514H8.99303V7.19446Z" fill="#3A3A3A"/>
<path d="M9.24999 7.19446H8.99304V7.4514H9.24999V7.19446Z" fill="#3A3A3A"/>
<path d="M9.50694 7.19446H9.25V7.4514H9.50694V7.19446Z" fill="#3A3A3A"/>
<path d="M9.76384 7.19446H9.5069V7.4514H9.76384V7.19446Z" fill="#3A3A3A"/>
<path d="M10.0208 7.19446H9.76385V7.4514H10.0208V7.19446Z" fill="#3A3A3A"/>
<path d="M10.2778 7.19446H10.0208V7.4514H10.2778V7.19446Z" fill="#3A3A3A"/>
<path d="M10.5347 7.19446H10.2778V7.4514H10.5347V7.19446Z" fill="#3A3A3A"/>
<path d="M10.7917 7.19446H10.5347V7.4514H10.7917V7.19446Z" fill="#3A3A3A"/>
<path d="M11.0486 7.19446H10.7917V7.4514H11.0486V7.19446Z" fill="#3A3A3A"/>
<path d="M11.3055 7.19446H11.0486V7.4514H11.3055V7.19446Z" fill="#3A3A3A"/>
<path d="M11.5625 7.19446H11.3055V7.4514H11.5625V7.19446Z" fill="#3A3A3A"/>
<path d="M11.8194 7.19446H11.5625V7.4514H11.8194V7.19446Z" fill="#3A3A3A"/>
<path d="M12.0763 7.19446H11.8194V7.4514H12.0763V7.19446Z" fill="#3A3A3A"/>
<path d="M12.3333 7.19446H12.0764V7.4514H12.3333V7.19446Z" fill="#3A3A3A"/>
<path d="M12.5903 7.19446H12.3333V7.4514H12.5903V7.19446Z" fill="#3A3A3A"/>
<path d="M12.8472 7.19446H12.5903V7.4514H12.8472V7.19446Z" fill="#3A3A3A"/>
<path d="M7.96526 7.45142H7.70831V7.70836H7.96526V7.45142Z" fill="#3A3A3A"/>
<path d="M8.22222 7.45142H7.96527V7.70836H8.22222V7.45142Z" fill="#3A3A3A"/>
<path d="M8.47917 7.45142H8.22223V7.70836H8.47917V7.45142Z" fill="#3A3A3A"/>
<path d="M8.73613 7.45142H8.47919V7.70836H8.73613V7.45142Z" fill="#3A3A3A"/>
<path d="M8.99303 7.45142H8.73608V7.70836H8.99303V7.45142Z" fill="#3A3A3A"/>
<path d="M9.24999 7.45142H8.99304V7.70836H9.24999V7.45142Z" fill="#3A3A3A"/>
<path d="M9.50694 7.45142H9.25V7.70836H9.50694V7.45142Z" fill="#3A3A3A"/>
<path d="M9.76384 7.45142H9.5069V7.70836H9.76384V7.45142Z" fill="#3A3A3A"/>
<path d="M10.0208 7.45142H9.76385V7.70836H10.0208V7.45142Z" fill="#3A3A3A"/>
<path d="M10.2778 7.45142H10.0208V7.70836H10.2778V7.45142Z" fill="#3A3A3A"/>
<path d="M10.5347 7.45142H10.2778V7.70836H10.5347V7.45142Z" fill="#3A3A3A"/>
<path d="M10.7917 7.45142H10.5347V7.70836H10.7917V7.45142Z" fill="#3A3A3A"/>
<path d="M11.0486 7.45142H10.7917V7.70836H11.0486V7.45142Z" fill="#3A3A3A"/>
<path d="M11.3055 7.45142H11.0486V7.70836H11.3055V7.45142Z" fill="#3A3A3A"/>
<path d="M11.5625 7.45142H11.3055V7.70836H11.5625V7.45142Z" fill="#3A3A3A"/>
<path d="M11.8194 7.45142H11.5625V7.70836H11.8194V7.45142Z" fill="#3A3A3A"/>
<path d="M12.0763 7.45142H11.8194V7.70836H12.0763V7.45142Z" fill="#3A3A3A"/>
<path d="M12.3333 7.45142H12.0764V7.70836H12.3333V7.45142Z" fill="#3A3A3A"/>
<path d="M12.5903 7.45142H12.3333V7.70836H12.5903V7.45142Z" fill="#3A3A3A"/>
<path d="M12.8472 7.45142H12.5903V7.70836H12.8472V7.45142Z" fill="#3A3A3A"/>
<path d="M0.256944 7.70837H0V7.96532H0.256944V7.70837Z" fill="#3A3A3A"/>
<path d="M0.513902 7.70837H0.256958V7.96532H0.513902V7.70837Z" fill="#3A3A3A"/>
<path d="M0.770799 7.70837H0.513855V7.96532H0.770799V7.70837Z" fill="#3A3A3A"/>
<path d="M1.02776 7.70837H0.770813V7.96532H1.02776V7.70837Z" fill="#3A3A3A"/>
<path d="M1.28472 7.70837H1.02777V7.96532H1.28472V7.70837Z" fill="#3A3A3A"/>
<path d="M1.54167 7.70837H1.28473V7.96532H1.54167V7.70837Z" fill="#3A3A3A"/>
<path d="M1.79863 7.70837H1.54169V7.96532H1.79863V7.70837Z" fill="#3A3A3A"/>
<path d="M2.05559 7.70837H1.79865V7.96532H2.05559V7.70837Z" fill="#3A3A3A"/>
<path d="M2.31249 7.70837H2.05554V7.96532H2.31249V7.70837Z" fill="#3A3A3A"/>
<path d="M2.56944 7.70837H2.3125V7.96532H2.56944V7.70837Z" fill="#3A3A3A"/>
<path d="M2.8264 7.70837H2.56946V7.96532H2.8264V7.70837Z" fill="#3A3A3A"/>
<path d="M3.0833 7.70837H2.82635V7.96532H3.0833V7.70837Z" fill="#3A3A3A"/>
<path d="M3.34026 7.70837H3.08331V7.96532H3.34026V7.70837Z" fill="#3A3A3A"/>
<path d="M3.59722 7.70837H3.34027V7.96532H3.59722V7.70837Z" fill="#3A3A3A"/>
<path d="M3.85417 7.70837H3.59723V7.96532H3.85417V7.70837Z" fill="#3A3A3A"/>
<path d="M4.11113 7.70837H3.85419V7.96532H4.11113V7.70837Z" fill="#3A3A3A"/>
<path d="M4.36809 7.70837H4.11115V7.96532H4.36809V7.70837Z" fill="#3A3A3A"/>
<path d="M4.62499 7.70837H4.36804V7.96532H4.62499V7.70837Z" fill="#3A3A3A"/>
<path d="M4.88194 7.70837H4.625V7.96532H4.88194V7.70837Z" fill="#3A3A3A"/>
<path d="M5.1389 7.70837H4.88196V7.96532H5.1389V7.70837Z" fill="#3A3A3A"/>
<path d="M5.3958 7.70837H5.13885V7.96532H5.3958V7.70837Z" fill="#3A3A3A"/>
<path d="M5.65276 7.70837H5.39581V7.96532H5.65276V7.70837Z" fill="#3A3A3A"/>
<path d="M5.90978 7.70837H5.65283V7.96532H5.90978V7.70837Z" fill="#3A3A3A"/>
<path d="M6.16667 7.70837H5.90973V7.96532H6.16667V7.70837Z" fill="#3A3A3A"/>
<path d="M6.42363 7.70837H6.16669V7.96532H6.42363V7.70837Z" fill="#3A3A3A"/>
<path d="M6.68059 7.70837H6.42365V7.96532H6.68059V7.70837Z" fill="#3A3A3A"/>
<path d="M6.93749 7.70837H6.68054V7.96532H6.93749V7.70837Z" fill="#3A3A3A"/>
<path d="M7.19444 7.70837H6.9375V7.96532H7.19444V7.70837Z" fill="#3A3A3A"/>
<path d="M7.4514 7.70837H7.19446V7.96532H7.4514V7.70837Z" fill="#3A3A3A"/>
<path d="M7.7083 7.70837H7.45135V7.96532H7.7083V7.70837Z" fill="#3A3A3A"/>
<path d="M7.96526 7.70837H7.70831V7.96532H7.96526V7.70837Z" fill="#3A3A3A"/>
<path d="M8.22222 7.70837H7.96527V7.96532H8.22222V7.70837Z" fill="#3A3A3A"/>
<path d="M8.47917 7.70837H8.22223V7.96532H8.47917V7.70837Z" fill="#3A3A3A"/>
<path d="M8.73613 7.70837H8.47919V7.96532H8.73613V7.70837Z" fill="#3A3A3A"/>
<path d="M8.99303 7.70837H8.73608V7.96532H8.99303V7.70837Z" fill="#3A3A3A"/>
<path d="M9.24999 7.70837H8.99304V7.96532H9.24999V7.70837Z" fill="#3A3A3A"/>
<path d="M9.50694 7.70837H9.25V7.96532H9.50694V7.70837Z" fill="#3A3A3A"/>
<path d="M9.76384 7.70837H9.5069V7.96532H9.76384V7.70837Z" fill="#3A3A3A"/>
<path d="M10.0208 7.70837H9.76385V7.96532H10.0208V7.70837Z" fill="#3A3A3A"/>
<path d="M10.2778 7.70837H10.0208V7.96532H10.2778V7.70837Z" fill="#3A3A3A"/>
<path d="M10.5347 7.70837H10.2778V7.96532H10.5347V7.70837Z" fill="#3A3A3A"/>
<path d="M10.7917 7.70837H10.5347V7.96532H10.7917V7.70837Z" fill="#3A3A3A"/>
<path d="M11.0486 7.70837H10.7917V7.96532H11.0486V7.70837Z" fill="#3A3A3A"/>
<path d="M11.3055 7.70837H11.0486V7.96532H11.3055V7.70837Z" fill="#3A3A3A"/>
<path d="M11.5625 7.70837H11.3055V7.96532H11.5625V7.70837Z" fill="#3A3A3A"/>
<path d="M11.8194 7.70837H11.5625V7.96532H11.8194V7.70837Z" fill="#3A3A3A"/>
<path d="M12.0763 7.70837H11.8194V7.96532H12.0763V7.70837Z" fill="#3A3A3A"/>
<path d="M12.3333 7.70837H12.0764V7.96532H12.3333V7.70837Z" fill="#3A3A3A"/>
<path d="M12.5903 7.70837H12.3333V7.96532H12.5903V7.70837Z" fill="#3A3A3A"/>
<path d="M12.8472 7.70837H12.5903V7.96532H12.8472V7.70837Z" fill="#3A3A3A"/>
<path d="M13.1042 7.70837H12.8472V7.96532H13.1042V7.70837Z" fill="#3A3A3A"/>
<path d="M13.3611 7.70837H13.1042V7.96532H13.3611V7.70837Z" fill="#3A3A3A"/>
<path d="M13.618 7.70837H13.3611V7.96532H13.618V7.70837Z" fill="#3A3A3A"/>
<path d="M13.875 7.70837H13.618V7.96532H13.875V7.70837Z" fill="#3A3A3A"/>
<path d="M14.1319 7.70837H13.875V7.96532H14.1319V7.70837Z" fill="#3A3A3A"/>
<path d="M14.3888 7.70837H14.1319V7.96532H14.3888V7.70837Z" fill="#3A3A3A"/>
<path d="M14.6458 7.70837H14.3889V7.96532H14.6458V7.70837Z" fill="#3A3A3A"/>
<path d="M14.9028 7.70837H14.6459V7.96532H14.9028V7.70837Z" fill="#3A3A3A"/>
<path d="M15.1597 7.70837H14.9028V7.96532H15.1597V7.70837Z" fill="#3A3A3A"/>
<path d="M15.4167 7.70837H15.1597V7.96532H15.4167V7.70837Z" fill="#3A3A3A"/>
<path d="M15.6736 7.70837H15.4167V7.96532H15.6736V7.70837Z" fill="#3A3A3A"/>
<path d="M15.9305 7.70837H15.6736V7.96532H15.9305V7.70837Z" fill="#3A3A3A"/>
<path d="M16.1875 7.70837H15.9305V7.96532H16.1875V7.70837Z" fill="#3A3A3A"/>
<path d="M16.4444 7.70837H16.1875V7.96532H16.4444V7.70837Z" fill="#3A3A3A"/>
<path d="M16.7013 7.70837H16.4444V7.96532H16.7013V7.70837Z" fill="#3A3A3A"/>
<path d="M16.9583 7.70837H16.7014V7.96532H16.9583V7.70837Z" fill="#3A3A3A"/>
<path d="M17.2153 7.70837H16.9584V7.96532H17.2153V7.70837Z" fill="#3A3A3A"/>
<path d="M17.4722 7.70837H17.2153V7.96532H17.4722V7.70837Z" fill="#3A3A3A"/>
<path d="M17.7292 7.70837H17.4722V7.96532H17.7292V7.70837Z" fill="#3A3A3A"/>
<path d="M17.9861 7.70837H17.7292V7.96532H17.9861V7.70837Z" fill="#3A3A3A"/>
<path d="M0.256944 7.96533H0V8.22228H0.256944V7.96533Z" fill="#3A3A3A"/>
<path d="M0.513902 7.96533H0.256958V8.22228H0.513902V7.96533Z" fill="#3A3A3A"/>
<path d="M0.770799 7.96533H0.513855V8.22228H0.770799V7.96533Z" fill="#3A3A3A"/>
<path d="M1.02776 7.96533H0.770813V8.22228H1.02776V7.96533Z" fill="#3A3A3A"/>
<path d="M1.28472 7.96533H1.02777V8.22228H1.28472V7.96533Z" fill="#3A3A3A"/>
<path d="M1.54167 7.96533H1.28473V8.22228H1.54167V7.96533Z" fill="#3A3A3A"/>
<path d="M1.79863 7.96533H1.54169V8.22228H1.79863V7.96533Z" fill="#3A3A3A"/>
<path d="M2.05559 7.96533H1.79865V8.22228H2.05559V7.96533Z" fill="#3A3A3A"/>
<path d="M2.31249 7.96533H2.05554V8.22228H2.31249V7.96533Z" fill="#3A3A3A"/>
<path d="M2.56944 7.96533H2.3125V8.22228H2.56944V7.96533Z" fill="#3A3A3A"/>
<path d="M2.8264 7.96533H2.56946V8.22228H2.8264V7.96533Z" fill="#3A3A3A"/>
<path d="M3.0833 7.96533H2.82635V8.22228H3.0833V7.96533Z" fill="#3A3A3A"/>
<path d="M3.34026 7.96533H3.08331V8.22228H3.34026V7.96533Z" fill="#3A3A3A"/>
<path d="M3.59722 7.96533H3.34027V8.22228H3.59722V7.96533Z" fill="#3A3A3A"/>
<path d="M3.85417 7.96533H3.59723V8.22228H3.85417V7.96533Z" fill="#3A3A3A"/>
<path d="M4.11113 7.96533H3.85419V8.22228H4.11113V7.96533Z" fill="#3A3A3A"/>
<path d="M4.36809 7.96533H4.11115V8.22228H4.36809V7.96533Z" fill="#3A3A3A"/>
<path d="M4.62499 7.96533H4.36804V8.22228H4.62499V7.96533Z" fill="#3A3A3A"/>
<path d="M4.88194 7.96533H4.625V8.22228H4.88194V7.96533Z" fill="#3A3A3A"/>
<path d="M5.1389 7.96533H4.88196V8.22228H5.1389V7.96533Z" fill="#3A3A3A"/>
<path d="M5.3958 7.96533H5.13885V8.22228H5.3958V7.96533Z" fill="#3A3A3A"/>
<path d="M5.65276 7.96533H5.39581V8.22228H5.65276V7.96533Z" fill="#3A3A3A"/>
<path d="M5.90978 7.96533H5.65283V8.22228H5.90978V7.96533Z" fill="#3A3A3A"/>
<path d="M6.16667 7.96533H5.90973V8.22228H6.16667V7.96533Z" fill="#3A3A3A"/>
<path d="M6.42363 7.96533H6.16669V8.22228H6.42363V7.96533Z" fill="#3A3A3A"/>
<path d="M6.68059 7.96533H6.42365V8.22228H6.68059V7.96533Z" fill="#3A3A3A"/>
<path d="M6.93749 7.96533H6.68054V8.22228H6.93749V7.96533Z" fill="#3A3A3A"/>
<path d="M7.19444 7.96533H6.9375V8.22228H7.19444V7.96533Z" fill="#3A3A3A"/>
<path d="M7.4514 7.96533H7.19446V8.22228H7.4514V7.96533Z" fill="#3A3A3A"/>
<path d="M7.7083 7.96533H7.45135V8.22228H7.7083V7.96533Z" fill="#3A3A3A"/>
<path d="M7.96526 7.96533H7.70831V8.22228H7.96526V7.96533Z" fill="#3A3A3A"/>
<path d="M8.22222 7.96533H7.96527V8.22228H8.22222V7.96533Z" fill="#3A3A3A"/>
<path d="M8.47917 7.96533H8.22223V8.22228H8.47917V7.96533Z" fill="#3A3A3A"/>
<path d="M8.73613 7.96533H8.47919V8.22228H8.73613V7.96533Z" fill="#3A3A3A"/>
<path d="M8.99303 7.96533H8.73608V8.22228H8.99303V7.96533Z" fill="#3A3A3A"/>
<path d="M9.24999 7.96533H8.99304V8.22228H9.24999V7.96533Z" fill="#3A3A3A"/>
<path d="M9.50694 7.96533H9.25V8.22228H9.50694V7.96533Z" fill="#3A3A3A"/>
<path d="M9.76384 7.96533H9.5069V8.22228H9.76384V7.96533Z" fill="#3A3A3A"/>
<path d="M10.0208 7.96533H9.76385V8.22228H10.0208V7.96533Z" fill="#3A3A3A"/>
<path d="M10.2778 7.96533H10.0208V8.22228H10.2778V7.96533Z" fill="#3A3A3A"/>
<path d="M10.5347 7.96533H10.2778V8.22228H10.5347V7.96533Z" fill="#3A3A3A"/>
<path d="M10.7917 7.96533H10.5347V8.22228H10.7917V7.96533Z" fill="#3A3A3A"/>
<path d="M11.0486 7.96533H10.7917V8.22228H11.0486V7.96533Z" fill="#3A3A3A"/>
<path d="M11.3055 7.96533H11.0486V8.22228H11.3055V7.96533Z" fill="#3A3A3A"/>
<path d="M11.5625 7.96533H11.3055V8.22228H11.5625V7.96533Z" fill="#3A3A3A"/>
<path d="M11.8194 7.96533H11.5625V8.22228H11.8194V7.96533Z" fill="#3A3A3A"/>
<path d="M12.0763 7.96533H11.8194V8.22228H12.0763V7.96533Z" fill="#3A3A3A"/>
<path d="M12.3333 7.96533H12.0764V8.22228H12.3333V7.96533Z" fill="#3A3A3A"/>
<path d="M12.5903 7.96533H12.3333V8.22228H12.5903V7.96533Z" fill="#3A3A3A"/>
<path d="M12.8472 7.96533H12.5903V8.22228H12.8472V7.96533Z" fill="#3A3A3A"/>
<path d="M13.1042 7.96533H12.8472V8.22228H13.1042V7.96533Z" fill="#3A3A3A"/>
<path d="M13.3611 7.96533H13.1042V8.22228H13.3611V7.96533Z" fill="#3A3A3A"/>
<path d="M13.618 7.96533H13.3611V8.22228H13.618V7.96533Z" fill="#3A3A3A"/>
<path d="M13.875 7.96533H13.618V8.22228H13.875V7.96533Z" fill="#3A3A3A"/>
<path d="M14.1319 7.96533H13.875V8.22228H14.1319V7.96533Z" fill="#3A3A3A"/>
<path d="M14.3888 7.96533H14.1319V8.22228H14.3888V7.96533Z" fill="#3A3A3A"/>
<path d="M14.6458 7.96533H14.3889V8.22228H14.6458V7.96533Z" fill="#3A3A3A"/>
<path d="M14.9028 7.96533H14.6459V8.22228H14.9028V7.96533Z" fill="#3A3A3A"/>
<path d="M15.1597 7.96533H14.9028V8.22228H15.1597V7.96533Z" fill="#3A3A3A"/>
<path d="M15.4167 7.96533H15.1597V8.22228H15.4167V7.96533Z" fill="#3A3A3A"/>
<path d="M15.6736 7.96533H15.4167V8.22228H15.6736V7.96533Z" fill="#3A3A3A"/>
<path d="M15.9305 7.96533H15.6736V8.22228H15.9305V7.96533Z" fill="#3A3A3A"/>
<path d="M16.1875 7.96533H15.9305V8.22228H16.1875V7.96533Z" fill="#3A3A3A"/>
<path d="M16.4444 7.96533H16.1875V8.22228H16.4444V7.96533Z" fill="#3A3A3A"/>
<path d="M16.7013 7.96533H16.4444V8.22228H16.7013V7.96533Z" fill="#3A3A3A"/>
<path d="M16.9583 7.96533H16.7014V8.22228H16.9583V7.96533Z" fill="#3A3A3A"/>
<path d="M17.2153 7.96533H16.9584V8.22228H17.2153V7.96533Z" fill="#3A3A3A"/>
<path d="M17.4722 7.96533H17.2153V8.22228H17.4722V7.96533Z" fill="#3A3A3A"/>
<path d="M17.7292 7.96533H17.4722V8.22228H17.7292V7.96533Z" fill="#3A3A3A"/>
<path d="M17.9861 7.96533H17.7292V8.22228H17.9861V7.96533Z" fill="#3A3A3A"/>
<path d="M0.256944 8.22229H0V8.47923H0.256944V8.22229Z" fill="#3A3A3A"/>
<path d="M0.513902 8.22229H0.256958V8.47923H0.513902V8.22229Z" fill="#3A3A3A"/>
<path d="M0.770799 8.22229H0.513855V8.47923H0.770799V8.22229Z" fill="#3A3A3A"/>
<path d="M1.02776 8.22229H0.770813V8.47923H1.02776V8.22229Z" fill="#3A3A3A"/>
<path d="M1.28472 8.22229H1.02777V8.47923H1.28472V8.22229Z" fill="#3A3A3A"/>
<path d="M1.54167 8.22229H1.28473V8.47923H1.54167V8.22229Z" fill="#3A3A3A"/>
<path d="M1.79863 8.22229H1.54169V8.47923H1.79863V8.22229Z" fill="#3A3A3A"/>
<path d="M2.05559 8.22229H1.79865V8.47923H2.05559V8.22229Z" fill="#3A3A3A"/>
<path d="M2.31249 8.22229H2.05554V8.47923H2.31249V8.22229Z" fill="#3A3A3A"/>
<path d="M2.56944 8.22229H2.3125V8.47923H2.56944V8.22229Z" fill="#3A3A3A"/>
<path d="M2.8264 8.22229H2.56946V8.47923H2.8264V8.22229Z" fill="#3A3A3A"/>
<path d="M3.0833 8.22229H2.82635V8.47923H3.0833V8.22229Z" fill="#3A3A3A"/>
<path d="M3.34026 8.22229H3.08331V8.47923H3.34026V8.22229Z" fill="#3A3A3A"/>
<path d="M3.59722 8.22229H3.34027V8.47923H3.59722V8.22229Z" fill="#3A3A3A"/>
<path d="M3.85417 8.22229H3.59723V8.47923H3.85417V8.22229Z" fill="#3A3A3A"/>
<path d="M4.11113 8.22229H3.85419V8.47923H4.11113V8.22229Z" fill="#3A3A3A"/>
<path d="M4.36809 8.22229H4.11115V8.47923H4.36809V8.22229Z" fill="#3A3A3A"/>
<path d="M4.62499 8.22229H4.36804V8.47923H4.62499V8.22229Z" fill="#3A3A3A"/>
<path d="M4.88194 8.22229H4.625V8.47923H4.88194V8.22229Z" fill="#3A3A3A"/>
<path d="M5.1389 8.22229H4.88196V8.47923H5.1389V8.22229Z" fill="#3A3A3A"/>
<path d="M5.3958 8.22229H5.13885V8.47923H5.3958V8.22229Z" fill="#3A3A3A"/>
<path d="M5.65276 8.22229H5.39581V8.47923H5.65276V8.22229Z" fill="#3A3A3A"/>
<path d="M5.90978 8.22229H5.65283V8.47923H5.90978V8.22229Z" fill="#3A3A3A"/>
<path d="M6.16667 8.22229H5.90973V8.47923H6.16667V8.22229Z" fill="#3A3A3A"/>
<path d="M6.42363 8.22229H6.16669V8.47923H6.42363V8.22229Z" fill="#3A3A3A"/>
<path d="M6.68059 8.22229H6.42365V8.47923H6.68059V8.22229Z" fill="#3A3A3A"/>
<path d="M6.93749 8.22229H6.68054V8.47923H6.93749V8.22229Z" fill="#3A3A3A"/>
<path d="M7.19444 8.22229H6.9375V8.47923H7.19444V8.22229Z" fill="#3A3A3A"/>
<path d="M7.4514 8.22229H7.19446V8.47923H7.4514V8.22229Z" fill="#3A3A3A"/>
<path d="M7.7083 8.22229H7.45135V8.47923H7.7083V8.22229Z" fill="#3A3A3A"/>
<path d="M7.96526 8.22229H7.70831V8.47923H7.96526V8.22229Z" fill="#3A3A3A"/>
<path d="M8.22222 8.22229H7.96527V8.47923H8.22222V8.22229Z" fill="#3A3A3A"/>
<path d="M8.47917 8.22229H8.22223V8.47923H8.47917V8.22229Z" fill="#3A3A3A"/>
<path d="M8.73613 8.22229H8.47919V8.47923H8.73613V8.22229Z" fill="#3A3A3A"/>
<path d="M8.99303 8.22229H8.73608V8.47923H8.99303V8.22229Z" fill="#3A3A3A"/>
<path d="M9.24999 8.22229H8.99304V8.47923H9.24999V8.22229Z" fill="#3A3A3A"/>
<path d="M9.50694 8.22229H9.25V8.47923H9.50694V8.22229Z" fill="#3A3A3A"/>
<path d="M9.76384 8.22229H9.5069V8.47923H9.76384V8.22229Z" fill="#3A3A3A"/>
<path d="M10.0208 8.22229H9.76385V8.47923H10.0208V8.22229Z" fill="#3A3A3A"/>
<path d="M10.2778 8.22229H10.0208V8.47923H10.2778V8.22229Z" fill="#3A3A3A"/>
<path d="M10.5347 8.22229H10.2778V8.47923H10.5347V8.22229Z" fill="#3A3A3A"/>
<path d="M10.7917 8.22229H10.5347V8.47923H10.7917V8.22229Z" fill="#3A3A3A"/>
<path d="M11.0486 8.22229H10.7917V8.47923H11.0486V8.22229Z" fill="#3A3A3A"/>
<path d="M11.3055 8.22229H11.0486V8.47923H11.3055V8.22229Z" fill="#3A3A3A"/>
<path d="M11.5625 8.22229H11.3055V8.47923H11.5625V8.22229Z" fill="#3A3A3A"/>
<path d="M11.8194 8.22229H11.5625V8.47923H11.8194V8.22229Z" fill="#3A3A3A"/>
<path d="M12.0763 8.22229H11.8194V8.47923H12.0763V8.22229Z" fill="#3A3A3A"/>
<path d="M12.3333 8.22229H12.0764V8.47923H12.3333V8.22229Z" fill="#3A3A3A"/>
<path d="M12.5903 8.22229H12.3333V8.47923H12.5903V8.22229Z" fill="#3A3A3A"/>
<path d="M12.8472 8.22229H12.5903V8.47923H12.8472V8.22229Z" fill="#3A3A3A"/>
<path d="M13.1042 8.22229H12.8472V8.47923H13.1042V8.22229Z" fill="#3A3A3A"/>
<path d="M13.3611 8.22229H13.1042V8.47923H13.3611V8.22229Z" fill="#3A3A3A"/>
<path d="M13.618 8.22229H13.3611V8.47923H13.618V8.22229Z" fill="#3A3A3A"/>
<path d="M13.875 8.22229H13.618V8.47923H13.875V8.22229Z" fill="#3A3A3A"/>
<path d="M14.1319 8.22229H13.875V8.47923H14.1319V8.22229Z" fill="#3A3A3A"/>
<path d="M14.3888 8.22229H14.1319V8.47923H14.3888V8.22229Z" fill="#3A3A3A"/>
<path d="M14.6458 8.22229H14.3889V8.47923H14.6458V8.22229Z" fill="#3A3A3A"/>
<path d="M14.9028 8.22229H14.6459V8.47923H14.9028V8.22229Z" fill="#3A3A3A"/>
<path d="M15.1597 8.22229H14.9028V8.47923H15.1597V8.22229Z" fill="#3A3A3A"/>
<path d="M15.4167 8.22229H15.1597V8.47923H15.4167V8.22229Z" fill="#3A3A3A"/>
<path d="M15.6736 8.22229H15.4167V8.47923H15.6736V8.22229Z" fill="#3A3A3A"/>
<path d="M15.9305 8.22229H15.6736V8.47923H15.9305V8.22229Z" fill="#3A3A3A"/>
<path d="M16.1875 8.22229H15.9305V8.47923H16.1875V8.22229Z" fill="#3A3A3A"/>
<path d="M16.4444 8.22229H16.1875V8.47923H16.4444V8.22229Z" fill="#3A3A3A"/>
<path d="M16.7013 8.22229H16.4444V8.47923H16.7013V8.22229Z" fill="#3A3A3A"/>
<path d="M16.9583 8.22229H16.7014V8.47923H16.9583V8.22229Z" fill="#3A3A3A"/>
<path d="M17.2153 8.22229H16.9584V8.47923H17.2153V8.22229Z" fill="#3A3A3A"/>
<path d="M17.4722 8.22229H17.2153V8.47923H17.4722V8.22229Z" fill="#3A3A3A"/>
<path d="M17.7292 8.22229H17.4722V8.47923H17.7292V8.22229Z" fill="#3A3A3A"/>
<path d="M17.9861 8.22229H17.7292V8.47923H17.9861V8.22229Z" fill="#3A3A3A"/>
<path d="M0.256944 8.47913H0V8.73607H0.256944V8.47913Z" fill="#3A3A3A"/>
<path d="M0.513902 8.47913H0.256958V8.73607H0.513902V8.47913Z" fill="#3A3A3A"/>
<path d="M0.770799 8.47913H0.513855V8.73607H0.770799V8.47913Z" fill="#3A3A3A"/>
<path d="M1.02776 8.47913H0.770813V8.73607H1.02776V8.47913Z" fill="#3A3A3A"/>
<path d="M1.28472 8.47913H1.02777V8.73607H1.28472V8.47913Z" fill="#3A3A3A"/>
<path d="M1.54167 8.47913H1.28473V8.73607H1.54167V8.47913Z" fill="#3A3A3A"/>
<path d="M1.79863 8.47913H1.54169V8.73607H1.79863V8.47913Z" fill="#3A3A3A"/>
<path d="M2.05559 8.47913H1.79865V8.73607H2.05559V8.47913Z" fill="#3A3A3A"/>
<path d="M2.31249 8.47913H2.05554V8.73607H2.31249V8.47913Z" fill="#3A3A3A"/>
<path d="M2.56944 8.47913H2.3125V8.73607H2.56944V8.47913Z" fill="#3A3A3A"/>
<path d="M2.8264 8.47913H2.56946V8.73607H2.8264V8.47913Z" fill="#3A3A3A"/>
<path d="M3.0833 8.47913H2.82635V8.73607H3.0833V8.47913Z" fill="#3A3A3A"/>
<path d="M3.34026 8.47913H3.08331V8.73607H3.34026V8.47913Z" fill="#3A3A3A"/>
<path d="M3.59722 8.47913H3.34027V8.73607H3.59722V8.47913Z" fill="#3A3A3A"/>
<path d="M3.85417 8.47913H3.59723V8.73607H3.85417V8.47913Z" fill="#3A3A3A"/>
<path d="M4.11113 8.47913H3.85419V8.73607H4.11113V8.47913Z" fill="#3A3A3A"/>
<path d="M4.36809 8.47913H4.11115V8.73607H4.36809V8.47913Z" fill="#3A3A3A"/>
<path d="M4.62499 8.47913H4.36804V8.73607H4.62499V8.47913Z" fill="#3A3A3A"/>
<path d="M4.88194 8.47913H4.625V8.73607H4.88194V8.47913Z" fill="#3A3A3A"/>
<path d="M5.1389 8.47913H4.88196V8.73607H5.1389V8.47913Z" fill="#3A3A3A"/>
<path d="M5.3958 8.47913H5.13885V8.73607H5.3958V8.47913Z" fill="#3A3A3A"/>
<path d="M5.65276 8.47913H5.39581V8.73607H5.65276V8.47913Z" fill="#3A3A3A"/>
<path d="M5.90978 8.47913H5.65283V8.73607H5.90978V8.47913Z" fill="#3A3A3A"/>
<path d="M6.16667 8.47913H5.90973V8.73607H6.16667V8.47913Z" fill="#3A3A3A"/>
<path d="M6.42363 8.47913H6.16669V8.73607H6.42363V8.47913Z" fill="#3A3A3A"/>
<path d="M6.68059 8.47913H6.42365V8.73607H6.68059V8.47913Z" fill="#3A3A3A"/>
<path d="M6.93749 8.47913H6.68054V8.73607H6.93749V8.47913Z" fill="#3A3A3A"/>
<path d="M7.19444 8.47913H6.9375V8.73607H7.19444V8.47913Z" fill="#3A3A3A"/>
<path d="M7.4514 8.47913H7.19446V8.73607H7.4514V8.47913Z" fill="#3A3A3A"/>
<path d="M7.7083 8.47913H7.45135V8.73607H7.7083V8.47913Z" fill="#3A3A3A"/>
<path d="M7.96526 8.47913H7.70831V8.73607H7.96526V8.47913Z" fill="#3A3A3A"/>
<path d="M8.22222 8.47913H7.96527V8.73607H8.22222V8.47913Z" fill="#3A3A3A"/>
<path d="M8.47917 8.47913H8.22223V8.73607H8.47917V8.47913Z" fill="#3A3A3A"/>
<path d="M8.73613 8.47913H8.47919V8.73607H8.73613V8.47913Z" fill="#3A3A3A"/>
<path d="M8.99303 8.47913H8.73608V8.73607H8.99303V8.47913Z" fill="#3A3A3A"/>
<path d="M9.24999 8.47913H8.99304V8.73607H9.24999V8.47913Z" fill="#3A3A3A"/>
<path d="M9.50694 8.47913H9.25V8.73607H9.50694V8.47913Z" fill="#3A3A3A"/>
<path d="M9.76384 8.47913H9.5069V8.73607H9.76384V8.47913Z" fill="#3A3A3A"/>
<path d="M10.0208 8.47913H9.76385V8.73607H10.0208V8.47913Z" fill="#3A3A3A"/>
<path d="M10.2778 8.47913H10.0208V8.73607H10.2778V8.47913Z" fill="#3A3A3A"/>
<path d="M10.5347 8.47913H10.2778V8.73607H10.5347V8.47913Z" fill="#3A3A3A"/>
<path d="M10.7917 8.47913H10.5347V8.73607H10.7917V8.47913Z" fill="#3A3A3A"/>
<path d="M11.0486 8.47913H10.7917V8.73607H11.0486V8.47913Z" fill="#3A3A3A"/>
<path d="M11.3055 8.47913H11.0486V8.73607H11.3055V8.47913Z" fill="#3A3A3A"/>
<path d="M11.5625 8.47913H11.3055V8.73607H11.5625V8.47913Z" fill="#3A3A3A"/>
<path d="M11.8194 8.47913H11.5625V8.73607H11.8194V8.47913Z" fill="#3A3A3A"/>
<path d="M12.0763 8.47913H11.8194V8.73607H12.0763V8.47913Z" fill="#3A3A3A"/>
<path d="M12.3333 8.47913H12.0764V8.73607H12.3333V8.47913Z" fill="#3A3A3A"/>
<path d="M12.5903 8.47913H12.3333V8.73607H12.5903V8.47913Z" fill="#3A3A3A"/>
<path d="M12.8472 8.47913H12.5903V8.73607H12.8472V8.47913Z" fill="#3A3A3A"/>
<path d="M13.1042 8.47913H12.8472V8.73607H13.1042V8.47913Z" fill="#3A3A3A"/>
<path d="M13.3611 8.47913H13.1042V8.73607H13.3611V8.47913Z" fill="#3A3A3A"/>
<path d="M13.618 8.47913H13.3611V8.73607H13.618V8.47913Z" fill="#3A3A3A"/>
<path d="M13.875 8.47913H13.618V8.73607H13.875V8.47913Z" fill="#3A3A3A"/>
<path d="M14.1319 8.47913H13.875V8.73607H14.1319V8.47913Z" fill="#3A3A3A"/>
<path d="M14.3888 8.47913H14.1319V8.73607H14.3888V8.47913Z" fill="#3A3A3A"/>
<path d="M14.6458 8.47913H14.3889V8.73607H14.6458V8.47913Z" fill="#3A3A3A"/>
<path d="M14.9028 8.47913H14.6459V8.73607H14.9028V8.47913Z" fill="#3A3A3A"/>
<path d="M15.1597 8.47913H14.9028V8.73607H15.1597V8.47913Z" fill="#3A3A3A"/>
<path d="M15.4167 8.47913H15.1597V8.73607H15.4167V8.47913Z" fill="#3A3A3A"/>
<path d="M15.6736 8.47913H15.4167V8.73607H15.6736V8.47913Z" fill="#3A3A3A"/>
<path d="M15.9305 8.47913H15.6736V8.73607H15.9305V8.47913Z" fill="#3A3A3A"/>
<path d="M16.1875 8.47913H15.9305V8.73607H16.1875V8.47913Z" fill="#3A3A3A"/>
<path d="M16.4444 8.47913H16.1875V8.73607H16.4444V8.47913Z" fill="#3A3A3A"/>
<path d="M16.7013 8.47913H16.4444V8.73607H16.7013V8.47913Z" fill="#3A3A3A"/>
<path d="M16.9583 8.47913H16.7014V8.73607H16.9583V8.47913Z" fill="#3A3A3A"/>
<path d="M17.2153 8.47913H16.9584V8.73607H17.2153V8.47913Z" fill="#3A3A3A"/>
<path d="M17.4722 8.47913H17.2153V8.73607H17.4722V8.47913Z" fill="#3A3A3A"/>
<path d="M17.7292 8.47913H17.4722V8.73607H17.7292V8.47913Z" fill="#3A3A3A"/>
<path d="M17.9861 8.47913H17.7292V8.73607H17.9861V8.47913Z" fill="#3A3A3A"/>
<path d="M0.256944 8.73608H0V8.99303H0.256944V8.73608Z" fill="#3A3A3A"/>
<path d="M0.513902 8.73608H0.256958V8.99303H0.513902V8.73608Z" fill="#3A3A3A"/>
<path d="M0.770799 8.73608H0.513855V8.99303H0.770799V8.73608Z" fill="#3A3A3A"/>
<path d="M1.02776 8.73608H0.770813V8.99303H1.02776V8.73608Z" fill="#3A3A3A"/>
<path d="M1.28472 8.73608H1.02777V8.99303H1.28472V8.73608Z" fill="#3A3A3A"/>
<path d="M1.54167 8.73608H1.28473V8.99303H1.54167V8.73608Z" fill="#3A3A3A"/>
<path d="M1.79863 8.73608H1.54169V8.99303H1.79863V8.73608Z" fill="#3A3A3A"/>
<path d="M2.05559 8.73608H1.79865V8.99303H2.05559V8.73608Z" fill="#3A3A3A"/>
<path d="M2.31249 8.73608H2.05554V8.99303H2.31249V8.73608Z" fill="#3A3A3A"/>
<path d="M2.56944 8.73608H2.3125V8.99303H2.56944V8.73608Z" fill="#3A3A3A"/>
<path d="M2.8264 8.73608H2.56946V8.99303H2.8264V8.73608Z" fill="#3A3A3A"/>
<path d="M3.0833 8.73608H2.82635V8.99303H3.0833V8.73608Z" fill="#3A3A3A"/>
<path d="M3.34026 8.73608H3.08331V8.99303H3.34026V8.73608Z" fill="#3A3A3A"/>
<path d="M3.59722 8.73608H3.34027V8.99303H3.59722V8.73608Z" fill="#3A3A3A"/>
<path d="M3.85417 8.73608H3.59723V8.99303H3.85417V8.73608Z" fill="#3A3A3A"/>
<path d="M4.11113 8.73608H3.85419V8.99303H4.11113V8.73608Z" fill="#3A3A3A"/>
<path d="M4.36809 8.73608H4.11115V8.99303H4.36809V8.73608Z" fill="#3A3A3A"/>
<path d="M4.62499 8.73608H4.36804V8.99303H4.62499V8.73608Z" fill="#3A3A3A"/>
<path d="M4.88194 8.73608H4.625V8.99303H4.88194V8.73608Z" fill="#3A3A3A"/>
<path d="M5.1389 8.73608H4.88196V8.99303H5.1389V8.73608Z" fill="#3A3A3A"/>
<path d="M5.3958 8.73608H5.13885V8.99303H5.3958V8.73608Z" fill="#3A3A3A"/>
<path d="M5.65276 8.73608H5.39581V8.99303H5.65276V8.73608Z" fill="#3A3A3A"/>
<path d="M5.90978 8.73608H5.65283V8.99303H5.90978V8.73608Z" fill="#3A3A3A"/>
<path d="M6.16667 8.73608H5.90973V8.99303H6.16667V8.73608Z" fill="#3A3A3A"/>
<path d="M6.42363 8.73608H6.16669V8.99303H6.42363V8.73608Z" fill="#3A3A3A"/>
<path d="M6.68059 8.73608H6.42365V8.99303H6.68059V8.73608Z" fill="#3A3A3A"/>
<path d="M6.93749 8.73608H6.68054V8.99303H6.93749V8.73608Z" fill="#3A3A3A"/>
<path d="M7.19444 8.73608H6.9375V8.99303H7.19444V8.73608Z" fill="#3A3A3A"/>
<path d="M7.4514 8.73608H7.19446V8.99303H7.4514V8.73608Z" fill="#3A3A3A"/>
<path d="M7.7083 8.73608H7.45135V8.99303H7.7083V8.73608Z" fill="#3A3A3A"/>
<path d="M7.96526 8.73608H7.70831V8.99303H7.96526V8.73608Z" fill="#3A3A3A"/>
<path d="M8.22222 8.73608H7.96527V8.99303H8.22222V8.73608Z" fill="#3A3A3A"/>
<path d="M8.47917 8.73608H8.22223V8.99303H8.47917V8.73608Z" fill="#3A3A3A"/>
<path d="M8.73613 8.73608H8.47919V8.99303H8.73613V8.73608Z" fill="#3A3A3A"/>
<path d="M8.99303 8.73608H8.73608V8.99303H8.99303V8.73608Z" fill="#3A3A3A"/>
<path d="M9.24999 8.73608H8.99304V8.99303H9.24999V8.73608Z" fill="#3A3A3A"/>
<path d="M9.50694 8.73608H9.25V8.99303H9.50694V8.73608Z" fill="#3A3A3A"/>
<path d="M9.76384 8.73608H9.5069V8.99303H9.76384V8.73608Z" fill="#3A3A3A"/>
<path d="M10.0208 8.73608H9.76385V8.99303H10.0208V8.73608Z" fill="#3A3A3A"/>
<path d="M10.2778 8.73608H10.0208V8.99303H10.2778V8.73608Z" fill="#3A3A3A"/>
<path d="M10.5347 8.73608H10.2778V8.99303H10.5347V8.73608Z" fill="#3A3A3A"/>
<path d="M10.7917 8.73608H10.5347V8.99303H10.7917V8.73608Z" fill="#3A3A3A"/>
<path d="M11.0486 8.73608H10.7917V8.99303H11.0486V8.73608Z" fill="#3A3A3A"/>
<path d="M11.3055 8.73608H11.0486V8.99303H11.3055V8.73608Z" fill="#3A3A3A"/>
<path d="M11.5625 8.73608H11.3055V8.99303H11.5625V8.73608Z" fill="#3A3A3A"/>
<path d="M11.8194 8.73608H11.5625V8.99303H11.8194V8.73608Z" fill="#3A3A3A"/>
<path d="M12.0763 8.73608H11.8194V8.99303H12.0763V8.73608Z" fill="#3A3A3A"/>
<path d="M12.3333 8.73608H12.0764V8.99303H12.3333V8.73608Z" fill="#3A3A3A"/>
<path d="M12.5903 8.73608H12.3333V8.99303H12.5903V8.73608Z" fill="#3A3A3A"/>
<path d="M12.8472 8.73608H12.5903V8.99303H12.8472V8.73608Z" fill="#3A3A3A"/>
<path d="M13.1042 8.73608H12.8472V8.99303H13.1042V8.73608Z" fill="#3A3A3A"/>
<path d="M13.3611 8.73608H13.1042V8.99303H13.3611V8.73608Z" fill="#3A3A3A"/>
<path d="M13.618 8.73608H13.3611V8.99303H13.618V8.73608Z" fill="#3A3A3A"/>
<path d="M13.875 8.73608H13.618V8.99303H13.875V8.73608Z" fill="#3A3A3A"/>
<path d="M14.1319 8.73608H13.875V8.99303H14.1319V8.73608Z" fill="#3A3A3A"/>
<path d="M14.3888 8.73608H14.1319V8.99303H14.3888V8.73608Z" fill="#3A3A3A"/>
<path d="M14.6458 8.73608H14.3889V8.99303H14.6458V8.73608Z" fill="#3A3A3A"/>
<path d="M14.9028 8.73608H14.6459V8.99303H14.9028V8.73608Z" fill="#3A3A3A"/>
<path d="M15.1597 8.73608H14.9028V8.99303H15.1597V8.73608Z" fill="#3A3A3A"/>
<path d="M15.4167 8.73608H15.1597V8.99303H15.4167V8.73608Z" fill="#3A3A3A"/>
<path d="M15.6736 8.73608H15.4167V8.99303H15.6736V8.73608Z" fill="#3A3A3A"/>
<path d="M15.9305 8.73608H15.6736V8.99303H15.9305V8.73608Z" fill="#3A3A3A"/>
<path d="M16.1875 8.73608H15.9305V8.99303H16.1875V8.73608Z" fill="#3A3A3A"/>
<path d="M16.4444 8.73608H16.1875V8.99303H16.4444V8.73608Z" fill="#3A3A3A"/>
<path d="M16.7013 8.73608H16.4444V8.99303H16.7013V8.73608Z" fill="#3A3A3A"/>
<path d="M16.9583 8.73608H16.7014V8.99303H16.9583V8.73608Z" fill="#3A3A3A"/>
<path d="M17.2153 8.73608H16.9584V8.99303H17.2153V8.73608Z" fill="#3A3A3A"/>
<path d="M17.4722 8.73608H17.2153V8.99303H17.4722V8.73608Z" fill="#3A3A3A"/>
<path d="M17.7292 8.73608H17.4722V8.99303H17.7292V8.73608Z" fill="#3A3A3A"/>
<path d="M17.9861 8.73608H17.7292V8.99303H17.9861V8.73608Z" fill="#3A3A3A"/>
<path d="M0.256944 8.99304H0V9.24999H0.256944V8.99304Z" fill="#3A3A3A"/>
<path d="M0.513902 8.99304H0.256958V9.24999H0.513902V8.99304Z" fill="#3A3A3A"/>
<path d="M0.770799 8.99304H0.513855V9.24999H0.770799V8.99304Z" fill="#3A3A3A"/>
<path d="M1.02776 8.99304H0.770813V9.24999H1.02776V8.99304Z" fill="#3A3A3A"/>
<path d="M1.28472 8.99304H1.02777V9.24999H1.28472V8.99304Z" fill="#3A3A3A"/>
<path d="M1.54167 8.99304H1.28473V9.24999H1.54167V8.99304Z" fill="#3A3A3A"/>
<path d="M1.79863 8.99304H1.54169V9.24999H1.79863V8.99304Z" fill="#3A3A3A"/>
<path d="M2.05559 8.99304H1.79865V9.24999H2.05559V8.99304Z" fill="#3A3A3A"/>
<path d="M2.31249 8.99304H2.05554V9.24999H2.31249V8.99304Z" fill="#3A3A3A"/>
<path d="M2.56944 8.99304H2.3125V9.24999H2.56944V8.99304Z" fill="#3A3A3A"/>
<path d="M2.8264 8.99304H2.56946V9.24999H2.8264V8.99304Z" fill="#3A3A3A"/>
<path d="M3.0833 8.99304H2.82635V9.24999H3.0833V8.99304Z" fill="#3A3A3A"/>
<path d="M3.34026 8.99304H3.08331V9.24999H3.34026V8.99304Z" fill="#3A3A3A"/>
<path d="M3.59722 8.99304H3.34027V9.24999H3.59722V8.99304Z" fill="#3A3A3A"/>
<path d="M3.85417 8.99304H3.59723V9.24999H3.85417V8.99304Z" fill="#3A3A3A"/>
<path d="M4.11113 8.99304H3.85419V9.24999H4.11113V8.99304Z" fill="#3A3A3A"/>
<path d="M4.36809 8.99304H4.11115V9.24999H4.36809V8.99304Z" fill="#3A3A3A"/>
<path d="M4.62499 8.99304H4.36804V9.24999H4.62499V8.99304Z" fill="#3A3A3A"/>
<path d="M4.88194 8.99304H4.625V9.24999H4.88194V8.99304Z" fill="#3A3A3A"/>
<path d="M5.1389 8.99304H4.88196V9.24999H5.1389V8.99304Z" fill="#3A3A3A"/>
<path d="M5.3958 8.99304H5.13885V9.24999H5.3958V8.99304Z" fill="#3A3A3A"/>
<path d="M5.65276 8.99304H5.39581V9.24999H5.65276V8.99304Z" fill="#3A3A3A"/>
<path d="M5.90978 8.99304H5.65283V9.24999H5.90978V8.99304Z" fill="#3A3A3A"/>
<path d="M6.16667 8.99304H5.90973V9.24999H6.16667V8.99304Z" fill="#3A3A3A"/>
<path d="M6.42363 8.99304H6.16669V9.24999H6.42363V8.99304Z" fill="#3A3A3A"/>
<path d="M6.68059 8.99304H6.42365V9.24999H6.68059V8.99304Z" fill="#3A3A3A"/>
<path d="M6.93749 8.99304H6.68054V9.24999H6.93749V8.99304Z" fill="#3A3A3A"/>
<path d="M7.19444 8.99304H6.9375V9.24999H7.19444V8.99304Z" fill="#3A3A3A"/>
<path d="M7.4514 8.99304H7.19446V9.24999H7.4514V8.99304Z" fill="#3A3A3A"/>
<path d="M7.7083 8.99304H7.45135V9.24999H7.7083V8.99304Z" fill="#3A3A3A"/>
<path d="M7.96526 8.99304H7.70831V9.24999H7.96526V8.99304Z" fill="#3A3A3A"/>
<path d="M8.22222 8.99304H7.96527V9.24999H8.22222V8.99304Z" fill="#3A3A3A"/>
<path d="M8.47917 8.99304H8.22223V9.24999H8.47917V8.99304Z" fill="#3A3A3A"/>
<path d="M8.73613 8.99304H8.47919V9.24999H8.73613V8.99304Z" fill="#3A3A3A"/>
<path d="M8.99303 8.99304H8.73608V9.24999H8.99303V8.99304Z" fill="#3A3A3A"/>
<path d="M9.24999 8.99304H8.99304V9.24999H9.24999V8.99304Z" fill="#3A3A3A"/>
<path d="M9.50694 8.99304H9.25V9.24999H9.50694V8.99304Z" fill="#3A3A3A"/>
<path d="M9.76384 8.99304H9.5069V9.24999H9.76384V8.99304Z" fill="#3A3A3A"/>
<path d="M10.0208 8.99304H9.76385V9.24999H10.0208V8.99304Z" fill="#3A3A3A"/>
<path d="M10.2778 8.99304H10.0208V9.24999H10.2778V8.99304Z" fill="#3A3A3A"/>
<path d="M10.5347 8.99304H10.2778V9.24999H10.5347V8.99304Z" fill="#3A3A3A"/>
<path d="M10.7917 8.99304H10.5347V9.24999H10.7917V8.99304Z" fill="#3A3A3A"/>
<path d="M11.0486 8.99304H10.7917V9.24999H11.0486V8.99304Z" fill="#3A3A3A"/>
<path d="M11.3055 8.99304H11.0486V9.24999H11.3055V8.99304Z" fill="#3A3A3A"/>
<path d="M11.5625 8.99304H11.3055V9.24999H11.5625V8.99304Z" fill="#3A3A3A"/>
<path d="M11.8194 8.99304H11.5625V9.24999H11.8194V8.99304Z" fill="#3A3A3A"/>
<path d="M12.0763 8.99304H11.8194V9.24999H12.0763V8.99304Z" fill="#3A3A3A"/>
<path d="M12.3333 8.99304H12.0764V9.24999H12.3333V8.99304Z" fill="#3A3A3A"/>
<path d="M12.5903 8.99304H12.3333V9.24999H12.5903V8.99304Z" fill="#3A3A3A"/>
<path d="M12.8472 8.99304H12.5903V9.24999H12.8472V8.99304Z" fill="#3A3A3A"/>
<path d="M13.1042 8.99304H12.8472V9.24999H13.1042V8.99304Z" fill="#3A3A3A"/>
<path d="M13.3611 8.99304H13.1042V9.24999H13.3611V8.99304Z" fill="#3A3A3A"/>
<path d="M13.618 8.99304H13.3611V9.24999H13.618V8.99304Z" fill="#3A3A3A"/>
<path d="M13.875 8.99304H13.618V9.24999H13.875V8.99304Z" fill="#3A3A3A"/>
<path d="M14.1319 8.99304H13.875V9.24999H14.1319V8.99304Z" fill="#3A3A3A"/>
<path d="M14.3888 8.99304H14.1319V9.24999H14.3888V8.99304Z" fill="#3A3A3A"/>
<path d="M14.6458 8.99304H14.3889V9.24999H14.6458V8.99304Z" fill="#3A3A3A"/>
<path d="M14.9028 8.99304H14.6459V9.24999H14.9028V8.99304Z" fill="#3A3A3A"/>
<path d="M15.1597 8.99304H14.9028V9.24999H15.1597V8.99304Z" fill="#3A3A3A"/>
<path d="M15.4167 8.99304H15.1597V9.24999H15.4167V8.99304Z" fill="#3A3A3A"/>
<path d="M15.6736 8.99304H15.4167V9.24999H15.6736V8.99304Z" fill="#3A3A3A"/>
<path d="M15.9305 8.99304H15.6736V9.24999H15.9305V8.99304Z" fill="#3A3A3A"/>
<path d="M16.1875 8.99304H15.9305V9.24999H16.1875V8.99304Z" fill="#3A3A3A"/>
<path d="M16.4444 8.99304H16.1875V9.24999H16.4444V8.99304Z" fill="#3A3A3A"/>
<path d="M16.7013 8.99304H16.4444V9.24999H16.7013V8.99304Z" fill="#3A3A3A"/>
<path d="M16.9583 8.99304H16.7014V9.24999H16.9583V8.99304Z" fill="#3A3A3A"/>
<path d="M17.2153 8.99304H16.9584V9.24999H17.2153V8.99304Z" fill="#3A3A3A"/>
<path d="M17.4722 8.99304H17.2153V9.24999H17.4722V8.99304Z" fill="#3A3A3A"/>
<path d="M17.7292 8.99304H17.4722V9.24999H17.7292V8.99304Z" fill="#3A3A3A"/>
<path d="M17.9861 8.99304H17.7292V9.24999H17.9861V8.99304Z" fill="#3A3A3A"/>
<path d="M0.256944 9.25H0V9.50694H0.256944V9.25Z" fill="#3A3A3A"/>
<path d="M0.513902 9.25H0.256958V9.50694H0.513902V9.25Z" fill="#3A3A3A"/>
<path d="M0.770799 9.25H0.513855V9.50694H0.770799V9.25Z" fill="#3A3A3A"/>
<path d="M1.02776 9.25H0.770813V9.50694H1.02776V9.25Z" fill="#3A3A3A"/>
<path d="M1.28472 9.25H1.02777V9.50694H1.28472V9.25Z" fill="#3A3A3A"/>
<path d="M1.54167 9.25H1.28473V9.50694H1.54167V9.25Z" fill="#3A3A3A"/>
<path d="M1.79863 9.25H1.54169V9.50694H1.79863V9.25Z" fill="#3A3A3A"/>
<path d="M2.05559 9.25H1.79865V9.50694H2.05559V9.25Z" fill="#3A3A3A"/>
<path d="M2.31249 9.25H2.05554V9.50694H2.31249V9.25Z" fill="#3A3A3A"/>
<path d="M2.56944 9.25H2.3125V9.50694H2.56944V9.25Z" fill="#3A3A3A"/>
<path d="M2.8264 9.25H2.56946V9.50694H2.8264V9.25Z" fill="#3A3A3A"/>
<path d="M3.0833 9.25H2.82635V9.50694H3.0833V9.25Z" fill="#3A3A3A"/>
<path d="M3.34026 9.25H3.08331V9.50694H3.34026V9.25Z" fill="#3A3A3A"/>
<path d="M3.59722 9.25H3.34027V9.50694H3.59722V9.25Z" fill="#3A3A3A"/>
<path d="M3.85417 9.25H3.59723V9.50694H3.85417V9.25Z" fill="#3A3A3A"/>
<path d="M4.11113 9.25H3.85419V9.50694H4.11113V9.25Z" fill="#3A3A3A"/>
<path d="M4.36809 9.25H4.11115V9.50694H4.36809V9.25Z" fill="#3A3A3A"/>
<path d="M4.62499 9.25H4.36804V9.50694H4.62499V9.25Z" fill="#3A3A3A"/>
<path d="M4.88194 9.25H4.625V9.50694H4.88194V9.25Z" fill="#3A3A3A"/>
<path d="M5.1389 9.25H4.88196V9.50694H5.1389V9.25Z" fill="#3A3A3A"/>
<path d="M5.3958 9.25H5.13885V9.50694H5.3958V9.25Z" fill="#3A3A3A"/>
<path d="M5.65276 9.25H5.39581V9.50694H5.65276V9.25Z" fill="#3A3A3A"/>
<path d="M5.90978 9.25H5.65283V9.50694H5.90978V9.25Z" fill="#3A3A3A"/>
<path d="M6.16667 9.25H5.90973V9.50694H6.16667V9.25Z" fill="#3A3A3A"/>
<path d="M6.42363 9.25H6.16669V9.50694H6.42363V9.25Z" fill="#3A3A3A"/>
<path d="M6.68059 9.25H6.42365V9.50694H6.68059V9.25Z" fill="#3A3A3A"/>
<path d="M6.93749 9.25H6.68054V9.50694H6.93749V9.25Z" fill="#3A3A3A"/>
<path d="M7.19444 9.25H6.9375V9.50694H7.19444V9.25Z" fill="#3A3A3A"/>
<path d="M7.4514 9.25H7.19446V9.50694H7.4514V9.25Z" fill="#3A3A3A"/>
<path d="M7.7083 9.25H7.45135V9.50694H7.7083V9.25Z" fill="#3A3A3A"/>
<path d="M7.96526 9.25H7.70831V9.50694H7.96526V9.25Z" fill="#3A3A3A"/>
<path d="M8.22222 9.25H7.96527V9.50694H8.22222V9.25Z" fill="#3A3A3A"/>
<path d="M8.47917 9.25H8.22223V9.50694H8.47917V9.25Z" fill="#3A3A3A"/>
<path d="M8.73613 9.25H8.47919V9.50694H8.73613V9.25Z" fill="#3A3A3A"/>
<path d="M8.99303 9.25H8.73608V9.50694H8.99303V9.25Z" fill="#3A3A3A"/>
<path d="M9.24999 9.25H8.99304V9.50694H9.24999V9.25Z" fill="#3A3A3A"/>
<path d="M9.50694 9.25H9.25V9.50694H9.50694V9.25Z" fill="#3A3A3A"/>
<path d="M9.76384 9.25H9.5069V9.50694H9.76384V9.25Z" fill="#3A3A3A"/>
<path d="M10.0208 9.25H9.76385V9.50694H10.0208V9.25Z" fill="#3A3A3A"/>
<path d="M10.2778 9.25H10.0208V9.50694H10.2778V9.25Z" fill="#3A3A3A"/>
<path d="M10.5347 9.25H10.2778V9.50694H10.5347V9.25Z" fill="#3A3A3A"/>
<path d="M10.7917 9.25H10.5347V9.50694H10.7917V9.25Z" fill="#3A3A3A"/>
<path d="M11.0486 9.25H10.7917V9.50694H11.0486V9.25Z" fill="#3A3A3A"/>
<path d="M11.3055 9.25H11.0486V9.50694H11.3055V9.25Z" fill="#3A3A3A"/>
<path d="M11.5625 9.25H11.3055V9.50694H11.5625V9.25Z" fill="#3A3A3A"/>
<path d="M11.8194 9.25H11.5625V9.50694H11.8194V9.25Z" fill="#3A3A3A"/>
<path d="M12.0763 9.25H11.8194V9.50694H12.0763V9.25Z" fill="#3A3A3A"/>
<path d="M12.3333 9.25H12.0764V9.50694H12.3333V9.25Z" fill="#3A3A3A"/>
<path d="M12.5903 9.25H12.3333V9.50694H12.5903V9.25Z" fill="#3A3A3A"/>
<path d="M12.8472 9.25H12.5903V9.50694H12.8472V9.25Z" fill="#3A3A3A"/>
<path d="M13.1042 9.25H12.8472V9.50694H13.1042V9.25Z" fill="#3A3A3A"/>
<path d="M13.3611 9.25H13.1042V9.50694H13.3611V9.25Z" fill="#3A3A3A"/>
<path d="M13.618 9.25H13.3611V9.50694H13.618V9.25Z" fill="#3A3A3A"/>
<path d="M13.875 9.25H13.618V9.50694H13.875V9.25Z" fill="#3A3A3A"/>
<path d="M14.1319 9.25H13.875V9.50694H14.1319V9.25Z" fill="#3A3A3A"/>
<path d="M14.3888 9.25H14.1319V9.50694H14.3888V9.25Z" fill="#3A3A3A"/>
<path d="M14.6458 9.25H14.3889V9.50694H14.6458V9.25Z" fill="#3A3A3A"/>
<path d="M14.9028 9.25H14.6459V9.50694H14.9028V9.25Z" fill="#3A3A3A"/>
<path d="M15.1597 9.25H14.9028V9.50694H15.1597V9.25Z" fill="#3A3A3A"/>
<path d="M15.4167 9.25H15.1597V9.50694H15.4167V9.25Z" fill="#3A3A3A"/>
<path d="M15.6736 9.25H15.4167V9.50694H15.6736V9.25Z" fill="#3A3A3A"/>
<path d="M15.9305 9.25H15.6736V9.50694H15.9305V9.25Z" fill="#3A3A3A"/>
<path d="M16.1875 9.25H15.9305V9.50694H16.1875V9.25Z" fill="#3A3A3A"/>
<path d="M16.4444 9.25H16.1875V9.50694H16.4444V9.25Z" fill="#3A3A3A"/>
<path d="M16.7013 9.25H16.4444V9.50694H16.7013V9.25Z" fill="#3A3A3A"/>
<path d="M16.9583 9.25H16.7014V9.50694H16.9583V9.25Z" fill="#3A3A3A"/>
<path d="M17.2153 9.25H16.9584V9.50694H17.2153V9.25Z" fill="#3A3A3A"/>
<path d="M17.4722 9.25H17.2153V9.50694H17.4722V9.25Z" fill="#3A3A3A"/>
<path d="M17.7292 9.25H17.4722V9.50694H17.7292V9.25Z" fill="#3A3A3A"/>
<path d="M17.9861 9.25H17.7292V9.50694H17.9861V9.25Z" fill="#3A3A3A"/>
<path d="M0.256944 9.50696H0V9.7639H0.256944V9.50696Z" fill="#3A3A3A"/>
<path d="M0.513902 9.50696H0.256958V9.7639H0.513902V9.50696Z" fill="#3A3A3A"/>
<path d="M0.770799 9.50696H0.513855V9.7639H0.770799V9.50696Z" fill="#3A3A3A"/>
<path d="M1.02776 9.50696H0.770813V9.7639H1.02776V9.50696Z" fill="#3A3A3A"/>
<path d="M1.28472 9.50696H1.02777V9.7639H1.28472V9.50696Z" fill="#3A3A3A"/>
<path d="M1.54167 9.50696H1.28473V9.7639H1.54167V9.50696Z" fill="#3A3A3A"/>
<path d="M1.79863 9.50696H1.54169V9.7639H1.79863V9.50696Z" fill="#3A3A3A"/>
<path d="M2.05559 9.50696H1.79865V9.7639H2.05559V9.50696Z" fill="#3A3A3A"/>
<path d="M2.31249 9.50696H2.05554V9.7639H2.31249V9.50696Z" fill="#3A3A3A"/>
<path d="M2.56944 9.50696H2.3125V9.7639H2.56944V9.50696Z" fill="#3A3A3A"/>
<path d="M2.8264 9.50696H2.56946V9.7639H2.8264V9.50696Z" fill="#3A3A3A"/>
<path d="M3.0833 9.50696H2.82635V9.7639H3.0833V9.50696Z" fill="#3A3A3A"/>
<path d="M3.34026 9.50696H3.08331V9.7639H3.34026V9.50696Z" fill="#3A3A3A"/>
<path d="M3.59722 9.50696H3.34027V9.7639H3.59722V9.50696Z" fill="#3A3A3A"/>
<path d="M3.85417 9.50696H3.59723V9.7639H3.85417V9.50696Z" fill="#3A3A3A"/>
<path d="M4.11113 9.50696H3.85419V9.7639H4.11113V9.50696Z" fill="#3A3A3A"/>
<path d="M4.36809 9.50696H4.11115V9.7639H4.36809V9.50696Z" fill="#3A3A3A"/>
<path d="M4.62499 9.50696H4.36804V9.7639H4.62499V9.50696Z" fill="#3A3A3A"/>
<path d="M4.88194 9.50696H4.625V9.7639H4.88194V9.50696Z" fill="#3A3A3A"/>
<path d="M5.1389 9.50696H4.88196V9.7639H5.1389V9.50696Z" fill="#3A3A3A"/>
<path d="M5.3958 9.50696H5.13885V9.7639H5.3958V9.50696Z" fill="#3A3A3A"/>
<path d="M5.65276 9.50696H5.39581V9.7639H5.65276V9.50696Z" fill="#3A3A3A"/>
<path d="M5.90978 9.50696H5.65283V9.7639H5.90978V9.50696Z" fill="#3A3A3A"/>
<path d="M6.16667 9.50696H5.90973V9.7639H6.16667V9.50696Z" fill="#3A3A3A"/>
<path d="M6.42363 9.50696H6.16669V9.7639H6.42363V9.50696Z" fill="#3A3A3A"/>
<path d="M6.68059 9.50696H6.42365V9.7639H6.68059V9.50696Z" fill="#3A3A3A"/>
<path d="M6.93749 9.50696H6.68054V9.7639H6.93749V9.50696Z" fill="#3A3A3A"/>
<path d="M7.19444 9.50696H6.9375V9.7639H7.19444V9.50696Z" fill="#3A3A3A"/>
<path d="M7.4514 9.50696H7.19446V9.7639H7.4514V9.50696Z" fill="#3A3A3A"/>
<path d="M7.7083 9.50696H7.45135V9.7639H7.7083V9.50696Z" fill="#3A3A3A"/>
<path d="M7.96526 9.50696H7.70831V9.7639H7.96526V9.50696Z" fill="#3A3A3A"/>
<path d="M8.22222 9.50696H7.96527V9.7639H8.22222V9.50696Z" fill="#3A3A3A"/>
<path d="M8.47917 9.50696H8.22223V9.7639H8.47917V9.50696Z" fill="#3A3A3A"/>
<path d="M8.73613 9.50696H8.47919V9.7639H8.73613V9.50696Z" fill="#3A3A3A"/>
<path d="M8.99303 9.50696H8.73608V9.7639H8.99303V9.50696Z" fill="#3A3A3A"/>
<path d="M9.24999 9.50696H8.99304V9.7639H9.24999V9.50696Z" fill="#3A3A3A"/>
<path d="M9.50694 9.50696H9.25V9.7639H9.50694V9.50696Z" fill="#3A3A3A"/>
<path d="M9.76384 9.50696H9.5069V9.7639H9.76384V9.50696Z" fill="#3A3A3A"/>
<path d="M10.0208 9.50696H9.76385V9.7639H10.0208V9.50696Z" fill="#3A3A3A"/>
<path d="M10.2778 9.50696H10.0208V9.7639H10.2778V9.50696Z" fill="#3A3A3A"/>
<path d="M10.5347 9.50696H10.2778V9.7639H10.5347V9.50696Z" fill="#3A3A3A"/>
<path d="M10.7917 9.50696H10.5347V9.7639H10.7917V9.50696Z" fill="#3A3A3A"/>
<path d="M11.0486 9.50696H10.7917V9.7639H11.0486V9.50696Z" fill="#3A3A3A"/>
<path d="M11.3055 9.50696H11.0486V9.7639H11.3055V9.50696Z" fill="#3A3A3A"/>
<path d="M11.5625 9.50696H11.3055V9.7639H11.5625V9.50696Z" fill="#3A3A3A"/>
<path d="M11.8194 9.50696H11.5625V9.7639H11.8194V9.50696Z" fill="#3A3A3A"/>
<path d="M12.0763 9.50696H11.8194V9.7639H12.0763V9.50696Z" fill="#3A3A3A"/>
<path d="M12.3333 9.50696H12.0764V9.7639H12.3333V9.50696Z" fill="#3A3A3A"/>
<path d="M12.5903 9.50696H12.3333V9.7639H12.5903V9.50696Z" fill="#3A3A3A"/>
<path d="M12.8472 9.50696H12.5903V9.7639H12.8472V9.50696Z" fill="#3A3A3A"/>
<path d="M13.1042 9.50696H12.8472V9.7639H13.1042V9.50696Z" fill="#3A3A3A"/>
<path d="M13.3611 9.50696H13.1042V9.7639H13.3611V9.50696Z" fill="#3A3A3A"/>
<path d="M13.618 9.50696H13.3611V9.7639H13.618V9.50696Z" fill="#3A3A3A"/>
<path d="M13.875 9.50696H13.618V9.7639H13.875V9.50696Z" fill="#3A3A3A"/>
<path d="M14.1319 9.50696H13.875V9.7639H14.1319V9.50696Z" fill="#3A3A3A"/>
<path d="M14.3888 9.50696H14.1319V9.7639H14.3888V9.50696Z" fill="#3A3A3A"/>
<path d="M14.6458 9.50696H14.3889V9.7639H14.6458V9.50696Z" fill="#3A3A3A"/>
<path d="M14.9028 9.50696H14.6459V9.7639H14.9028V9.50696Z" fill="#3A3A3A"/>
<path d="M15.1597 9.50696H14.9028V9.7639H15.1597V9.50696Z" fill="#3A3A3A"/>
<path d="M15.4167 9.50696H15.1597V9.7639H15.4167V9.50696Z" fill="#3A3A3A"/>
<path d="M15.6736 9.50696H15.4167V9.7639H15.6736V9.50696Z" fill="#3A3A3A"/>
<path d="M15.9305 9.50696H15.6736V9.7639H15.9305V9.50696Z" fill="#3A3A3A"/>
<path d="M16.1875 9.50696H15.9305V9.7639H16.1875V9.50696Z" fill="#3A3A3A"/>
<path d="M16.4444 9.50696H16.1875V9.7639H16.4444V9.50696Z" fill="#3A3A3A"/>
<path d="M16.7013 9.50696H16.4444V9.7639H16.7013V9.50696Z" fill="#3A3A3A"/>
<path d="M16.9583 9.50696H16.7014V9.7639H16.9583V9.50696Z" fill="#3A3A3A"/>
<path d="M17.2153 9.50696H16.9584V9.7639H17.2153V9.50696Z" fill="#3A3A3A"/>
<path d="M17.4722 9.50696H17.2153V9.7639H17.4722V9.50696Z" fill="#3A3A3A"/>
<path d="M17.7292 9.50696H17.4722V9.7639H17.7292V9.50696Z" fill="#3A3A3A"/>
<path d="M17.9861 9.50696H17.7292V9.7639H17.9861V9.50696Z" fill="#3A3A3A"/>
<path d="M0.256944 9.76392H0V10.0209H0.256944V9.76392Z" fill="#3A3A3A"/>
<path d="M0.513902 9.76392H0.256958V10.0209H0.513902V9.76392Z" fill="#3A3A3A"/>
<path d="M0.770799 9.76392H0.513855V10.0209H0.770799V9.76392Z" fill="#3A3A3A"/>
<path d="M1.02776 9.76392H0.770813V10.0209H1.02776V9.76392Z" fill="#3A3A3A"/>
<path d="M1.28472 9.76392H1.02777V10.0209H1.28472V9.76392Z" fill="#3A3A3A"/>
<path d="M1.54167 9.76392H1.28473V10.0209H1.54167V9.76392Z" fill="#3A3A3A"/>
<path d="M1.79863 9.76392H1.54169V10.0209H1.79863V9.76392Z" fill="#3A3A3A"/>
<path d="M2.05559 9.76392H1.79865V10.0209H2.05559V9.76392Z" fill="#3A3A3A"/>
<path d="M2.31249 9.76392H2.05554V10.0209H2.31249V9.76392Z" fill="#3A3A3A"/>
<path d="M2.56944 9.76392H2.3125V10.0209H2.56944V9.76392Z" fill="#3A3A3A"/>
<path d="M2.8264 9.76392H2.56946V10.0209H2.8264V9.76392Z" fill="#3A3A3A"/>
<path d="M3.0833 9.76392H2.82635V10.0209H3.0833V9.76392Z" fill="#3A3A3A"/>
<path d="M3.34026 9.76392H3.08331V10.0209H3.34026V9.76392Z" fill="#3A3A3A"/>
<path d="M3.59722 9.76392H3.34027V10.0209H3.59722V9.76392Z" fill="#3A3A3A"/>
<path d="M3.85417 9.76392H3.59723V10.0209H3.85417V9.76392Z" fill="#3A3A3A"/>
<path d="M4.11113 9.76392H3.85419V10.0209H4.11113V9.76392Z" fill="#3A3A3A"/>
<path d="M4.36809 9.76392H4.11115V10.0209H4.36809V9.76392Z" fill="#3A3A3A"/>
<path d="M4.62499 9.76392H4.36804V10.0209H4.62499V9.76392Z" fill="#3A3A3A"/>
<path d="M4.88194 9.76392H4.625V10.0209H4.88194V9.76392Z" fill="#3A3A3A"/>
<path d="M5.1389 9.76392H4.88196V10.0209H5.1389V9.76392Z" fill="#3A3A3A"/>
<path d="M5.3958 9.76392H5.13885V10.0209H5.3958V9.76392Z" fill="#3A3A3A"/>
<path d="M5.65276 9.76392H5.39581V10.0209H5.65276V9.76392Z" fill="#3A3A3A"/>
<path d="M5.90978 9.76392H5.65283V10.0209H5.90978V9.76392Z" fill="#3A3A3A"/>
<path d="M6.16667 9.76392H5.90973V10.0209H6.16667V9.76392Z" fill="#3A3A3A"/>
<path d="M6.42363 9.76392H6.16669V10.0209H6.42363V9.76392Z" fill="#3A3A3A"/>
<path d="M6.68059 9.76392H6.42365V10.0209H6.68059V9.76392Z" fill="#3A3A3A"/>
<path d="M6.93749 9.76392H6.68054V10.0209H6.93749V9.76392Z" fill="#3A3A3A"/>
<path d="M7.19444 9.76392H6.9375V10.0209H7.19444V9.76392Z" fill="#3A3A3A"/>
<path d="M7.4514 9.76392H7.19446V10.0209H7.4514V9.76392Z" fill="#3A3A3A"/>
<path d="M7.7083 9.76392H7.45135V10.0209H7.7083V9.76392Z" fill="#3A3A3A"/>
<path d="M7.96526 9.76392H7.70831V10.0209H7.96526V9.76392Z" fill="#3A3A3A"/>
<path d="M8.22222 9.76392H7.96527V10.0209H8.22222V9.76392Z" fill="#3A3A3A"/>
<path d="M8.47917 9.76392H8.22223V10.0209H8.47917V9.76392Z" fill="#3A3A3A"/>
<path d="M8.73613 9.76392H8.47919V10.0209H8.73613V9.76392Z" fill="#3A3A3A"/>
<path d="M8.99303 9.76392H8.73608V10.0209H8.99303V9.76392Z" fill="#3A3A3A"/>
<path d="M9.24999 9.76392H8.99304V10.0209H9.24999V9.76392Z" fill="#3A3A3A"/>
<path d="M9.50694 9.76392H9.25V10.0209H9.50694V9.76392Z" fill="#3A3A3A"/>
<path d="M9.76384 9.76392H9.5069V10.0209H9.76384V9.76392Z" fill="#3A3A3A"/>
<path d="M10.0208 9.76392H9.76385V10.0209H10.0208V9.76392Z" fill="#3A3A3A"/>
<path d="M10.2778 9.76392H10.0208V10.0209H10.2778V9.76392Z" fill="#3A3A3A"/>
<path d="M10.5347 9.76392H10.2778V10.0209H10.5347V9.76392Z" fill="#3A3A3A"/>
<path d="M10.7917 9.76392H10.5347V10.0209H10.7917V9.76392Z" fill="#3A3A3A"/>
<path d="M11.0486 9.76392H10.7917V10.0209H11.0486V9.76392Z" fill="#3A3A3A"/>
<path d="M11.3055 9.76392H11.0486V10.0209H11.3055V9.76392Z" fill="#3A3A3A"/>
<path d="M11.5625 9.76392H11.3055V10.0209H11.5625V9.76392Z" fill="#3A3A3A"/>
<path d="M11.8194 9.76392H11.5625V10.0209H11.8194V9.76392Z" fill="#3A3A3A"/>
<path d="M12.0763 9.76392H11.8194V10.0209H12.0763V9.76392Z" fill="#3A3A3A"/>
<path d="M12.3333 9.76392H12.0764V10.0209H12.3333V9.76392Z" fill="#3A3A3A"/>
<path d="M12.5903 9.76392H12.3333V10.0209H12.5903V9.76392Z" fill="#3A3A3A"/>
<path d="M12.8472 9.76392H12.5903V10.0209H12.8472V9.76392Z" fill="#3A3A3A"/>
<path d="M13.1042 9.76392H12.8472V10.0209H13.1042V9.76392Z" fill="#3A3A3A"/>
<path d="M13.3611 9.76392H13.1042V10.0209H13.3611V9.76392Z" fill="#3A3A3A"/>
<path d="M13.618 9.76392H13.3611V10.0209H13.618V9.76392Z" fill="#3A3A3A"/>
<path d="M13.875 9.76392H13.618V10.0209H13.875V9.76392Z" fill="#3A3A3A"/>
<path d="M14.1319 9.76392H13.875V10.0209H14.1319V9.76392Z" fill="#3A3A3A"/>
<path d="M14.3888 9.76392H14.1319V10.0209H14.3888V9.76392Z" fill="#3A3A3A"/>
<path d="M14.6458 9.76392H14.3889V10.0209H14.6458V9.76392Z" fill="#3A3A3A"/>
<path d="M14.9028 9.76392H14.6459V10.0209H14.9028V9.76392Z" fill="#3A3A3A"/>
<path d="M15.1597 9.76392H14.9028V10.0209H15.1597V9.76392Z" fill="#3A3A3A"/>
<path d="M15.4167 9.76392H15.1597V10.0209H15.4167V9.76392Z" fill="#3A3A3A"/>
<path d="M15.6736 9.76392H15.4167V10.0209H15.6736V9.76392Z" fill="#3A3A3A"/>
<path d="M15.9305 9.76392H15.6736V10.0209H15.9305V9.76392Z" fill="#3A3A3A"/>
<path d="M16.1875 9.76392H15.9305V10.0209H16.1875V9.76392Z" fill="#3A3A3A"/>
<path d="M16.4444 9.76392H16.1875V10.0209H16.4444V9.76392Z" fill="#3A3A3A"/>
<path d="M16.7013 9.76392H16.4444V10.0209H16.7013V9.76392Z" fill="#3A3A3A"/>
<path d="M16.9583 9.76392H16.7014V10.0209H16.9583V9.76392Z" fill="#3A3A3A"/>
<path d="M17.2153 9.76392H16.9584V10.0209H17.2153V9.76392Z" fill="#3A3A3A"/>
<path d="M17.4722 9.76392H17.2153V10.0209H17.4722V9.76392Z" fill="#3A3A3A"/>
<path d="M17.7292 9.76392H17.4722V10.0209H17.7292V9.76392Z" fill="#3A3A3A"/>
<path d="M17.9861 9.76392H17.7292V10.0209H17.9861V9.76392Z" fill="#3A3A3A"/>
<path d="M0.256944 10.0208H0V10.2777H0.256944V10.0208Z" fill="#3A3A3A"/>
<path d="M0.513902 10.0208H0.256958V10.2777H0.513902V10.0208Z" fill="#3A3A3A"/>
<path d="M0.770799 10.0208H0.513855V10.2777H0.770799V10.0208Z" fill="#3A3A3A"/>
<path d="M1.02776 10.0208H0.770813V10.2777H1.02776V10.0208Z" fill="#3A3A3A"/>
<path d="M1.28472 10.0208H1.02777V10.2777H1.28472V10.0208Z" fill="#3A3A3A"/>
<path d="M1.54167 10.0208H1.28473V10.2777H1.54167V10.0208Z" fill="#3A3A3A"/>
<path d="M1.79863 10.0208H1.54169V10.2777H1.79863V10.0208Z" fill="#3A3A3A"/>
<path d="M2.05559 10.0208H1.79865V10.2777H2.05559V10.0208Z" fill="#3A3A3A"/>
<path d="M2.31249 10.0208H2.05554V10.2777H2.31249V10.0208Z" fill="#3A3A3A"/>
<path d="M2.56944 10.0208H2.3125V10.2777H2.56944V10.0208Z" fill="#3A3A3A"/>
<path d="M2.8264 10.0208H2.56946V10.2777H2.8264V10.0208Z" fill="#3A3A3A"/>
<path d="M3.0833 10.0208H2.82635V10.2777H3.0833V10.0208Z" fill="#3A3A3A"/>
<path d="M3.34026 10.0208H3.08331V10.2777H3.34026V10.0208Z" fill="#3A3A3A"/>
<path d="M3.59722 10.0208H3.34027V10.2777H3.59722V10.0208Z" fill="#3A3A3A"/>
<path d="M3.85417 10.0208H3.59723V10.2777H3.85417V10.0208Z" fill="#3A3A3A"/>
<path d="M4.11113 10.0208H3.85419V10.2777H4.11113V10.0208Z" fill="#3A3A3A"/>
<path d="M4.36809 10.0208H4.11115V10.2777H4.36809V10.0208Z" fill="#3A3A3A"/>
<path d="M4.62499 10.0208H4.36804V10.2777H4.62499V10.0208Z" fill="#3A3A3A"/>
<path d="M4.88194 10.0208H4.625V10.2777H4.88194V10.0208Z" fill="#3A3A3A"/>
<path d="M5.1389 10.0208H4.88196V10.2777H5.1389V10.0208Z" fill="#3A3A3A"/>
<path d="M5.3958 10.0208H5.13885V10.2777H5.3958V10.0208Z" fill="#3A3A3A"/>
<path d="M5.65276 10.0208H5.39581V10.2777H5.65276V10.0208Z" fill="#3A3A3A"/>
<path d="M5.90978 10.0208H5.65283V10.2777H5.90978V10.0208Z" fill="#3A3A3A"/>
<path d="M6.16667 10.0208H5.90973V10.2777H6.16667V10.0208Z" fill="#3A3A3A"/>
<path d="M6.42363 10.0208H6.16669V10.2777H6.42363V10.0208Z" fill="#3A3A3A"/>
<path d="M6.68059 10.0208H6.42365V10.2777H6.68059V10.0208Z" fill="#3A3A3A"/>
<path d="M6.93749 10.0208H6.68054V10.2777H6.93749V10.0208Z" fill="#3A3A3A"/>
<path d="M7.19444 10.0208H6.9375V10.2777H7.19444V10.0208Z" fill="#3A3A3A"/>
<path d="M7.4514 10.0208H7.19446V10.2777H7.4514V10.0208Z" fill="#3A3A3A"/>
<path d="M7.7083 10.0208H7.45135V10.2777H7.7083V10.0208Z" fill="#3A3A3A"/>
<path d="M7.96526 10.0208H7.70831V10.2777H7.96526V10.0208Z" fill="#3A3A3A"/>
<path d="M8.22222 10.0208H7.96527V10.2777H8.22222V10.0208Z" fill="#3A3A3A"/>
<path d="M8.47917 10.0208H8.22223V10.2777H8.47917V10.0208Z" fill="#3A3A3A"/>
<path d="M8.73613 10.0208H8.47919V10.2777H8.73613V10.0208Z" fill="#3A3A3A"/>
<path d="M8.99303 10.0208H8.73608V10.2777H8.99303V10.0208Z" fill="#3A3A3A"/>
<path d="M9.24999 10.0208H8.99304V10.2777H9.24999V10.0208Z" fill="#3A3A3A"/>
<path d="M9.50694 10.0208H9.25V10.2777H9.50694V10.0208Z" fill="#3A3A3A"/>
<path d="M9.76384 10.0208H9.5069V10.2777H9.76384V10.0208Z" fill="#3A3A3A"/>
<path d="M10.0208 10.0208H9.76385V10.2777H10.0208V10.0208Z" fill="#3A3A3A"/>
<path d="M10.2778 10.0208H10.0208V10.2777H10.2778V10.0208Z" fill="#3A3A3A"/>
<path d="M10.5347 10.0208H10.2778V10.2777H10.5347V10.0208Z" fill="#3A3A3A"/>
<path d="M10.7917 10.0208H10.5347V10.2777H10.7917V10.0208Z" fill="#3A3A3A"/>
<path d="M11.0486 10.0208H10.7917V10.2777H11.0486V10.0208Z" fill="#3A3A3A"/>
<path d="M11.3055 10.0208H11.0486V10.2777H11.3055V10.0208Z" fill="#3A3A3A"/>
<path d="M11.5625 10.0208H11.3055V10.2777H11.5625V10.0208Z" fill="#3A3A3A"/>
<path d="M11.8194 10.0208H11.5625V10.2777H11.8194V10.0208Z" fill="#3A3A3A"/>
<path d="M12.0763 10.0208H11.8194V10.2777H12.0763V10.0208Z" fill="#3A3A3A"/>
<path d="M12.3333 10.0208H12.0764V10.2777H12.3333V10.0208Z" fill="#3A3A3A"/>
<path d="M12.5903 10.0208H12.3333V10.2777H12.5903V10.0208Z" fill="#3A3A3A"/>
<path d="M12.8472 10.0208H12.5903V10.2777H12.8472V10.0208Z" fill="#3A3A3A"/>
<path d="M13.1042 10.0208H12.8472V10.2777H13.1042V10.0208Z" fill="#3A3A3A"/>
<path d="M13.3611 10.0208H13.1042V10.2777H13.3611V10.0208Z" fill="#3A3A3A"/>
<path d="M13.618 10.0208H13.3611V10.2777H13.618V10.0208Z" fill="#3A3A3A"/>
<path d="M13.875 10.0208H13.618V10.2777H13.875V10.0208Z" fill="#3A3A3A"/>
<path d="M14.1319 10.0208H13.875V10.2777H14.1319V10.0208Z" fill="#3A3A3A"/>
<path d="M14.3888 10.0208H14.1319V10.2777H14.3888V10.0208Z" fill="#3A3A3A"/>
<path d="M14.6458 10.0208H14.3889V10.2777H14.6458V10.0208Z" fill="#3A3A3A"/>
<path d="M14.9028 10.0208H14.6459V10.2777H14.9028V10.0208Z" fill="#3A3A3A"/>
<path d="M15.1597 10.0208H14.9028V10.2777H15.1597V10.0208Z" fill="#3A3A3A"/>
<path d="M15.4167 10.0208H15.1597V10.2777H15.4167V10.0208Z" fill="#3A3A3A"/>
<path d="M15.6736 10.0208H15.4167V10.2777H15.6736V10.0208Z" fill="#3A3A3A"/>
<path d="M15.9305 10.0208H15.6736V10.2777H15.9305V10.0208Z" fill="#3A3A3A"/>
<path d="M16.1875 10.0208H15.9305V10.2777H16.1875V10.0208Z" fill="#3A3A3A"/>
<path d="M16.4444 10.0208H16.1875V10.2777H16.4444V10.0208Z" fill="#3A3A3A"/>
<path d="M16.7013 10.0208H16.4444V10.2777H16.7013V10.0208Z" fill="#3A3A3A"/>
<path d="M16.9583 10.0208H16.7014V10.2777H16.9583V10.0208Z" fill="#3A3A3A"/>
<path d="M17.2153 10.0208H16.9584V10.2777H17.2153V10.0208Z" fill="#3A3A3A"/>
<path d="M17.4722 10.0208H17.2153V10.2777H17.4722V10.0208Z" fill="#3A3A3A"/>
<path d="M17.7292 10.0208H17.4722V10.2777H17.7292V10.0208Z" fill="#3A3A3A"/>
<path d="M17.9861 10.0208H17.7292V10.2777H17.9861V10.0208Z" fill="#3A3A3A"/>
<path d="M7.96526 10.2777H7.70831V10.5347H7.96526V10.2777Z" fill="#3A3A3A"/>
<path d="M8.22222 10.2777H7.96527V10.5347H8.22222V10.2777Z" fill="#3A3A3A"/>
<path d="M8.47917 10.2777H8.22223V10.5347H8.47917V10.2777Z" fill="#3A3A3A"/>
<path d="M8.73613 10.2777H8.47919V10.5347H8.73613V10.2777Z" fill="#3A3A3A"/>
<path d="M8.99303 10.2777H8.73608V10.5347H8.99303V10.2777Z" fill="#3A3A3A"/>
<path d="M9.24999 10.2777H8.99304V10.5347H9.24999V10.2777Z" fill="#3A3A3A"/>
<path d="M9.50694 10.2777H9.25V10.5347H9.50694V10.2777Z" fill="#3A3A3A"/>
<path d="M9.76384 10.2777H9.5069V10.5347H9.76384V10.2777Z" fill="#3A3A3A"/>
<path d="M10.0208 10.2777H9.76385V10.5347H10.0208V10.2777Z" fill="#3A3A3A"/>
<path d="M10.2778 10.2777H10.0208V10.5347H10.2778V10.2777Z" fill="#3A3A3A"/>
<path d="M10.5347 10.2777H10.2778V10.5347H10.5347V10.2777Z" fill="#3A3A3A"/>
<path d="M10.7917 10.2777H10.5347V10.5347H10.7917V10.2777Z" fill="#3A3A3A"/>
<path d="M11.0486 10.2777H10.7917V10.5347H11.0486V10.2777Z" fill="#3A3A3A"/>
<path d="M11.3055 10.2777H11.0486V10.5347H11.3055V10.2777Z" fill="#3A3A3A"/>
<path d="M11.5625 10.2777H11.3055V10.5347H11.5625V10.2777Z" fill="#3A3A3A"/>
<path d="M11.8194 10.2777H11.5625V10.5347H11.8194V10.2777Z" fill="#3A3A3A"/>
<path d="M12.0763 10.2777H11.8194V10.5347H12.0763V10.2777Z" fill="#3A3A3A"/>
<path d="M12.3333 10.2777H12.0764V10.5347H12.3333V10.2777Z" fill="#3A3A3A"/>
<path d="M12.5903 10.2777H12.3333V10.5347H12.5903V10.2777Z" fill="#3A3A3A"/>
<path d="M12.8472 10.2777H12.5903V10.5347H12.8472V10.2777Z" fill="#3A3A3A"/>
<path d="M7.96526 10.5347H7.70831V10.7916H7.96526V10.5347Z" fill="#3A3A3A"/>
<path d="M8.22222 10.5347H7.96527V10.7916H8.22222V10.5347Z" fill="#3A3A3A"/>
<path d="M8.47917 10.5347H8.22223V10.7916H8.47917V10.5347Z" fill="#3A3A3A"/>
<path d="M8.73613 10.5347H8.47919V10.7916H8.73613V10.5347Z" fill="#3A3A3A"/>
<path d="M8.99303 10.5347H8.73608V10.7916H8.99303V10.5347Z" fill="#3A3A3A"/>
<path d="M9.24999 10.5347H8.99304V10.7916H9.24999V10.5347Z" fill="#3A3A3A"/>
<path d="M9.50694 10.5347H9.25V10.7916H9.50694V10.5347Z" fill="#3A3A3A"/>
<path d="M9.76384 10.5347H9.5069V10.7916H9.76384V10.5347Z" fill="#3A3A3A"/>
<path d="M10.0208 10.5347H9.76385V10.7916H10.0208V10.5347Z" fill="#3A3A3A"/>
<path d="M10.2778 10.5347H10.0208V10.7916H10.2778V10.5347Z" fill="#3A3A3A"/>
<path d="M10.5347 10.5347H10.2778V10.7916H10.5347V10.5347Z" fill="#3A3A3A"/>
<path d="M10.7917 10.5347H10.5347V10.7916H10.7917V10.5347Z" fill="#3A3A3A"/>
<path d="M11.0486 10.5347H10.7917V10.7916H11.0486V10.5347Z" fill="#3A3A3A"/>
<path d="M11.3055 10.5347H11.0486V10.7916H11.3055V10.5347Z" fill="#3A3A3A"/>
<path d="M11.5625 10.5347H11.3055V10.7916H11.5625V10.5347Z" fill="#3A3A3A"/>
<path d="M11.8194 10.5347H11.5625V10.7916H11.8194V10.5347Z" fill="#3A3A3A"/>
<path d="M12.0763 10.5347H11.8194V10.7916H12.0763V10.5347Z" fill="#3A3A3A"/>
<path d="M12.3333 10.5347H12.0764V10.7916H12.3333V10.5347Z" fill="#3A3A3A"/>
<path d="M12.5903 10.5347H12.3333V10.7916H12.5903V10.5347Z" fill="#3A3A3A"/>
<path d="M12.8472 10.5347H12.5903V10.7916H12.8472V10.5347Z" fill="#3A3A3A"/>
<path d="M7.96526 10.7916H7.70831V11.0486H7.96526V10.7916Z" fill="#3A3A3A"/>
<path d="M8.22222 10.7916H7.96527V11.0486H8.22222V10.7916Z" fill="#3A3A3A"/>
<path d="M8.47917 10.7916H8.22223V11.0486H8.47917V10.7916Z" fill="#3A3A3A"/>
<path d="M8.73613 10.7916H8.47919V11.0486H8.73613V10.7916Z" fill="#3A3A3A"/>
<path d="M8.99303 10.7916H8.73608V11.0486H8.99303V10.7916Z" fill="#3A3A3A"/>
<path d="M9.24999 10.7916H8.99304V11.0486H9.24999V10.7916Z" fill="#3A3A3A"/>
<path d="M9.50694 10.7916H9.25V11.0486H9.50694V10.7916Z" fill="#3A3A3A"/>
<path d="M9.76384 10.7916H9.5069V11.0486H9.76384V10.7916Z" fill="#3A3A3A"/>
<path d="M10.0208 10.7916H9.76385V11.0486H10.0208V10.7916Z" fill="#3A3A3A"/>
<path d="M10.2778 10.7916H10.0208V11.0486H10.2778V10.7916Z" fill="#3A3A3A"/>
<path d="M10.5347 10.7916H10.2778V11.0486H10.5347V10.7916Z" fill="#3A3A3A"/>
<path d="M10.7917 10.7916H10.5347V11.0486H10.7917V10.7916Z" fill="#3A3A3A"/>
<path d="M11.0486 10.7916H10.7917V11.0486H11.0486V10.7916Z" fill="#3A3A3A"/>
<path d="M11.3055 10.7916H11.0486V11.0486H11.3055V10.7916Z" fill="#3A3A3A"/>
<path d="M11.5625 10.7916H11.3055V11.0486H11.5625V10.7916Z" fill="#3A3A3A"/>
<path d="M11.8194 10.7916H11.5625V11.0486H11.8194V10.7916Z" fill="#3A3A3A"/>
<path d="M12.0763 10.7916H11.8194V11.0486H12.0763V10.7916Z" fill="#3A3A3A"/>
<path d="M12.3333 10.7916H12.0764V11.0486H12.3333V10.7916Z" fill="#3A3A3A"/>
<path d="M12.5903 10.7916H12.3333V11.0486H12.5903V10.7916Z" fill="#3A3A3A"/>
<path d="M12.8472 10.7916H12.5903V11.0486H12.8472V10.7916Z" fill="#3A3A3A"/>
<path d="M7.96526 11.0486H7.70831V11.3055H7.96526V11.0486Z" fill="#3A3A3A"/>
<path d="M8.22222 11.0486H7.96527V11.3055H8.22222V11.0486Z" fill="#3A3A3A"/>
<path d="M8.47917 11.0486H8.22223V11.3055H8.47917V11.0486Z" fill="#3A3A3A"/>
<path d="M8.73613 11.0486H8.47919V11.3055H8.73613V11.0486Z" fill="#3A3A3A"/>
<path d="M8.99303 11.0486H8.73608V11.3055H8.99303V11.0486Z" fill="#3A3A3A"/>
<path d="M9.24999 11.0486H8.99304V11.3055H9.24999V11.0486Z" fill="#3A3A3A"/>
<path d="M9.50694 11.0486H9.25V11.3055H9.50694V11.0486Z" fill="#3A3A3A"/>
<path d="M9.76384 11.0486H9.5069V11.3055H9.76384V11.0486Z" fill="#3A3A3A"/>
<path d="M10.0208 11.0486H9.76385V11.3055H10.0208V11.0486Z" fill="#3A3A3A"/>
<path d="M10.2778 11.0486H10.0208V11.3055H10.2778V11.0486Z" fill="#3A3A3A"/>
<path d="M10.5347 11.0486H10.2778V11.3055H10.5347V11.0486Z" fill="#3A3A3A"/>
<path d="M10.7917 11.0486H10.5347V11.3055H10.7917V11.0486Z" fill="#3A3A3A"/>
<path d="M11.0486 11.0486H10.7917V11.3055H11.0486V11.0486Z" fill="#3A3A3A"/>
<path d="M11.3055 11.0486H11.0486V11.3055H11.3055V11.0486Z" fill="#3A3A3A"/>
<path d="M11.5625 11.0486H11.3055V11.3055H11.5625V11.0486Z" fill="#3A3A3A"/>
<path d="M11.8194 11.0486H11.5625V11.3055H11.8194V11.0486Z" fill="#3A3A3A"/>
<path d="M12.0763 11.0486H11.8194V11.3055H12.0763V11.0486Z" fill="#3A3A3A"/>
<path d="M12.3333 11.0486H12.0764V11.3055H12.3333V11.0486Z" fill="#3A3A3A"/>
<path d="M12.5903 11.0486H12.3333V11.3055H12.5903V11.0486Z" fill="#3A3A3A"/>
<path d="M12.8472 11.0486H12.5903V11.3055H12.8472V11.0486Z" fill="#3A3A3A"/>
<path d="M7.96526 11.3057H7.70831V11.5626H7.96526V11.3057Z" fill="#3A3A3A"/>
<path d="M8.22222 11.3057H7.96527V11.5626H8.22222V11.3057Z" fill="#3A3A3A"/>
<path d="M8.47917 11.3057H8.22223V11.5626H8.47917V11.3057Z" fill="#3A3A3A"/>
<path d="M8.73613 11.3057H8.47919V11.5626H8.73613V11.3057Z" fill="#3A3A3A"/>
<path d="M8.99303 11.3057H8.73608V11.5626H8.99303V11.3057Z" fill="#3A3A3A"/>
<path d="M9.24999 11.3057H8.99304V11.5626H9.24999V11.3057Z" fill="#3A3A3A"/>
<path d="M9.50694 11.3057H9.25V11.5626H9.50694V11.3057Z" fill="#3A3A3A"/>
<path d="M9.76384 11.3057H9.5069V11.5626H9.76384V11.3057Z" fill="#3A3A3A"/>
<path d="M10.0208 11.3057H9.76385V11.5626H10.0208V11.3057Z" fill="#3A3A3A"/>
<path d="M10.2778 11.3057H10.0208V11.5626H10.2778V11.3057Z" fill="#3A3A3A"/>
<path d="M10.5347 11.3057H10.2778V11.5626H10.5347V11.3057Z" fill="#3A3A3A"/>
<path d="M10.7917 11.3057H10.5347V11.5626H10.7917V11.3057Z" fill="#3A3A3A"/>
<path d="M11.0486 11.3057H10.7917V11.5626H11.0486V11.3057Z" fill="#3A3A3A"/>
<path d="M11.3055 11.3057H11.0486V11.5626H11.3055V11.3057Z" fill="#3A3A3A"/>
<path d="M11.5625 11.3057H11.3055V11.5626H11.5625V11.3057Z" fill="#3A3A3A"/>
<path d="M11.8194 11.3057H11.5625V11.5626H11.8194V11.3057Z" fill="#3A3A3A"/>
<path d="M12.0763 11.3057H11.8194V11.5626H12.0763V11.3057Z" fill="#3A3A3A"/>
<path d="M12.3333 11.3057H12.0764V11.5626H12.3333V11.3057Z" fill="#3A3A3A"/>
<path d="M12.5903 11.3057H12.3333V11.5626H12.5903V11.3057Z" fill="#3A3A3A"/>
<path d="M12.8472 11.3057H12.5903V11.5626H12.8472V11.3057Z" fill="#3A3A3A"/>
<path d="M7.96526 11.5625H7.70831V11.8194H7.96526V11.5625Z" fill="#3A3A3A"/>
<path d="M8.22222 11.5625H7.96527V11.8194H8.22222V11.5625Z" fill="#3A3A3A"/>
<path d="M8.47917 11.5625H8.22223V11.8194H8.47917V11.5625Z" fill="#3A3A3A"/>
<path d="M8.73613 11.5625H8.47919V11.8194H8.73613V11.5625Z" fill="#3A3A3A"/>
<path d="M8.99303 11.5625H8.73608V11.8194H8.99303V11.5625Z" fill="#3A3A3A"/>
<path d="M9.24999 11.5625H8.99304V11.8194H9.24999V11.5625Z" fill="#3A3A3A"/>
<path d="M9.50694 11.5625H9.25V11.8194H9.50694V11.5625Z" fill="#3A3A3A"/>
<path d="M9.76384 11.5625H9.5069V11.8194H9.76384V11.5625Z" fill="#3A3A3A"/>
<path d="M10.0208 11.5625H9.76385V11.8194H10.0208V11.5625Z" fill="#3A3A3A"/>
<path d="M10.2778 11.5625H10.0208V11.8194H10.2778V11.5625Z" fill="#3A3A3A"/>
<path d="M10.5347 11.5625H10.2778V11.8194H10.5347V11.5625Z" fill="#3A3A3A"/>
<path d="M10.7917 11.5625H10.5347V11.8194H10.7917V11.5625Z" fill="#3A3A3A"/>
<path d="M11.0486 11.5625H10.7917V11.8194H11.0486V11.5625Z" fill="#3A3A3A"/>
<path d="M11.3055 11.5625H11.0486V11.8194H11.3055V11.5625Z" fill="#3A3A3A"/>
<path d="M11.5625 11.5625H11.3055V11.8194H11.5625V11.5625Z" fill="#3A3A3A"/>
<path d="M11.8194 11.5625H11.5625V11.8194H11.8194V11.5625Z" fill="#3A3A3A"/>
<path d="M12.0763 11.5625H11.8194V11.8194H12.0763V11.5625Z" fill="#3A3A3A"/>
<path d="M12.3333 11.5625H12.0764V11.8194H12.3333V11.5625Z" fill="#3A3A3A"/>
<path d="M12.5903 11.5625H12.3333V11.8194H12.5903V11.5625Z" fill="#3A3A3A"/>
<path d="M12.8472 11.5625H12.5903V11.8194H12.8472V11.5625Z" fill="#3A3A3A"/>
<path d="M7.96526 11.8195H7.70831V12.0764H7.96526V11.8195Z" fill="#3A3A3A"/>
<path d="M8.22222 11.8195H7.96527V12.0764H8.22222V11.8195Z" fill="#3A3A3A"/>
<path d="M8.47917 11.8195H8.22223V12.0764H8.47917V11.8195Z" fill="#3A3A3A"/>
<path d="M8.73613 11.8195H8.47919V12.0764H8.73613V11.8195Z" fill="#3A3A3A"/>
<path d="M8.99303 11.8195H8.73608V12.0764H8.99303V11.8195Z" fill="#3A3A3A"/>
<path d="M9.24999 11.8195H8.99304V12.0764H9.24999V11.8195Z" fill="#3A3A3A"/>
<path d="M9.50694 11.8195H9.25V12.0764H9.50694V11.8195Z" fill="#3A3A3A"/>
<path d="M9.76384 11.8195H9.5069V12.0764H9.76384V11.8195Z" fill="#3A3A3A"/>
<path d="M10.0208 11.8195H9.76385V12.0764H10.0208V11.8195Z" fill="#3A3A3A"/>
<path d="M10.2778 11.8195H10.0208V12.0764H10.2778V11.8195Z" fill="#3A3A3A"/>
<path d="M10.5347 11.8195H10.2778V12.0764H10.5347V11.8195Z" fill="#3A3A3A"/>
<path d="M10.7917 11.8195H10.5347V12.0764H10.7917V11.8195Z" fill="#3A3A3A"/>
<path d="M11.0486 11.8195H10.7917V12.0764H11.0486V11.8195Z" fill="#3A3A3A"/>
<path d="M11.3055 11.8195H11.0486V12.0764H11.3055V11.8195Z" fill="#3A3A3A"/>
<path d="M11.5625 11.8195H11.3055V12.0764H11.5625V11.8195Z" fill="#3A3A3A"/>
<path d="M11.8194 11.8195H11.5625V12.0764H11.8194V11.8195Z" fill="#3A3A3A"/>
<path d="M12.0763 11.8195H11.8194V12.0764H12.0763V11.8195Z" fill="#3A3A3A"/>
<path d="M12.3333 11.8195H12.0764V12.0764H12.3333V11.8195Z" fill="#3A3A3A"/>
<path d="M12.5903 11.8195H12.3333V12.0764H12.5903V11.8195Z" fill="#3A3A3A"/>
<path d="M12.8472 11.8195H12.5903V12.0764H12.8472V11.8195Z" fill="#3A3A3A"/>
<path d="M7.96526 12.0764H7.70831V12.3334H7.96526V12.0764Z" fill="#3A3A3A"/>
<path d="M8.22222 12.0764H7.96527V12.3334H8.22222V12.0764Z" fill="#3A3A3A"/>
<path d="M8.47917 12.0764H8.22223V12.3334H8.47917V12.0764Z" fill="#3A3A3A"/>
<path d="M8.73613 12.0764H8.47919V12.3334H8.73613V12.0764Z" fill="#3A3A3A"/>
<path d="M8.99303 12.0764H8.73608V12.3334H8.99303V12.0764Z" fill="#3A3A3A"/>
<path d="M9.24999 12.0764H8.99304V12.3334H9.24999V12.0764Z" fill="#3A3A3A"/>
<path d="M9.50694 12.0764H9.25V12.3334H9.50694V12.0764Z" fill="#3A3A3A"/>
<path d="M9.76384 12.0764H9.5069V12.3334H9.76384V12.0764Z" fill="#3A3A3A"/>
<path d="M10.0208 12.0764H9.76385V12.3334H10.0208V12.0764Z" fill="#3A3A3A"/>
<path d="M10.2778 12.0764H10.0208V12.3334H10.2778V12.0764Z" fill="#3A3A3A"/>
<path d="M10.5347 12.0764H10.2778V12.3334H10.5347V12.0764Z" fill="#3A3A3A"/>
<path d="M10.7917 12.0764H10.5347V12.3334H10.7917V12.0764Z" fill="#3A3A3A"/>
<path d="M11.0486 12.0764H10.7917V12.3334H11.0486V12.0764Z" fill="#3A3A3A"/>
<path d="M11.3055 12.0764H11.0486V12.3334H11.3055V12.0764Z" fill="#3A3A3A"/>
<path d="M11.5625 12.0764H11.3055V12.3334H11.5625V12.0764Z" fill="#3A3A3A"/>
<path d="M11.8194 12.0764H11.5625V12.3334H11.8194V12.0764Z" fill="#3A3A3A"/>
<path d="M12.0763 12.0764H11.8194V12.3334H12.0763V12.0764Z" fill="#3A3A3A"/>
<path d="M12.3333 12.0764H12.0764V12.3334H12.3333V12.0764Z" fill="#3A3A3A"/>
<path d="M12.5903 12.0764H12.3333V12.3334H12.5903V12.0764Z" fill="#3A3A3A"/>
<path d="M12.8472 12.0764H12.5903V12.3334H12.8472V12.0764Z" fill="#3A3A3A"/>
<path d="M7.96526 12.3334H7.70831V12.5903H7.96526V12.3334Z" fill="#3A3A3A"/>
<path d="M8.22222 12.3334H7.96527V12.5903H8.22222V12.3334Z" fill="#3A3A3A"/>
<path d="M8.47917 12.3334H8.22223V12.5903H8.47917V12.3334Z" fill="#3A3A3A"/>
<path d="M8.73613 12.3334H8.47919V12.5903H8.73613V12.3334Z" fill="#3A3A3A"/>
<path d="M8.99303 12.3334H8.73608V12.5903H8.99303V12.3334Z" fill="#3A3A3A"/>
<path d="M9.24999 12.3334H8.99304V12.5903H9.24999V12.3334Z" fill="#3A3A3A"/>
<path d="M9.50694 12.3334H9.25V12.5903H9.50694V12.3334Z" fill="#3A3A3A"/>
<path d="M9.76384 12.3334H9.5069V12.5903H9.76384V12.3334Z" fill="#3A3A3A"/>
<path d="M10.0208 12.3334H9.76385V12.5903H10.0208V12.3334Z" fill="#3A3A3A"/>
<path d="M10.2778 12.3334H10.0208V12.5903H10.2778V12.3334Z" fill="#3A3A3A"/>
<path d="M10.5347 12.3334H10.2778V12.5903H10.5347V12.3334Z" fill="#3A3A3A"/>
<path d="M10.7917 12.3334H10.5347V12.5903H10.7917V12.3334Z" fill="#3A3A3A"/>
<path d="M11.0486 12.3334H10.7917V12.5903H11.0486V12.3334Z" fill="#3A3A3A"/>
<path d="M11.3055 12.3334H11.0486V12.5903H11.3055V12.3334Z" fill="#3A3A3A"/>
<path d="M11.5625 12.3334H11.3055V12.5903H11.5625V12.3334Z" fill="#3A3A3A"/>
<path d="M11.8194 12.3334H11.5625V12.5903H11.8194V12.3334Z" fill="#3A3A3A"/>
<path d="M12.0763 12.3334H11.8194V12.5903H12.0763V12.3334Z" fill="#3A3A3A"/>
<path d="M12.3333 12.3334H12.0764V12.5903H12.3333V12.3334Z" fill="#3A3A3A"/>
<path d="M12.5903 12.3334H12.3333V12.5903H12.5903V12.3334Z" fill="#3A3A3A"/>
<path d="M12.8472 12.3334H12.5903V12.5903H12.8472V12.3334Z" fill="#3A3A3A"/>
<path d="M7.96526 12.5903H7.70831V12.8473H7.96526V12.5903Z" fill="#3A3A3A"/>
<path d="M8.22222 12.5903H7.96527V12.8473H8.22222V12.5903Z" fill="#3A3A3A"/>
<path d="M8.47917 12.5903H8.22223V12.8473H8.47917V12.5903Z" fill="#3A3A3A"/>
<path d="M8.73613 12.5903H8.47919V12.8473H8.73613V12.5903Z" fill="#3A3A3A"/>
<path d="M8.99303 12.5903H8.73608V12.8473H8.99303V12.5903Z" fill="#3A3A3A"/>
<path d="M9.24999 12.5903H8.99304V12.8473H9.24999V12.5903Z" fill="#3A3A3A"/>
<path d="M9.50694 12.5903H9.25V12.8473H9.50694V12.5903Z" fill="#3A3A3A"/>
<path d="M9.76384 12.5903H9.5069V12.8473H9.76384V12.5903Z" fill="#3A3A3A"/>
<path d="M10.0208 12.5903H9.76385V12.8473H10.0208V12.5903Z" fill="#3A3A3A"/>
<path d="M10.2778 12.5903H10.0208V12.8473H10.2778V12.5903Z" fill="#3A3A3A"/>
<path d="M10.5347 12.5903H10.2778V12.8473H10.5347V12.5903Z" fill="#3A3A3A"/>
<path d="M10.7917 12.5903H10.5347V12.8473H10.7917V12.5903Z" fill="#3A3A3A"/>
<path d="M11.0486 12.5903H10.7917V12.8473H11.0486V12.5903Z" fill="#3A3A3A"/>
<path d="M11.3055 12.5903H11.0486V12.8473H11.3055V12.5903Z" fill="#3A3A3A"/>
<path d="M11.5625 12.5903H11.3055V12.8473H11.5625V12.5903Z" fill="#3A3A3A"/>
<path d="M11.8194 12.5903H11.5625V12.8473H11.8194V12.5903Z" fill="#3A3A3A"/>
<path d="M12.0763 12.5903H11.8194V12.8473H12.0763V12.5903Z" fill="#3A3A3A"/>
<path d="M12.3333 12.5903H12.0764V12.8473H12.3333V12.5903Z" fill="#3A3A3A"/>
<path d="M12.5903 12.5903H12.3333V12.8473H12.5903V12.5903Z" fill="#3A3A3A"/>
<path d="M12.8472 12.5903H12.5903V12.8473H12.8472V12.5903Z" fill="#3A3A3A"/>
<path d="M5.3958 12.8473H5.13885V13.1042H5.3958V12.8473Z" fill="#3A3A3A"/>
<path d="M5.65276 12.8473H5.39581V13.1042H5.65276V12.8473Z" fill="#3A3A3A"/>
<path d="M5.90978 12.8473H5.65283V13.1042H5.90978V12.8473Z" fill="#3A3A3A"/>
<path d="M6.16667 12.8473H5.90973V13.1042H6.16667V12.8473Z" fill="#3A3A3A"/>
<path d="M6.42363 12.8473H6.16669V13.1042H6.42363V12.8473Z" fill="#3A3A3A"/>
<path d="M6.68059 12.8473H6.42365V13.1042H6.68059V12.8473Z" fill="#3A3A3A"/>
<path d="M6.93749 12.8473H6.68054V13.1042H6.93749V12.8473Z" fill="#3A3A3A"/>
<path d="M7.19444 12.8473H6.9375V13.1042H7.19444V12.8473Z" fill="#3A3A3A"/>
<path d="M7.4514 12.8473H7.19446V13.1042H7.4514V12.8473Z" fill="#3A3A3A"/>
<path d="M7.7083 12.8473H7.45135V13.1042H7.7083V12.8473Z" fill="#3A3A3A"/>
<path d="M5.3958 13.1041H5.13885V13.3611H5.3958V13.1041Z" fill="#3A3A3A"/>
<path d="M5.65276 13.1041H5.39581V13.3611H5.65276V13.1041Z" fill="#3A3A3A"/>
<path d="M5.90978 13.1041H5.65283V13.3611H5.90978V13.1041Z" fill="#3A3A3A"/>
<path d="M6.16667 13.1041H5.90973V13.3611H6.16667V13.1041Z" fill="#3A3A3A"/>
<path d="M6.42363 13.1041H6.16669V13.3611H6.42363V13.1041Z" fill="#3A3A3A"/>
<path d="M6.68059 13.1041H6.42365V13.3611H6.68059V13.1041Z" fill="#3A3A3A"/>
<path d="M6.93749 13.1041H6.68054V13.3611H6.93749V13.1041Z" fill="#3A3A3A"/>
<path d="M7.19444 13.1041H6.9375V13.3611H7.19444V13.1041Z" fill="#3A3A3A"/>
<path d="M7.4514 13.1041H7.19446V13.3611H7.4514V13.1041Z" fill="#3A3A3A"/>
<path d="M7.7083 13.1041H7.45135V13.3611H7.7083V13.1041Z" fill="#3A3A3A"/>
<path d="M5.3958 13.3611H5.13885V13.618H5.3958V13.3611Z" fill="#3A3A3A"/>
<path d="M5.65276 13.3611H5.39581V13.618H5.65276V13.3611Z" fill="#3A3A3A"/>
<path d="M5.90978 13.3611H5.65283V13.618H5.90978V13.3611Z" fill="#3A3A3A"/>
<path d="M6.16667 13.3611H5.90973V13.618H6.16667V13.3611Z" fill="#3A3A3A"/>
<path d="M6.42363 13.3611H6.16669V13.618H6.42363V13.3611Z" fill="#3A3A3A"/>
<path d="M6.68059 13.3611H6.42365V13.618H6.68059V13.3611Z" fill="#3A3A3A"/>
<path d="M6.93749 13.3611H6.68054V13.618H6.93749V13.3611Z" fill="#3A3A3A"/>
<path d="M7.19444 13.3611H6.9375V13.618H7.19444V13.3611Z" fill="#3A3A3A"/>
<path d="M7.4514 13.3611H7.19446V13.618H7.4514V13.3611Z" fill="#3A3A3A"/>
<path d="M7.7083 13.3611H7.45135V13.618H7.7083V13.3611Z" fill="#3A3A3A"/>
<path d="M5.3958 13.618H5.13885V13.875H5.3958V13.618Z" fill="#3A3A3A"/>
<path d="M5.65276 13.618H5.39581V13.875H5.65276V13.618Z" fill="#3A3A3A"/>
<path d="M5.90978 13.618H5.65283V13.875H5.90978V13.618Z" fill="#3A3A3A"/>
<path d="M6.16667 13.618H5.90973V13.875H6.16667V13.618Z" fill="#3A3A3A"/>
<path d="M6.42363 13.618H6.16669V13.875H6.42363V13.618Z" fill="#3A3A3A"/>
<path d="M6.68059 13.618H6.42365V13.875H6.68059V13.618Z" fill="#3A3A3A"/>
<path d="M6.93749 13.618H6.68054V13.875H6.93749V13.618Z" fill="#3A3A3A"/>
<path d="M7.19444 13.618H6.9375V13.875H7.19444V13.618Z" fill="#3A3A3A"/>
<path d="M7.4514 13.618H7.19446V13.875H7.4514V13.618Z" fill="#3A3A3A"/>
<path d="M7.7083 13.618H7.45135V13.875H7.7083V13.618Z" fill="#3A3A3A"/>
<path d="M5.3958 13.875H5.13885V14.1319H5.3958V13.875Z" fill="#3A3A3A"/>
<path d="M5.65276 13.875H5.39581V14.1319H5.65276V13.875Z" fill="#3A3A3A"/>
<path d="M5.90978 13.875H5.65283V14.1319H5.90978V13.875Z" fill="#3A3A3A"/>
<path d="M6.16667 13.875H5.90973V14.1319H6.16667V13.875Z" fill="#3A3A3A"/>
<path d="M6.42363 13.875H6.16669V14.1319H6.42363V13.875Z" fill="#3A3A3A"/>
<path d="M6.68059 13.875H6.42365V14.1319H6.68059V13.875Z" fill="#3A3A3A"/>
<path d="M6.93749 13.875H6.68054V14.1319H6.93749V13.875Z" fill="#3A3A3A"/>
<path d="M7.19444 13.875H6.9375V14.1319H7.19444V13.875Z" fill="#3A3A3A"/>
<path d="M7.4514 13.875H7.19446V14.1319H7.4514V13.875Z" fill="#3A3A3A"/>
<path d="M7.7083 13.875H7.45135V14.1319H7.7083V13.875Z" fill="#3A3A3A"/>
<path d="M5.3958 14.132H5.13885V14.3889H5.3958V14.132Z" fill="#3A3A3A"/>
<path d="M5.65276 14.132H5.39581V14.3889H5.65276V14.132Z" fill="#3A3A3A"/>
<path d="M5.90978 14.132H5.65283V14.3889H5.90978V14.132Z" fill="#3A3A3A"/>
<path d="M6.16667 14.132H5.90973V14.3889H6.16667V14.132Z" fill="#3A3A3A"/>
<path d="M6.42363 14.132H6.16669V14.3889H6.42363V14.132Z" fill="#3A3A3A"/>
<path d="M6.68059 14.132H6.42365V14.3889H6.68059V14.132Z" fill="#3A3A3A"/>
<path d="M6.93749 14.132H6.68054V14.3889H6.93749V14.132Z" fill="#3A3A3A"/>
<path d="M7.19444 14.132H6.9375V14.3889H7.19444V14.132Z" fill="#3A3A3A"/>
<path d="M7.4514 14.132H7.19446V14.3889H7.4514V14.132Z" fill="#3A3A3A"/>
<path d="M7.7083 14.132H7.45135V14.3889H7.7083V14.132Z" fill="#3A3A3A"/>
<path d="M5.3958 14.3889H5.13885V14.6459H5.3958V14.3889Z" fill="#3A3A3A"/>
<path d="M5.65276 14.3889H5.39581V14.6459H5.65276V14.3889Z" fill="#3A3A3A"/>
<path d="M5.90978 14.3889H5.65283V14.6459H5.90978V14.3889Z" fill="#3A3A3A"/>
<path d="M6.16667 14.3889H5.90973V14.6459H6.16667V14.3889Z" fill="#3A3A3A"/>
<path d="M6.42363 14.3889H6.16669V14.6459H6.42363V14.3889Z" fill="#3A3A3A"/>
<path d="M6.68059 14.3889H6.42365V14.6459H6.68059V14.3889Z" fill="#3A3A3A"/>
<path d="M6.93749 14.3889H6.68054V14.6459H6.93749V14.3889Z" fill="#3A3A3A"/>
<path d="M7.19444 14.3889H6.9375V14.6459H7.19444V14.3889Z" fill="#3A3A3A"/>
<path d="M7.4514 14.3889H7.19446V14.6459H7.4514V14.3889Z" fill="#3A3A3A"/>
<path d="M7.7083 14.3889H7.45135V14.6459H7.7083V14.3889Z" fill="#3A3A3A"/>
<path d="M5.3958 14.6458H5.13885V14.9027H5.3958V14.6458Z" fill="#3A3A3A"/>
<path d="M5.65276 14.6458H5.39581V14.9027H5.65276V14.6458Z" fill="#3A3A3A"/>
<path d="M5.90978 14.6458H5.65283V14.9027H5.90978V14.6458Z" fill="#3A3A3A"/>
<path d="M6.16667 14.6458H5.90973V14.9027H6.16667V14.6458Z" fill="#3A3A3A"/>
<path d="M6.42363 14.6458H6.16669V14.9027H6.42363V14.6458Z" fill="#3A3A3A"/>
<path d="M6.68059 14.6458H6.42365V14.9027H6.68059V14.6458Z" fill="#3A3A3A"/>
<path d="M6.93749 14.6458H6.68054V14.9027H6.93749V14.6458Z" fill="#3A3A3A"/>
<path d="M7.19444 14.6458H6.9375V14.9027H7.19444V14.6458Z" fill="#3A3A3A"/>
<path d="M7.4514 14.6458H7.19446V14.9027H7.4514V14.6458Z" fill="#3A3A3A"/>
<path d="M7.7083 14.6458H7.45135V14.9027H7.7083V14.6458Z" fill="#3A3A3A"/>
<path d="M5.3958 14.9027H5.13885V15.1597H5.3958V14.9027Z" fill="#3A3A3A"/>
<path d="M5.65276 14.9027H5.39581V15.1597H5.65276V14.9027Z" fill="#3A3A3A"/>
<path d="M5.90978 14.9027H5.65283V15.1597H5.90978V14.9027Z" fill="#3A3A3A"/>
<path d="M6.16667 14.9027H5.90973V15.1597H6.16667V14.9027Z" fill="#3A3A3A"/>
<path d="M6.42363 14.9027H6.16669V15.1597H6.42363V14.9027Z" fill="#3A3A3A"/>
<path d="M6.68059 14.9027H6.42365V15.1597H6.68059V14.9027Z" fill="#3A3A3A"/>
<path d="M6.93749 14.9027H6.68054V15.1597H6.93749V14.9027Z" fill="#3A3A3A"/>
<path d="M7.19444 14.9027H6.9375V15.1597H7.19444V14.9027Z" fill="#3A3A3A"/>
<path d="M7.4514 14.9027H7.19446V15.1597H7.4514V14.9027Z" fill="#3A3A3A"/>
<path d="M7.7083 14.9027H7.45135V15.1597H7.7083V14.9027Z" fill="#3A3A3A"/>
<path d="M5.3958 15.1597H5.13885V15.4166H5.3958V15.1597Z" fill="#3A3A3A"/>
<path d="M5.65276 15.1597H5.39581V15.4166H5.65276V15.1597Z" fill="#3A3A3A"/>
<path d="M5.90978 15.1597H5.65283V15.4166H5.90978V15.1597Z" fill="#3A3A3A"/>
<path d="M6.16667 15.1597H5.90973V15.4166H6.16667V15.1597Z" fill="#3A3A3A"/>
<path d="M6.42363 15.1597H6.16669V15.4166H6.42363V15.1597Z" fill="#3A3A3A"/>
<path d="M6.68059 15.1597H6.42365V15.4166H6.68059V15.1597Z" fill="#3A3A3A"/>
<path d="M6.93749 15.1597H6.68054V15.4166H6.93749V15.1597Z" fill="#3A3A3A"/>
<path d="M7.19444 15.1597H6.9375V15.4166H7.19444V15.1597Z" fill="#3A3A3A"/>
<path d="M7.4514 15.1597H7.19446V15.4166H7.4514V15.1597Z" fill="#3A3A3A"/>
<path d="M7.7083 15.1597H7.45135V15.4166H7.7083V15.1597Z" fill="#3A3A3A"/>
</g>
<defs>
<clipPath id="clip0_89_34">
<rect width="17.9861" height="17.9861" fill="white"/>
</clipPath>
</defs>
</svg>
