<svg width="18" height="14" viewBox="0 0 18 14" fill="none" xmlns="http://www.w3.org/2000/svg">
<path d="M5.39581 0.569458H5.13887V0.826402H5.39581V0.569458Z" fill="#3A3A3A"/>
<path d="M5.65275 0.569458H5.39581V0.826402H5.65275V0.569458Z" fill="#3A3A3A"/>
<path d="M5.90975 0.569458H5.65275V0.826402H5.90975V0.569458Z" fill="#3A3A3A"/>
<path d="M6.16668 0.569458H5.90975V0.826402H6.16668V0.569458Z" fill="#3A3A3A"/>
<path d="M6.42362 0.569458H6.16668V0.826402H6.42362V0.569458Z" fill="#3A3A3A"/>
<path d="M6.68056 0.569458H6.42362V0.826402H6.68056V0.569458Z" fill="#3A3A3A"/>
<path d="M6.9375 0.569458H6.68056V0.826402H6.9375V0.569458Z" fill="#3A3A3A"/>
<path d="M7.19444 0.569458H6.9375V0.826402H7.19444V0.569458Z" fill="#3A3A3A"/>
<path d="M7.45137 0.569458H7.19444V0.826402H7.45137V0.569458Z" fill="#3A3A3A"/>
<path d="M7.70831 0.569458H7.45137V0.826402H7.70831V0.569458Z" fill="#3A3A3A"/>
<path d="M5.39581 0.826402H5.13887V1.08334H5.39581V0.826402Z" fill="#3A3A3A"/>
<path d="M5.65275 0.826402H5.39581V1.08334H5.65275V0.826402Z" fill="#3A3A3A"/>
<path d="M5.90975 0.826402H5.65275V1.08334H5.90975V0.826402Z" fill="#3A3A3A"/>
<path d="M6.16668 0.826402H5.90975V1.08334H6.16668V0.826402Z" fill="#3A3A3A"/>
<path d="M6.42362 0.826402H6.16668V1.08334H6.42362V0.826402Z" fill="#3A3A3A"/>
<path d="M6.68056 0.826402H6.42362V1.08334H6.68056V0.826402Z" fill="#3A3A3A"/>
<path d="M6.9375 0.826402H6.68056V1.08334H6.9375V0.826402Z" fill="#3A3A3A"/>
<path d="M7.19444 0.826402H6.9375V1.08334H7.19444V0.826402Z" fill="#3A3A3A"/>
<path d="M7.45137 0.826402H7.19444V1.08334H7.45137V0.826402Z" fill="#3A3A3A"/>
<path d="M7.70831 0.826402H7.45137V1.08334H7.70831V0.826402Z" fill="#3A3A3A"/>
<path d="M5.39581 1.08334H5.13887V1.34028H5.39581V1.08334Z" fill="#3A3A3A"/>
<path d="M5.65275 1.08334H5.39581V1.34028H5.65275V1.08334Z" fill="#3A3A3A"/>
<path d="M5.90975 1.08334H5.65275V1.34028H5.90975V1.08334Z" fill="#3A3A3A"/>
<path d="M6.16668 1.08334H5.90975V1.34028H6.16668V1.08334Z" fill="#3A3A3A"/>
<path d="M6.42362 1.08334H6.16668V1.34028H6.42362V1.08334Z" fill="#3A3A3A"/>
<path d="M6.68056 1.08334H6.42362V1.34028H6.68056V1.08334Z" fill="#3A3A3A"/>
<path d="M6.9375 1.08334H6.68056V1.34028H6.9375V1.08334Z" fill="#3A3A3A"/>
<path d="M7.19444 1.08334H6.9375V1.34028H7.19444V1.08334Z" fill="#3A3A3A"/>
<path d="M7.45137 1.08334H7.19444V1.34028H7.45137V1.08334Z" fill="#3A3A3A"/>
<path d="M7.70831 1.08334H7.45137V1.34028H7.70831V1.08334Z" fill="#3A3A3A"/>
<path d="M5.39581 1.34028H5.13887V1.59722H5.39581V1.34028Z" fill="#3A3A3A"/>
<path d="M5.65275 1.34028H5.39581V1.59722H5.65275V1.34028Z" fill="#3A3A3A"/>
<path d="M5.90975 1.34028H5.65275V1.59722H5.90975V1.34028Z" fill="#3A3A3A"/>
<path d="M6.16668 1.34028H5.90975V1.59722H6.16668V1.34028Z" fill="#3A3A3A"/>
<path d="M6.42362 1.34028H6.16668V1.59722H6.42362V1.34028Z" fill="#3A3A3A"/>
<path d="M6.68056 1.34028H6.42362V1.59722H6.68056V1.34028Z" fill="#3A3A3A"/>
<path d="M6.9375 1.34028H6.68056V1.59722H6.9375V1.34028Z" fill="#3A3A3A"/>
<path d="M7.19444 1.34028H6.9375V1.59722H7.19444V1.34028Z" fill="#3A3A3A"/>
<path d="M7.45137 1.34028H7.19444V1.59722H7.45137V1.34028Z" fill="#3A3A3A"/>
<path d="M7.70831 1.34028H7.45137V1.59722H7.70831V1.34028Z" fill="#3A3A3A"/>
<path d="M5.39581 1.59722H5.13887V1.85415H5.39581V1.59722Z" fill="#3A3A3A"/>
<path d="M5.65275 1.59722H5.39581V1.85415H5.65275V1.59722Z" fill="#3A3A3A"/>
<path d="M5.90975 1.59722H5.65275V1.85415H5.90975V1.59722Z" fill="#3A3A3A"/>
<path d="M6.16668 1.59722H5.90975V1.85415H6.16668V1.59722Z" fill="#3A3A3A"/>
<path d="M6.42362 1.59722H6.16668V1.85415H6.42362V1.59722Z" fill="#3A3A3A"/>
<path d="M6.68056 1.59722H6.42362V1.85415H6.68056V1.59722Z" fill="#3A3A3A"/>
<path d="M6.9375 1.59722H6.68056V1.85415H6.9375V1.59722Z" fill="#3A3A3A"/>
<path d="M7.19444 1.59722H6.9375V1.85415H7.19444V1.59722Z" fill="#3A3A3A"/>
<path d="M7.45137 1.59722H7.19444V1.85415H7.45137V1.59722Z" fill="#3A3A3A"/>
<path d="M7.70831 1.59722H7.45137V1.85415H7.70831V1.59722Z" fill="#3A3A3A"/>
<path d="M5.39581 1.85415H5.13887V2.11109H5.39581V1.85415Z" fill="#3A3A3A"/>
<path d="M5.65275 1.85415H5.39581V2.11109H5.65275V1.85415Z" fill="#3A3A3A"/>
<path d="M5.90975 1.85415H5.65275V2.11109H5.90975V1.85415Z" fill="#3A3A3A"/>
<path d="M6.16668 1.85415H5.90975V2.11109H6.16668V1.85415Z" fill="#3A3A3A"/>
<path d="M6.42362 1.85415H6.16668V2.11109H6.42362V1.85415Z" fill="#3A3A3A"/>
<path d="M6.68056 1.85415H6.42362V2.11109H6.68056V1.85415Z" fill="#3A3A3A"/>
<path d="M6.9375 1.85415H6.68056V2.11109H6.9375V1.85415Z" fill="#3A3A3A"/>
<path d="M7.19444 1.85415H6.9375V2.11109H7.19444V1.85415Z" fill="#3A3A3A"/>
<path d="M7.45137 1.85415H7.19444V2.11109H7.45137V1.85415Z" fill="#3A3A3A"/>
<path d="M7.70831 1.85415H7.45137V2.11109H7.70831V1.85415Z" fill="#3A3A3A"/>
<path d="M5.39581 2.11109H5.13887V2.36803H5.39581V2.11109Z" fill="#3A3A3A"/>
<path d="M5.65275 2.11109H5.39581V2.36803H5.65275V2.11109Z" fill="#3A3A3A"/>
<path d="M5.90975 2.11109H5.65275V2.36803H5.90975V2.11109Z" fill="#3A3A3A"/>
<path d="M6.16668 2.11109H5.90975V2.36803H6.16668V2.11109Z" fill="#3A3A3A"/>
<path d="M6.42362 2.11109H6.16668V2.36803H6.42362V2.11109Z" fill="#3A3A3A"/>
<path d="M6.68056 2.11109H6.42362V2.36803H6.68056V2.11109Z" fill="#3A3A3A"/>
<path d="M6.9375 2.11109H6.68056V2.36803H6.9375V2.11109Z" fill="#3A3A3A"/>
<path d="M7.19444 2.11109H6.9375V2.36803H7.19444V2.11109Z" fill="#3A3A3A"/>
<path d="M7.45137 2.11109H7.19444V2.36803H7.45137V2.11109Z" fill="#3A3A3A"/>
<path d="M7.70831 2.11109H7.45137V2.36803H7.70831V2.11109Z" fill="#3A3A3A"/>
<path d="M5.39581 2.36803H5.13887V2.62497H5.39581V2.36803Z" fill="#3A3A3A"/>
<path d="M5.65275 2.36803H5.39581V2.62497H5.65275V2.36803Z" fill="#3A3A3A"/>
<path d="M5.90975 2.36803H5.65275V2.62497H5.90975V2.36803Z" fill="#3A3A3A"/>
<path d="M6.16668 2.36803H5.90975V2.62497H6.16668V2.36803Z" fill="#3A3A3A"/>
<path d="M6.42362 2.36803H6.16668V2.62497H6.42362V2.36803Z" fill="#3A3A3A"/>
<path d="M6.68056 2.36803H6.42362V2.62497H6.68056V2.36803Z" fill="#3A3A3A"/>
<path d="M6.9375 2.36803H6.68056V2.62497H6.9375V2.36803Z" fill="#3A3A3A"/>
<path d="M7.19444 2.36803H6.9375V2.62497H7.19444V2.36803Z" fill="#3A3A3A"/>
<path d="M7.45137 2.36803H7.19444V2.62497H7.45137V2.36803Z" fill="#3A3A3A"/>
<path d="M7.70831 2.36803H7.45137V2.62497H7.70831V2.36803Z" fill="#3A3A3A"/>
<path d="M5.39581 2.62497H5.13887V2.88191H5.39581V2.62497Z" fill="#3A3A3A"/>
<path d="M5.65275 2.62497H5.39581V2.88191H5.65275V2.62497Z" fill="#3A3A3A"/>
<path d="M5.90975 2.62497H5.65275V2.88191H5.90975V2.62497Z" fill="#3A3A3A"/>
<path d="M6.16668 2.62497H5.90975V2.88191H6.16668V2.62497Z" fill="#3A3A3A"/>
<path d="M6.42362 2.62497H6.16668V2.88191H6.42362V2.62497Z" fill="#3A3A3A"/>
<path d="M6.68056 2.62497H6.42362V2.88191H6.68056V2.62497Z" fill="#3A3A3A"/>
<path d="M6.9375 2.62497H6.68056V2.88191H6.9375V2.62497Z" fill="#3A3A3A"/>
<path d="M7.19444 2.62497H6.9375V2.88191H7.19444V2.62497Z" fill="#3A3A3A"/>
<path d="M7.45137 2.62497H7.19444V2.88191H7.45137V2.62497Z" fill="#3A3A3A"/>
<path d="M7.70831 2.62497H7.45137V2.88191H7.70831V2.62497Z" fill="#3A3A3A"/>
<path d="M5.39581 2.88191H5.13887V3.13884H5.39581V2.88191Z" fill="#3A3A3A"/>
<path d="M5.65275 2.88191H5.39581V3.13884H5.65275V2.88191Z" fill="#3A3A3A"/>
<path d="M5.90975 2.88191H5.65275V3.13884H5.90975V2.88191Z" fill="#3A3A3A"/>
<path d="M6.16668 2.88191H5.90975V3.13884H6.16668V2.88191Z" fill="#3A3A3A"/>
<path d="M6.42362 2.88191H6.16668V3.13884H6.42362V2.88191Z" fill="#3A3A3A"/>
<path d="M6.68056 2.88191H6.42362V3.13884H6.68056V2.88191Z" fill="#3A3A3A"/>
<path d="M6.9375 2.88191H6.68056V3.13884H6.9375V2.88191Z" fill="#3A3A3A"/>
<path d="M7.19444 2.88191H6.9375V3.13884H7.19444V2.88191Z" fill="#3A3A3A"/>
<path d="M7.45137 2.88191H7.19444V3.13884H7.45137V2.88191Z" fill="#3A3A3A"/>
<path d="M7.70831 2.88191H7.45137V3.13884H7.70831V2.88191Z" fill="#3A3A3A"/>
<path d="M7.96525 3.13884L7.70831 3.13884L7.70831 3.39578H7.96525V3.13884Z" fill="#3A3A3A"/>
<path d="M8.22224 3.13884H7.96525V3.39578H8.22224V3.13884Z" fill="#3A3A3A"/>
<path d="M8.47918 3.13884H8.22224V3.39578H8.47918V3.13884Z" fill="#3A3A3A"/>
<path d="M8.73612 3.13884H8.47918V3.39578H8.73612V3.13884Z" fill="#3A3A3A"/>
<path d="M8.99306 3.13884H8.73612V3.39578H8.99306V3.13884Z" fill="#3A3A3A"/>
<path d="M9.25 3.13884H8.99306V3.39578H9.25V3.13884Z" fill="#3A3A3A"/>
<path d="M9.50693 3.13884H9.25V3.39578H9.50693V3.13884Z" fill="#3A3A3A"/>
<path d="M9.76387 3.13884H9.50693V3.39578H9.76387V3.13884Z" fill="#3A3A3A"/>
<path d="M10.0208 3.13884H9.76387V3.39578H10.0208V3.13884Z" fill="#3A3A3A"/>
<path d="M10.2777 3.13884H10.0208V3.39578H10.2777V3.13884Z" fill="#3A3A3A"/>
<path d="M10.5347 3.13884H10.2777V3.39578H10.5347V3.13884Z" fill="#3A3A3A"/>
<path d="M10.7917 3.13884H10.5347V3.39578H10.7917V3.13884Z" fill="#3A3A3A"/>
<path d="M11.0486 3.13884H10.7917V3.39578H11.0486V3.13884Z" fill="#3A3A3A"/>
<path d="M11.3056 3.13884H11.0486V3.39578H11.3056V3.13884Z" fill="#3A3A3A"/>
<path d="M11.5625 3.13884H11.3056V3.39578H11.5625V3.13884Z" fill="#3A3A3A"/>
<path d="M11.8194 3.13884H11.5625V3.39578H11.8194V3.13884Z" fill="#3A3A3A"/>
<path d="M12.0764 3.13884H11.8194V3.39578H12.0764V3.13884Z" fill="#3A3A3A"/>
<path d="M12.3333 3.13884H12.0764V3.39578H12.3333V3.13884Z" fill="#3A3A3A"/>
<path d="M12.5902 3.13884H12.3333V3.39578H12.5902V3.13884Z" fill="#3A3A3A"/>
<path d="M12.8472 3.13884H12.5902V3.39578H12.8472V3.13884Z" fill="#3A3A3A"/>
<path d="M7.96525 3.39578H7.70831V3.65272H7.96525V3.39578Z" fill="#3A3A3A"/>
<path d="M8.22224 3.39578H7.96525V3.65272H8.22224V3.39578Z" fill="#3A3A3A"/>
<path d="M8.47918 3.39578H8.22224V3.65272H8.47918V3.39578Z" fill="#3A3A3A"/>
<path d="M8.73612 3.39578H8.47918V3.65272H8.73612V3.39578Z" fill="#3A3A3A"/>
<path d="M8.99306 3.39578H8.73612V3.65272H8.99306V3.39578Z" fill="#3A3A3A"/>
<path d="M9.25 3.39578H8.99306V3.65272H9.25V3.39578Z" fill="#3A3A3A"/>
<path d="M9.50693 3.39578H9.25V3.65272H9.50693V3.39578Z" fill="#3A3A3A"/>
<path d="M9.76387 3.39578H9.50693V3.65272H9.76387V3.39578Z" fill="#3A3A3A"/>
<path d="M10.0208 3.39578H9.76387V3.65272H10.0208V3.39578Z" fill="#3A3A3A"/>
<path d="M10.2777 3.39578H10.0208V3.65272H10.2777V3.39578Z" fill="#3A3A3A"/>
<path d="M10.5347 3.39578H10.2777V3.65272H10.5347V3.39578Z" fill="#3A3A3A"/>
<path d="M10.7917 3.39578H10.5347V3.65272H10.7917V3.39578Z" fill="#3A3A3A"/>
<path d="M11.0486 3.39578H10.7917V3.65272H11.0486V3.39578Z" fill="#3A3A3A"/>
<path d="M11.3056 3.39578H11.0486V3.65272H11.3056V3.39578Z" fill="#3A3A3A"/>
<path d="M11.5625 3.39578H11.3056V3.65272H11.5625V3.39578Z" fill="#3A3A3A"/>
<path d="M11.8194 3.39578H11.5625V3.65272H11.8194V3.39578Z" fill="#3A3A3A"/>
<path d="M12.0764 3.39578H11.8194V3.65272H12.0764V3.39578Z" fill="#3A3A3A"/>
<path d="M12.3333 3.39578H12.0764V3.65272H12.3333V3.39578Z" fill="#3A3A3A"/>
<path d="M12.5902 3.39578H12.3333V3.65272H12.5902V3.39578Z" fill="#3A3A3A"/>
<path d="M12.8472 3.39578H12.5902V3.65272H12.8472V3.39578Z" fill="#3A3A3A"/>
<path d="M7.96525 3.65272H7.70831V3.90966H7.96525V3.65272Z" fill="#3A3A3A"/>
<path d="M8.22224 3.65272H7.96525V3.90966H8.22224V3.65272Z" fill="#3A3A3A"/>
<path d="M8.47918 3.65272H8.22224V3.90966H8.47918V3.65272Z" fill="#3A3A3A"/>
<path d="M8.73612 3.65272H8.47918V3.90966H8.73612V3.65272Z" fill="#3A3A3A"/>
<path d="M8.99306 3.65272H8.73612V3.90966H8.99306V3.65272Z" fill="#3A3A3A"/>
<path d="M9.25 3.65272H8.99306V3.90966H9.25V3.65272Z" fill="#3A3A3A"/>
<path d="M9.50693 3.65272H9.25V3.90966H9.50693V3.65272Z" fill="#3A3A3A"/>
<path d="M9.76387 3.65272H9.50693V3.90966H9.76387V3.65272Z" fill="#3A3A3A"/>
<path d="M10.0208 3.65272H9.76387V3.90966H10.0208V3.65272Z" fill="#3A3A3A"/>
<path d="M10.2777 3.65272H10.0208V3.90966H10.2777V3.65272Z" fill="#3A3A3A"/>
<path d="M10.5347 3.65272H10.2777V3.90966H10.5347V3.65272Z" fill="#3A3A3A"/>
<path d="M10.7917 3.65272H10.5347V3.90966H10.7917V3.65272Z" fill="#3A3A3A"/>
<path d="M11.0486 3.65272H10.7917V3.90966H11.0486V3.65272Z" fill="#3A3A3A"/>
<path d="M11.3056 3.65272H11.0486V3.90966H11.3056V3.65272Z" fill="#3A3A3A"/>
<path d="M11.5625 3.65272H11.3056V3.90966H11.5625V3.65272Z" fill="#3A3A3A"/>
<path d="M11.8194 3.65272H11.5625V3.90966H11.8194V3.65272Z" fill="#3A3A3A"/>
<path d="M12.0764 3.65272H11.8194V3.90966H12.0764V3.65272Z" fill="#3A3A3A"/>
<path d="M12.3333 3.65272H12.0764V3.90966H12.3333V3.65272Z" fill="#3A3A3A"/>
<path d="M12.5902 3.65272H12.3333V3.90966H12.5902V3.65272Z" fill="#3A3A3A"/>
<path d="M12.8472 3.65272H12.5902V3.90966H12.8472V3.65272Z" fill="#3A3A3A"/>
<path d="M7.96525 3.90966H7.70831V4.16659H7.96525V3.90966Z" fill="#3A3A3A"/>
<path d="M8.22224 3.90966H7.96525V4.16659H8.22224V3.90966Z" fill="#3A3A3A"/>
<path d="M8.47918 3.90966H8.22224V4.16659H8.47918V3.90966Z" fill="#3A3A3A"/>
<path d="M8.73612 3.90966H8.47918V4.16659H8.73612V3.90966Z" fill="#3A3A3A"/>
<path d="M8.99306 3.90966H8.73612V4.16659H8.99306V3.90966Z" fill="#3A3A3A"/>
<path d="M9.25 3.90966H8.99306V4.16659H9.25V3.90966Z" fill="#3A3A3A"/>
<path d="M9.50693 3.90966H9.25V4.16659H9.50693V3.90966Z" fill="#3A3A3A"/>
<path d="M9.76387 3.90966H9.50693V4.16659H9.76387V3.90966Z" fill="#3A3A3A"/>
<path d="M10.0208 3.90966H9.76387V4.16659H10.0208V3.90966Z" fill="#3A3A3A"/>
<path d="M10.2777 3.90966H10.0208V4.16659H10.2777V3.90966Z" fill="#3A3A3A"/>
<path d="M10.5347 3.90966H10.2777V4.16659H10.5347V3.90966Z" fill="#3A3A3A"/>
<path d="M10.7917 3.90966H10.5347V4.16659H10.7917V3.90966Z" fill="#3A3A3A"/>
<path d="M11.0486 3.90966H10.7917V4.16659H11.0486V3.90966Z" fill="#3A3A3A"/>
<path d="M11.3056 3.90966H11.0486V4.16659H11.3056V3.90966Z" fill="#3A3A3A"/>
<path d="M11.5625 3.90966H11.3056V4.16659H11.5625V3.90966Z" fill="#3A3A3A"/>
<path d="M11.8194 3.90966H11.5625V4.16659H11.8194V3.90966Z" fill="#3A3A3A"/>
<path d="M12.0764 3.90966H11.8194V4.16659H12.0764V3.90966Z" fill="#3A3A3A"/>
<path d="M12.3333 3.90966H12.0764V4.16659H12.3333V3.90966Z" fill="#3A3A3A"/>
<path d="M12.5902 3.90966H12.3333V4.16659H12.5902V3.90966Z" fill="#3A3A3A"/>
<path d="M12.8472 3.90966H12.5902V4.16659H12.8472V3.90966Z" fill="#3A3A3A"/>
<path d="M7.96525 4.16659H7.70831V4.42353H7.96525V4.16659Z" fill="#3A3A3A"/>
<path d="M8.22224 4.16659H7.96525V4.42353H8.22224V4.16659Z" fill="#3A3A3A"/>
<path d="M8.47918 4.16659H8.22224V4.42353H8.47918V4.16659Z" fill="#3A3A3A"/>
<path d="M8.73612 4.16659H8.47918V4.42353H8.73612V4.16659Z" fill="#3A3A3A"/>
<path d="M8.99306 4.16659H8.73612V4.42353H8.99306V4.16659Z" fill="#3A3A3A"/>
<path d="M9.25 4.16659H8.99306V4.42353H9.25V4.16659Z" fill="#3A3A3A"/>
<path d="M9.50693 4.16659H9.25V4.42353H9.50693V4.16659Z" fill="#3A3A3A"/>
<path d="M9.76387 4.16659H9.50693V4.42353H9.76387V4.16659Z" fill="#3A3A3A"/>
<path d="M10.0208 4.16659H9.76387V4.42353H10.0208V4.16659Z" fill="#3A3A3A"/>
<path d="M10.2777 4.16659H10.0208V4.42353H10.2777V4.16659Z" fill="#3A3A3A"/>
<path d="M10.5347 4.16659H10.2777V4.42353H10.5347V4.16659Z" fill="#3A3A3A"/>
<path d="M10.7917 4.16659H10.5347V4.42353H10.7917V4.16659Z" fill="#3A3A3A"/>
<path d="M11.0486 4.16659H10.7917V4.42353H11.0486V4.16659Z" fill="#3A3A3A"/>
<path d="M11.3056 4.16659H11.0486V4.42353H11.3056V4.16659Z" fill="#3A3A3A"/>
<path d="M11.5625 4.16659H11.3056V4.42353H11.5625V4.16659Z" fill="#3A3A3A"/>
<path d="M11.8194 4.16659H11.5625V4.42353H11.8194V4.16659Z" fill="#3A3A3A"/>
<path d="M12.0764 4.16659H11.8194V4.42353H12.0764V4.16659Z" fill="#3A3A3A"/>
<path d="M12.3333 4.16659H12.0764V4.42353H12.3333V4.16659Z" fill="#3A3A3A"/>
<path d="M12.5902 4.16659H12.3333V4.42353H12.5902V4.16659Z" fill="#3A3A3A"/>
<path d="M12.8472 4.16659H12.5902V4.42353H12.8472V4.16659Z" fill="#3A3A3A"/>
<path d="M7.96525 4.42353H7.70831V4.68047H7.96525V4.42353Z" fill="#3A3A3A"/>
<path d="M8.22224 4.42353H7.96525V4.68047H8.22224V4.42353Z" fill="#3A3A3A"/>
<path d="M8.47918 4.42353H8.22224V4.68047H8.47918V4.42353Z" fill="#3A3A3A"/>
<path d="M8.73612 4.42353H8.47918V4.68047H8.73612V4.42353Z" fill="#3A3A3A"/>
<path d="M8.99306 4.42353H8.73612V4.68047H8.99306V4.42353Z" fill="#3A3A3A"/>
<path d="M9.25 4.42353H8.99306V4.68047H9.25V4.42353Z" fill="#3A3A3A"/>
<path d="M9.50693 4.42353H9.25V4.68047H9.50693V4.42353Z" fill="#3A3A3A"/>
<path d="M9.76387 4.42353H9.50693V4.68047H9.76387V4.42353Z" fill="#3A3A3A"/>
<path d="M10.0208 4.42353H9.76387V4.68047H10.0208V4.42353Z" fill="#3A3A3A"/>
<path d="M10.2777 4.42353H10.0208V4.68047H10.2777V4.42353Z" fill="#3A3A3A"/>
<path d="M10.5347 4.42353H10.2777V4.68047H10.5347V4.42353Z" fill="#3A3A3A"/>
<path d="M10.7917 4.42353H10.5347V4.68047H10.7917V4.42353Z" fill="#3A3A3A"/>
<path d="M11.0486 4.42353H10.7917V4.68047H11.0486V4.42353Z" fill="#3A3A3A"/>
<path d="M11.3056 4.42353H11.0486V4.68047H11.3056V4.42353Z" fill="#3A3A3A"/>
<path d="M11.5625 4.42353H11.3056V4.68047H11.5625V4.42353Z" fill="#3A3A3A"/>
<path d="M11.8194 4.42353H11.5625V4.68047H11.8194V4.42353Z" fill="#3A3A3A"/>
<path d="M12.0764 4.42353H11.8194V4.68047H12.0764V4.42353Z" fill="#3A3A3A"/>
<path d="M12.3333 4.42353H12.0764V4.68047H12.3333V4.42353Z" fill="#3A3A3A"/>
<path d="M12.5902 4.42353H12.3333V4.68047H12.5902V4.42353Z" fill="#3A3A3A"/>
<path d="M12.8472 4.42353H12.5902V4.68047H12.8472V4.42353Z" fill="#3A3A3A"/>
<path d="M7.96525 4.68047H7.70831V4.93741H7.96525V4.68047Z" fill="#3A3A3A"/>
<path d="M8.22224 4.68047H7.96525V4.93741H8.22224V4.68047Z" fill="#3A3A3A"/>
<path d="M8.47918 4.68047H8.22224V4.93741H8.47918V4.68047Z" fill="#3A3A3A"/>
<path d="M8.73612 4.68047H8.47918V4.93741H8.73612V4.68047Z" fill="#3A3A3A"/>
<path d="M8.99306 4.68047H8.73612V4.93741H8.99306V4.68047Z" fill="#3A3A3A"/>
<path d="M9.25 4.68047H8.99306V4.93741H9.25V4.68047Z" fill="#3A3A3A"/>
<path d="M9.50693 4.68047H9.25V4.93741H9.50693V4.68047Z" fill="#3A3A3A"/>
<path d="M9.76387 4.68047H9.50693V4.93741H9.76387V4.68047Z" fill="#3A3A3A"/>
<path d="M10.0208 4.68047H9.76387V4.93741H10.0208V4.68047Z" fill="#3A3A3A"/>
<path d="M10.2777 4.68047H10.0208V4.93741H10.2777V4.68047Z" fill="#3A3A3A"/>
<path d="M10.5347 4.68047H10.2777V4.93741H10.5347V4.68047Z" fill="#3A3A3A"/>
<path d="M10.7917 4.68047H10.5347V4.93741H10.7917V4.68047Z" fill="#3A3A3A"/>
<path d="M11.0486 4.68047H10.7917V4.93741H11.0486V4.68047Z" fill="#3A3A3A"/>
<path d="M11.3056 4.68047H11.0486V4.93741H11.3056V4.68047Z" fill="#3A3A3A"/>
<path d="M11.5625 4.68047H11.3056V4.93741H11.5625V4.68047Z" fill="#3A3A3A"/>
<path d="M11.8194 4.68047H11.5625V4.93741H11.8194V4.68047Z" fill="#3A3A3A"/>
<path d="M12.0764 4.68047H11.8194V4.93741H12.0764V4.68047Z" fill="#3A3A3A"/>
<path d="M12.3333 4.68047H12.0764V4.93741H12.3333V4.68047Z" fill="#3A3A3A"/>
<path d="M12.5902 4.68047H12.3333V4.93741H12.5902V4.68047Z" fill="#3A3A3A"/>
<path d="M12.8472 4.68047H12.5902V4.93741H12.8472V4.68047Z" fill="#3A3A3A"/>
<path d="M7.96525 4.93741H7.70831V5.19446H7.96525V4.93741Z" fill="#3A3A3A"/>
<path d="M8.22224 4.93741H7.96525V5.19446H8.22224V4.93741Z" fill="#3A3A3A"/>
<path d="M8.47918 4.93741H8.22224V5.19446H8.47918V4.93741Z" fill="#3A3A3A"/>
<path d="M8.73612 4.93741H8.47918V5.19446H8.73612V4.93741Z" fill="#3A3A3A"/>
<path d="M8.99306 4.93741H8.73612V5.19446H8.99306V4.93741Z" fill="#3A3A3A"/>
<path d="M9.25 4.93741H8.99306V5.19446H9.25V4.93741Z" fill="#3A3A3A"/>
<path d="M9.50693 4.93741H9.25V5.19446H9.50693V4.93741Z" fill="#3A3A3A"/>
<path d="M9.76387 4.93741H9.50693V5.19446H9.76387V4.93741Z" fill="#3A3A3A"/>
<path d="M10.0208 4.93741H9.76387V5.19446H10.0208V4.93741Z" fill="#3A3A3A"/>
<path d="M10.2777 4.93741H10.0208V5.19446H10.2777V4.93741Z" fill="#3A3A3A"/>
<path d="M10.5347 4.93741H10.2777V5.19446H10.5347V4.93741Z" fill="#3A3A3A"/>
<path d="M10.7917 4.93741H10.5347V5.19446H10.7917V4.93741Z" fill="#3A3A3A"/>
<path d="M11.0486 4.93741H10.7917V5.19446H11.0486V4.93741Z" fill="#3A3A3A"/>
<path d="M11.3056 4.93741H11.0486V5.19446H11.3056V4.93741Z" fill="#3A3A3A"/>
<path d="M11.5625 4.93741H11.3056V5.19446H11.5625V4.93741Z" fill="#3A3A3A"/>
<path d="M11.8194 4.93741H11.5625V5.19446H11.8194V4.93741Z" fill="#3A3A3A"/>
<path d="M12.0764 4.93741H11.8194V5.19446H12.0764V4.93741Z" fill="#3A3A3A"/>
<path d="M12.3333 4.93741H12.0764V5.19446H12.3333V4.93741Z" fill="#3A3A3A"/>
<path d="M12.5902 4.93741H12.3333V5.19446H12.5902V4.93741Z" fill="#3A3A3A"/>
<path d="M12.8472 4.93741H12.5902V5.19446H12.8472V4.93741Z" fill="#3A3A3A"/>
<path d="M7.96525 5.19446H7.70831V5.4514H7.96525V5.19446Z" fill="#3A3A3A"/>
<path d="M8.22224 5.19446H7.96525V5.4514H8.22224V5.19446Z" fill="#3A3A3A"/>
<path d="M8.47918 5.19446H8.22224V5.4514H8.47918V5.19446Z" fill="#3A3A3A"/>
<path d="M8.73612 5.19446H8.47918V5.4514H8.73612V5.19446Z" fill="#3A3A3A"/>
<path d="M8.99306 5.19446H8.73612V5.4514H8.99306V5.19446Z" fill="#3A3A3A"/>
<path d="M9.25 5.19446H8.99306V5.4514H9.25V5.19446Z" fill="#3A3A3A"/>
<path d="M9.50693 5.19446H9.25V5.4514H9.50693V5.19446Z" fill="#3A3A3A"/>
<path d="M9.76387 5.19446H9.50693V5.4514H9.76387V5.19446Z" fill="#3A3A3A"/>
<path d="M10.0208 5.19446H9.76387V5.4514H10.0208V5.19446Z" fill="#3A3A3A"/>
<path d="M10.2777 5.19446H10.0208V5.4514H10.2777V5.19446Z" fill="#3A3A3A"/>
<path d="M10.5347 5.19446H10.2777V5.4514H10.5347V5.19446Z" fill="#3A3A3A"/>
<path d="M10.7917 5.19446H10.5347V5.4514H10.7917V5.19446Z" fill="#3A3A3A"/>
<path d="M11.0486 5.19446H10.7917V5.4514H11.0486V5.19446Z" fill="#3A3A3A"/>
<path d="M11.3056 5.19446H11.0486V5.4514H11.3056V5.19446Z" fill="#3A3A3A"/>
<path d="M11.5625 5.19446H11.3056V5.4514H11.5625V5.19446Z" fill="#3A3A3A"/>
<path d="M11.8194 5.19446H11.5625V5.4514H11.8194V5.19446Z" fill="#3A3A3A"/>
<path d="M12.0764 5.19446H11.8194V5.4514H12.0764V5.19446Z" fill="#3A3A3A"/>
<path d="M12.3333 5.19446H12.0764V5.4514H12.3333V5.19446Z" fill="#3A3A3A"/>
<path d="M12.5902 5.19446H12.3333V5.4514H12.5902V5.19446Z" fill="#3A3A3A"/>
<path d="M12.8472 5.19446H12.5902V5.4514H12.8472V5.19446Z" fill="#3A3A3A"/>
<path d="M7.96525 5.4514H7.70831V5.70833H7.96525V5.4514Z" fill="#3A3A3A"/>
<path d="M8.22224 5.4514H7.96525V5.70833H8.22224V5.4514Z" fill="#3A3A3A"/>
<path d="M8.47918 5.4514H8.22224V5.70833H8.47918V5.4514Z" fill="#3A3A3A"/>
<path d="M8.73612 5.4514H8.47918V5.70833H8.73612V5.4514Z" fill="#3A3A3A"/>
<path d="M8.99306 5.4514H8.73612V5.70833H8.99306V5.4514Z" fill="#3A3A3A"/>
<path d="M9.25 5.4514H8.99306V5.70833H9.25V5.4514Z" fill="#3A3A3A"/>
<path d="M9.50693 5.4514H9.25V5.70833H9.50693V5.4514Z" fill="#3A3A3A"/>
<path d="M9.76387 5.4514H9.50693V5.70833H9.76387V5.4514Z" fill="#3A3A3A"/>
<path d="M10.0208 5.4514H9.76387V5.70833H10.0208V5.4514Z" fill="#3A3A3A"/>
<path d="M10.2777 5.4514H10.0208V5.70833H10.2777V5.4514Z" fill="#3A3A3A"/>
<path d="M10.5347 5.4514H10.2777V5.70833H10.5347V5.4514Z" fill="#3A3A3A"/>
<path d="M10.7917 5.4514H10.5347V5.70833H10.7917V5.4514Z" fill="#3A3A3A"/>
<path d="M11.0486 5.4514H10.7917V5.70833H11.0486V5.4514Z" fill="#3A3A3A"/>
<path d="M11.3056 5.4514H11.0486V5.70833H11.3056V5.4514Z" fill="#3A3A3A"/>
<path d="M11.5625 5.4514H11.3056V5.70833H11.5625V5.4514Z" fill="#3A3A3A"/>
<path d="M11.8194 5.4514H11.5625V5.70833H11.8194V5.4514Z" fill="#3A3A3A"/>
<path d="M12.0764 5.4514H11.8194V5.70833H12.0764V5.4514Z" fill="#3A3A3A"/>
<path d="M12.3333 5.4514H12.0764V5.70833H12.3333V5.4514Z" fill="#3A3A3A"/>
<path d="M12.5902 5.4514H12.3333V5.70833H12.5902V5.4514Z" fill="#3A3A3A"/>
<path d="M12.8472 5.4514H12.5902V5.70833H12.8472V5.4514Z" fill="#3A3A3A"/>
<path d="M0.256944 5.70833H0V5.96527H0.256944V5.70833Z" fill="#3A3A3A"/>
<path d="M0.513882 5.70833H0.256944V5.96527H0.513882V5.70833Z" fill="#3A3A3A"/>
<path d="M0.77082 5.70833H0.513882V5.96527H0.77082V5.70833Z" fill="#3A3A3A"/>
<path d="M1.02776 5.70833H0.77082V5.96527H1.02776V5.70833Z" fill="#3A3A3A"/>
<path d="M1.2847 5.70833H1.02776V5.96527H1.2847V5.70833Z" fill="#3A3A3A"/>
<path d="M1.54169 5.70833H1.2847V5.96527H1.54169V5.70833Z" fill="#3A3A3A"/>
<path d="M1.79863 5.70833H1.54169V5.96527H1.79863V5.70833Z" fill="#3A3A3A"/>
<path d="M2.05557 5.70833H1.79863V5.96527H2.05557V5.70833Z" fill="#3A3A3A"/>
<path d="M2.3125 5.70833H2.05557V5.96527H2.3125V5.70833Z" fill="#3A3A3A"/>
<path d="M2.56944 5.70833H2.3125V5.96527H2.56944V5.70833Z" fill="#3A3A3A"/>
<path d="M2.82638 5.70833H2.56944V5.96527H2.82638V5.70833Z" fill="#3A3A3A"/>
<path d="M3.08332 5.70833H2.82638V5.96527H3.08332V5.70833Z" fill="#3A3A3A"/>
<path d="M3.34026 5.70833H3.08332V5.96527H3.34026V5.70833Z" fill="#3A3A3A"/>
<path d="M3.59719 5.70833H3.34026V5.96527H3.59719V5.70833Z" fill="#3A3A3A"/>
<path d="M3.85419 5.70833H3.59719V5.96527H3.85419V5.70833Z" fill="#3A3A3A"/>
<path d="M4.11112 5.70833H3.85419V5.96527H4.11112V5.70833Z" fill="#3A3A3A"/>
<path d="M4.36806 5.70833H4.11112V5.96527H4.36806V5.70833Z" fill="#3A3A3A"/>
<path d="M4.625 5.70833H4.36806V5.96527H4.625V5.70833Z" fill="#3A3A3A"/>
<path d="M4.88194 5.70833H4.625V5.96527H4.88194V5.70833Z" fill="#3A3A3A"/>
<path d="M5.13888 5.70833H4.88194V5.96527H5.13888V5.70833Z" fill="#3A3A3A"/>
<path d="M5.39581 5.70833H5.13888V5.96527H5.39581V5.70833Z" fill="#3A3A3A"/>
<path d="M5.65275 5.70833H5.39581V5.96527H5.65275V5.70833Z" fill="#3A3A3A"/>
<path d="M5.90975 5.70833H5.65275V5.96527H5.90975V5.70833Z" fill="#3A3A3A"/>
<path d="M6.16668 5.70833H5.90975V5.96527H6.16668V5.70833Z" fill="#3A3A3A"/>
<path d="M6.42362 5.70833H6.16668V5.96527H6.42362V5.70833Z" fill="#3A3A3A"/>
<path d="M6.68056 5.70833H6.42362V5.96527H6.68056V5.70833Z" fill="#3A3A3A"/>
<path d="M6.9375 5.70833H6.68056V5.96527H6.9375V5.70833Z" fill="#3A3A3A"/>
<path d="M7.19444 5.70833H6.9375V5.96527H7.19444V5.70833Z" fill="#3A3A3A"/>
<path d="M7.45137 5.70833H7.19444V5.96527H7.45137V5.70833Z" fill="#3A3A3A"/>
<path d="M7.70831 5.70833L7.45137 5.70833V5.96527H7.70831L7.70831 5.70833Z" fill="#3A3A3A"/>
<path d="M7.96525 5.70833H7.70831L7.70831 5.96527H7.96525V5.70833Z" fill="#3A3A3A"/>
<path d="M8.22224 5.70833H7.96525V5.96527H8.22224V5.70833Z" fill="#3A3A3A"/>
<path d="M8.47918 5.70833H8.22224V5.96527H8.47918V5.70833Z" fill="#3A3A3A"/>
<path d="M8.73612 5.70833H8.47918V5.96527H8.73612V5.70833Z" fill="#3A3A3A"/>
<path d="M8.99306 5.70833H8.73612V5.96527H8.99306V5.70833Z" fill="#3A3A3A"/>
<path d="M9.25 5.70833H8.99306V5.96527H9.25V5.70833Z" fill="#3A3A3A"/>
<path d="M9.50693 5.70833H9.25V5.96527H9.50693V5.70833Z" fill="#3A3A3A"/>
<path d="M9.76387 5.70833H9.50693V5.96527H9.76387V5.70833Z" fill="#3A3A3A"/>
<path d="M10.0208 5.70833H9.76387V5.96527H10.0208V5.70833Z" fill="#3A3A3A"/>
<path d="M10.2777 5.70833H10.0208V5.96527H10.2777V5.70833Z" fill="#3A3A3A"/>
<path d="M10.5347 5.70833H10.2777V5.96527H10.5347V5.70833Z" fill="#3A3A3A"/>
<path d="M10.7917 5.70833H10.5347V5.96527H10.7917V5.70833Z" fill="#3A3A3A"/>
<path d="M11.0486 5.70833H10.7917V5.96527H11.0486V5.70833Z" fill="#3A3A3A"/>
<path d="M11.3056 5.70833H11.0486V5.96527H11.3056V5.70833Z" fill="#3A3A3A"/>
<path d="M11.5625 5.70833H11.3056V5.96527H11.5625V5.70833Z" fill="#3A3A3A"/>
<path d="M11.8194 5.70833H11.5625V5.96527H11.8194V5.70833Z" fill="#3A3A3A"/>
<path d="M12.0764 5.70833H11.8194V5.96527H12.0764V5.70833Z" fill="#3A3A3A"/>
<path d="M12.3333 5.70833H12.0764V5.96527H12.3333V5.70833Z" fill="#3A3A3A"/>
<path d="M12.5902 5.70833H12.3333V5.96527H12.5902V5.70833Z" fill="#3A3A3A"/>
<path d="M12.8472 5.70833H12.5902V5.96527H12.8472V5.70833Z" fill="#3A3A3A"/>
<path d="M13.1042 5.70833L12.8472 5.70833V5.96527H13.1042V5.70833Z" fill="#3A3A3A"/>
<path d="M13.3611 5.70833H13.1042V5.96527H13.3611V5.70833Z" fill="#3A3A3A"/>
<path d="M13.6181 5.70833H13.3611V5.96527H13.6181V5.70833Z" fill="#3A3A3A"/>
<path d="M13.875 5.70833H13.6181V5.96527H13.875V5.70833Z" fill="#3A3A3A"/>
<path d="M14.1319 5.70833H13.875V5.96527H14.1319V5.70833Z" fill="#3A3A3A"/>
<path d="M14.3889 5.70833H14.1319V5.96527H14.3889V5.70833Z" fill="#3A3A3A"/>
<path d="M14.6458 5.70833H14.3889V5.96527H14.6458V5.70833Z" fill="#3A3A3A"/>
<path d="M14.9028 5.70833H14.6458V5.96527H14.9028V5.70833Z" fill="#3A3A3A"/>
<path d="M15.1597 5.70833H14.9028V5.96527H15.1597V5.70833Z" fill="#3A3A3A"/>
<path d="M15.4167 5.70833H15.1597V5.96527H15.4167V5.70833Z" fill="#3A3A3A"/>
<path d="M15.6736 5.70833H15.4167V5.96527H15.6736V5.70833Z" fill="#3A3A3A"/>
<path d="M15.9305 5.70833H15.6736V5.96527H15.9305V5.70833Z" fill="#3A3A3A"/>
<path d="M16.1875 5.70833H15.9305V5.96527H16.1875V5.70833Z" fill="#3A3A3A"/>
<path d="M16.4444 5.70833H16.1875V5.96527H16.4444V5.70833Z" fill="#3A3A3A"/>
<path d="M16.7014 5.70833H16.4444V5.96527H16.7014V5.70833Z" fill="#3A3A3A"/>
<path d="M16.9583 5.70833H16.7014V5.96527H16.9583V5.70833Z" fill="#3A3A3A"/>
<path d="M17.2153 5.70833H16.9583V5.96527H17.2153V5.70833Z" fill="#3A3A3A"/>
<path d="M17.4722 5.70833H17.2153V5.96527H17.4722V5.70833Z" fill="#3A3A3A"/>
<path d="M17.7292 5.70833H17.4722V5.96527H17.7292V5.70833Z" fill="#3A3A3A"/>
<path d="M17.9861 5.70833H17.7292V5.96527H17.9861V5.70833Z" fill="#3A3A3A"/>
<path d="M0.256944 5.96527H0V6.22221H0.256944V5.96527Z" fill="#3A3A3A"/>
<path d="M0.513882 5.96527H0.256944V6.22221H0.513882V5.96527Z" fill="#3A3A3A"/>
<path d="M0.77082 5.96527H0.513882V6.22221H0.77082V5.96527Z" fill="#3A3A3A"/>
<path d="M1.02776 5.96527H0.77082V6.22221H1.02776V5.96527Z" fill="#3A3A3A"/>
<path d="M1.2847 5.96527H1.02776V6.22221H1.2847V5.96527Z" fill="#3A3A3A"/>
<path d="M1.54169 5.96527H1.2847V6.22221H1.54169V5.96527Z" fill="#3A3A3A"/>
<path d="M1.79863 5.96527H1.54169V6.22221H1.79863V5.96527Z" fill="#3A3A3A"/>
<path d="M2.05557 5.96527H1.79863V6.22221H2.05557V5.96527Z" fill="#3A3A3A"/>
<path d="M2.3125 5.96527H2.05557V6.22221H2.3125V5.96527Z" fill="#3A3A3A"/>
<path d="M2.56944 5.96527H2.3125V6.22221H2.56944V5.96527Z" fill="#3A3A3A"/>
<path d="M2.82638 5.96527H2.56944V6.22221H2.82638V5.96527Z" fill="#3A3A3A"/>
<path d="M3.08332 5.96527H2.82638V6.22221H3.08332V5.96527Z" fill="#3A3A3A"/>
<path d="M3.34026 5.96527H3.08332V6.22221H3.34026V5.96527Z" fill="#3A3A3A"/>
<path d="M3.59719 5.96527H3.34026V6.22221H3.59719V5.96527Z" fill="#3A3A3A"/>
<path d="M3.85419 5.96527H3.59719V6.22221H3.85419V5.96527Z" fill="#3A3A3A"/>
<path d="M4.11112 5.96527H3.85419V6.22221H4.11112V5.96527Z" fill="#3A3A3A"/>
<path d="M4.36806 5.96527H4.11112V6.22221H4.36806V5.96527Z" fill="#3A3A3A"/>
<path d="M4.625 5.96527H4.36806V6.22221H4.625V5.96527Z" fill="#3A3A3A"/>
<path d="M4.88194 5.96527H4.625V6.22221H4.88194V5.96527Z" fill="#3A3A3A"/>
<path d="M5.13888 5.96527H4.88194V6.22221H5.13888V5.96527Z" fill="#3A3A3A"/>
<path d="M5.39581 5.96527H5.13888V6.22221H5.39581V5.96527Z" fill="#3A3A3A"/>
<path d="M5.65275 5.96527H5.39581V6.22221H5.65275V5.96527Z" fill="#3A3A3A"/>
<path d="M5.90975 5.96527H5.65275V6.22221H5.90975V5.96527Z" fill="#3A3A3A"/>
<path d="M6.16668 5.96527H5.90975V6.22221H6.16668V5.96527Z" fill="#3A3A3A"/>
<path d="M6.42362 5.96527H6.16668V6.22221H6.42362V5.96527Z" fill="#3A3A3A"/>
<path d="M6.68056 5.96527H6.42362V6.22221H6.68056V5.96527Z" fill="#3A3A3A"/>
<path d="M6.9375 5.96527H6.68056V6.22221H6.9375V5.96527Z" fill="#3A3A3A"/>
<path d="M7.19444 5.96527H6.9375V6.22221H7.19444V5.96527Z" fill="#3A3A3A"/>
<path d="M7.45137 5.96527H7.19444V6.22221H7.45137V5.96527Z" fill="#3A3A3A"/>
<path d="M7.70831 5.96527H7.45137V6.22221H7.70831V5.96527Z" fill="#3A3A3A"/>
<path d="M7.96525 5.96527H7.70831V6.22221H7.96525V5.96527Z" fill="#3A3A3A"/>
<path d="M8.22224 5.96527H7.96525V6.22221H8.22224V5.96527Z" fill="#3A3A3A"/>
<path d="M8.47918 5.96527H8.22224V6.22221H8.47918V5.96527Z" fill="#3A3A3A"/>
<path d="M8.73612 5.96527H8.47918V6.22221H8.73612V5.96527Z" fill="#3A3A3A"/>
<path d="M8.99306 5.96527H8.73612V6.22221H8.99306V5.96527Z" fill="#3A3A3A"/>
<path d="M9.25 5.96527H8.99306V6.22221H9.25V5.96527Z" fill="#3A3A3A"/>
<path d="M9.50693 5.96527H9.25V6.22221H9.50693V5.96527Z" fill="#3A3A3A"/>
<path d="M9.76387 5.96527H9.50693V6.22221H9.76387V5.96527Z" fill="#3A3A3A"/>
<path d="M10.0208 5.96527H9.76387V6.22221H10.0208V5.96527Z" fill="#3A3A3A"/>
<path d="M10.2777 5.96527H10.0208V6.22221H10.2777V5.96527Z" fill="#3A3A3A"/>
<path d="M10.5347 5.96527H10.2777V6.22221H10.5347V5.96527Z" fill="#3A3A3A"/>
<path d="M10.7917 5.96527H10.5347V6.22221H10.7917V5.96527Z" fill="#3A3A3A"/>
<path d="M11.0486 5.96527H10.7917V6.22221H11.0486V5.96527Z" fill="#3A3A3A"/>
<path d="M11.3056 5.96527H11.0486V6.22221H11.3056V5.96527Z" fill="#3A3A3A"/>
<path d="M11.5625 5.96527H11.3056V6.22221H11.5625V5.96527Z" fill="#3A3A3A"/>
<path d="M11.8194 5.96527H11.5625V6.22221H11.8194V5.96527Z" fill="#3A3A3A"/>
<path d="M12.0764 5.96527H11.8194V6.22221H12.0764V5.96527Z" fill="#3A3A3A"/>
<path d="M12.3333 5.96527H12.0764V6.22221H12.3333V5.96527Z" fill="#3A3A3A"/>
<path d="M12.5902 5.96527H12.3333V6.22221H12.5902V5.96527Z" fill="#3A3A3A"/>
<path d="M12.8472 5.96527H12.5902V6.22221H12.8472V5.96527Z" fill="#3A3A3A"/>
<path d="M13.1042 5.96527H12.8472V6.22221H13.1042V5.96527Z" fill="#3A3A3A"/>
<path d="M13.3611 5.96527H13.1042V6.22221H13.3611V5.96527Z" fill="#3A3A3A"/>
<path d="M13.6181 5.96527H13.3611V6.22221H13.6181V5.96527Z" fill="#3A3A3A"/>
<path d="M13.875 5.96527H13.6181V6.22221H13.875V5.96527Z" fill="#3A3A3A"/>
<path d="M14.1319 5.96527H13.875V6.22221H14.1319V5.96527Z" fill="#3A3A3A"/>
<path d="M14.3889 5.96527H14.1319V6.22221H14.3889V5.96527Z" fill="#3A3A3A"/>
<path d="M14.6458 5.96527H14.3889V6.22221H14.6458V5.96527Z" fill="#3A3A3A"/>
<path d="M14.9028 5.96527H14.6458V6.22221H14.9028V5.96527Z" fill="#3A3A3A"/>
<path d="M15.1597 5.96527H14.9028V6.22221H15.1597V5.96527Z" fill="#3A3A3A"/>
<path d="M15.4167 5.96527H15.1597V6.22221H15.4167V5.96527Z" fill="#3A3A3A"/>
<path d="M15.6736 5.96527H15.4167V6.22221H15.6736V5.96527Z" fill="#3A3A3A"/>
<path d="M15.9305 5.96527H15.6736V6.22221H15.9305V5.96527Z" fill="#3A3A3A"/>
<path d="M16.1875 5.96527H15.9305V6.22221H16.1875V5.96527Z" fill="#3A3A3A"/>
<path d="M16.4444 5.96527H16.1875V6.22221H16.4444V5.96527Z" fill="#3A3A3A"/>
<path d="M16.7014 5.96527H16.4444V6.22221H16.7014V5.96527Z" fill="#3A3A3A"/>
<path d="M16.9583 5.96527H16.7014V6.22221H16.9583V5.96527Z" fill="#3A3A3A"/>
<path d="M17.2153 5.96527H16.9583V6.22221H17.2153V5.96527Z" fill="#3A3A3A"/>
<path d="M17.4722 5.96527H17.2153V6.22221H17.4722V5.96527Z" fill="#3A3A3A"/>
<path d="M17.7292 5.96527H17.4722V6.22221H17.7292V5.96527Z" fill="#3A3A3A"/>
<path d="M17.9861 5.96527H17.7292V6.22221H17.9861V5.96527Z" fill="#3A3A3A"/>
<path d="M0.256944 6.22221H0V6.47915H0.256944V6.22221Z" fill="#3A3A3A"/>
<path d="M0.513882 6.22221H0.256944V6.47915H0.513882V6.22221Z" fill="#3A3A3A"/>
<path d="M0.77082 6.22221H0.513882V6.47915H0.77082V6.22221Z" fill="#3A3A3A"/>
<path d="M1.02776 6.22221H0.77082V6.47915H1.02776V6.22221Z" fill="#3A3A3A"/>
<path d="M1.2847 6.22221H1.02776V6.47915H1.2847V6.22221Z" fill="#3A3A3A"/>
<path d="M1.54169 6.22221H1.2847V6.47915H1.54169V6.22221Z" fill="#3A3A3A"/>
<path d="M1.79863 6.22221H1.54169V6.47915H1.79863V6.22221Z" fill="#3A3A3A"/>
<path d="M2.05557 6.22221H1.79863V6.47915H2.05557V6.22221Z" fill="#3A3A3A"/>
<path d="M2.3125 6.22221H2.05557V6.47915H2.3125V6.22221Z" fill="#3A3A3A"/>
<path d="M2.56944 6.22221H2.3125V6.47915H2.56944V6.22221Z" fill="#3A3A3A"/>
<path d="M2.82638 6.22221H2.56944V6.47915H2.82638V6.22221Z" fill="#3A3A3A"/>
<path d="M3.08332 6.22221H2.82638V6.47915H3.08332V6.22221Z" fill="#3A3A3A"/>
<path d="M3.34026 6.22221H3.08332V6.47915H3.34026V6.22221Z" fill="#3A3A3A"/>
<path d="M3.59719 6.22221H3.34026V6.47915H3.59719V6.22221Z" fill="#3A3A3A"/>
<path d="M3.85419 6.22221H3.59719V6.47915H3.85419V6.22221Z" fill="#3A3A3A"/>
<path d="M4.11112 6.22221H3.85419V6.47915H4.11112V6.22221Z" fill="#3A3A3A"/>
<path d="M4.36806 6.22221H4.11112V6.47915H4.36806V6.22221Z" fill="#3A3A3A"/>
<path d="M4.625 6.22221H4.36806V6.47915H4.625V6.22221Z" fill="#3A3A3A"/>
<path d="M4.88194 6.22221H4.625V6.47915H4.88194V6.22221Z" fill="#3A3A3A"/>
<path d="M5.13888 6.22221H4.88194V6.47915H5.13888V6.22221Z" fill="#3A3A3A"/>
<path d="M5.39581 6.22221H5.13888V6.47915H5.39581V6.22221Z" fill="#3A3A3A"/>
<path d="M5.65275 6.22221H5.39581V6.47915H5.65275V6.22221Z" fill="#3A3A3A"/>
<path d="M5.90975 6.22221H5.65275V6.47915H5.90975V6.22221Z" fill="#3A3A3A"/>
<path d="M6.16668 6.22221H5.90975V6.47915H6.16668V6.22221Z" fill="#3A3A3A"/>
<path d="M6.42362 6.22221H6.16668V6.47915H6.42362V6.22221Z" fill="#3A3A3A"/>
<path d="M6.68056 6.22221H6.42362V6.47915H6.68056V6.22221Z" fill="#3A3A3A"/>
<path d="M6.9375 6.22221H6.68056V6.47915H6.9375V6.22221Z" fill="#3A3A3A"/>
<path d="M7.19444 6.22221H6.9375V6.47915H7.19444V6.22221Z" fill="#3A3A3A"/>
<path d="M7.45137 6.22221H7.19444V6.47915H7.45137V6.22221Z" fill="#3A3A3A"/>
<path d="M7.70831 6.22221H7.45137V6.47915H7.70831V6.22221Z" fill="#3A3A3A"/>
<path d="M7.96525 6.22221H7.70831V6.47915H7.96525V6.22221Z" fill="#3A3A3A"/>
<path d="M8.22224 6.22221H7.96525V6.47915H8.22224V6.22221Z" fill="#3A3A3A"/>
<path d="M8.47918 6.22221H8.22224V6.47915H8.47918V6.22221Z" fill="#3A3A3A"/>
<path d="M8.73612 6.22221H8.47918V6.47915H8.73612V6.22221Z" fill="#3A3A3A"/>
<path d="M8.99306 6.22221H8.73612V6.47915H8.99306V6.22221Z" fill="#3A3A3A"/>
<path d="M9.25 6.22221H8.99306V6.47915H9.25V6.22221Z" fill="#3A3A3A"/>
<path d="M9.50693 6.22221H9.25V6.47915H9.50693V6.22221Z" fill="#3A3A3A"/>
<path d="M9.76387 6.22221H9.50693V6.47915H9.76387V6.22221Z" fill="#3A3A3A"/>
<path d="M10.0208 6.22221H9.76387V6.47915H10.0208V6.22221Z" fill="#3A3A3A"/>
<path d="M10.2777 6.22221H10.0208V6.47915H10.2777V6.22221Z" fill="#3A3A3A"/>
<path d="M10.5347 6.22221H10.2777V6.47915H10.5347V6.22221Z" fill="#3A3A3A"/>
<path d="M10.7917 6.22221H10.5347V6.47915H10.7917V6.22221Z" fill="#3A3A3A"/>
<path d="M11.0486 6.22221H10.7917V6.47915H11.0486V6.22221Z" fill="#3A3A3A"/>
<path d="M11.3056 6.22221H11.0486V6.47915H11.3056V6.22221Z" fill="#3A3A3A"/>
<path d="M11.5625 6.22221H11.3056V6.47915H11.5625V6.22221Z" fill="#3A3A3A"/>
<path d="M11.8194 6.22221H11.5625V6.47915H11.8194V6.22221Z" fill="#3A3A3A"/>
<path d="M12.0764 6.22221H11.8194V6.47915H12.0764V6.22221Z" fill="#3A3A3A"/>
<path d="M12.3333 6.22221H12.0764V6.47915H12.3333V6.22221Z" fill="#3A3A3A"/>
<path d="M12.5902 6.22221H12.3333V6.47915H12.5902V6.22221Z" fill="#3A3A3A"/>
<path d="M12.8472 6.22221H12.5902V6.47915H12.8472V6.22221Z" fill="#3A3A3A"/>
<path d="M13.1042 6.22221H12.8472V6.47915H13.1042V6.22221Z" fill="#3A3A3A"/>
<path d="M13.3611 6.22221H13.1042V6.47915H13.3611V6.22221Z" fill="#3A3A3A"/>
<path d="M13.6181 6.22221H13.3611V6.47915H13.6181V6.22221Z" fill="#3A3A3A"/>
<path d="M13.875 6.22221H13.6181V6.47915H13.875V6.22221Z" fill="#3A3A3A"/>
<path d="M14.1319 6.22221H13.875V6.47915H14.1319V6.22221Z" fill="#3A3A3A"/>
<path d="M14.3889 6.22221H14.1319V6.47915H14.3889V6.22221Z" fill="#3A3A3A"/>
<path d="M14.6458 6.22221H14.3889V6.47915H14.6458V6.22221Z" fill="#3A3A3A"/>
<path d="M14.9028 6.22221H14.6458V6.47915H14.9028V6.22221Z" fill="#3A3A3A"/>
<path d="M15.1597 6.22221H14.9028V6.47915H15.1597V6.22221Z" fill="#3A3A3A"/>
<path d="M15.4167 6.22221H15.1597V6.47915H15.4167V6.22221Z" fill="#3A3A3A"/>
<path d="M15.6736 6.22221H15.4167V6.47915H15.6736V6.22221Z" fill="#3A3A3A"/>
<path d="M15.9305 6.22221H15.6736V6.47915H15.9305V6.22221Z" fill="#3A3A3A"/>
<path d="M16.1875 6.22221H15.9305V6.47915H16.1875V6.22221Z" fill="#3A3A3A"/>
<path d="M16.4444 6.22221H16.1875V6.47915H16.4444V6.22221Z" fill="#3A3A3A"/>
<path d="M16.7014 6.22221H16.4444V6.47915H16.7014V6.22221Z" fill="#3A3A3A"/>
<path d="M16.9583 6.22221H16.7014V6.47915H16.9583V6.22221Z" fill="#3A3A3A"/>
<path d="M17.2153 6.22221H16.9583V6.47915H17.2153V6.22221Z" fill="#3A3A3A"/>
<path d="M17.4722 6.22221H17.2153V6.47915H17.4722V6.22221Z" fill="#3A3A3A"/>
<path d="M17.7292 6.22221H17.4722V6.47915H17.7292V6.22221Z" fill="#3A3A3A"/>
<path d="M17.9861 6.22221H17.7292V6.47915H17.9861V6.22221Z" fill="#3A3A3A"/>
<path d="M0.256944 6.47915H0V6.73609H0.256944V6.47915Z" fill="#3A3A3A"/>
<path d="M0.513882 6.47915H0.256944V6.73609H0.513882V6.47915Z" fill="#3A3A3A"/>
<path d="M0.77082 6.47915H0.513882V6.73609H0.77082V6.47915Z" fill="#3A3A3A"/>
<path d="M1.02776 6.47915H0.77082V6.73609H1.02776V6.47915Z" fill="#3A3A3A"/>
<path d="M1.2847 6.47915H1.02776V6.73609H1.2847V6.47915Z" fill="#3A3A3A"/>
<path d="M1.54169 6.47915H1.2847V6.73609H1.54169V6.47915Z" fill="#3A3A3A"/>
<path d="M1.79863 6.47915H1.54169V6.73609H1.79863V6.47915Z" fill="#3A3A3A"/>
<path d="M2.05557 6.47915H1.79863V6.73609H2.05557V6.47915Z" fill="#3A3A3A"/>
<path d="M2.3125 6.47915H2.05557V6.73609H2.3125V6.47915Z" fill="#3A3A3A"/>
<path d="M2.56944 6.47915H2.3125V6.73609H2.56944V6.47915Z" fill="#3A3A3A"/>
<path d="M2.82638 6.47915H2.56944V6.73609H2.82638V6.47915Z" fill="#3A3A3A"/>
<path d="M3.08332 6.47915H2.82638V6.73609H3.08332V6.47915Z" fill="#3A3A3A"/>
<path d="M3.34026 6.47915H3.08332V6.73609H3.34026V6.47915Z" fill="#3A3A3A"/>
<path d="M3.59719 6.47915H3.34026V6.73609H3.59719V6.47915Z" fill="#3A3A3A"/>
<path d="M3.85419 6.47915H3.59719V6.73609H3.85419V6.47915Z" fill="#3A3A3A"/>
<path d="M4.11112 6.47915H3.85419V6.73609H4.11112V6.47915Z" fill="#3A3A3A"/>
<path d="M4.36806 6.47915H4.11112V6.73609H4.36806V6.47915Z" fill="#3A3A3A"/>
<path d="M4.625 6.47915H4.36806V6.73609H4.625V6.47915Z" fill="#3A3A3A"/>
<path d="M4.88194 6.47915H4.625V6.73609H4.88194V6.47915Z" fill="#3A3A3A"/>
<path d="M5.13888 6.47915H4.88194V6.73609H5.13888V6.47915Z" fill="#3A3A3A"/>
<path d="M5.39581 6.47915H5.13888V6.73609H5.39581V6.47915Z" fill="#3A3A3A"/>
<path d="M5.65275 6.47915H5.39581V6.73609H5.65275V6.47915Z" fill="#3A3A3A"/>
<path d="M5.90975 6.47915H5.65275V6.73609H5.90975V6.47915Z" fill="#3A3A3A"/>
<path d="M6.16668 6.47915H5.90975V6.73609H6.16668V6.47915Z" fill="#3A3A3A"/>
<path d="M6.42362 6.47915H6.16668V6.73609H6.42362V6.47915Z" fill="#3A3A3A"/>
<path d="M6.68056 6.47915H6.42362V6.73609H6.68056V6.47915Z" fill="#3A3A3A"/>
<path d="M6.9375 6.47915H6.68056V6.73609H6.9375V6.47915Z" fill="#3A3A3A"/>
<path d="M7.19444 6.47915H6.9375V6.73609H7.19444V6.47915Z" fill="#3A3A3A"/>
<path d="M7.45137 6.47915H7.19444V6.73609H7.45137V6.47915Z" fill="#3A3A3A"/>
<path d="M7.70831 6.47915H7.45137V6.73609H7.70831V6.47915Z" fill="#3A3A3A"/>
<path d="M7.96525 6.47915H7.70831V6.73609H7.96525V6.47915Z" fill="#3A3A3A"/>
<path d="M8.22224 6.47915H7.96525V6.73609H8.22224V6.47915Z" fill="#3A3A3A"/>
<path d="M8.47918 6.47915H8.22224V6.73609H8.47918V6.47915Z" fill="#3A3A3A"/>
<path d="M8.73612 6.47915H8.47918V6.73609H8.73612V6.47915Z" fill="#3A3A3A"/>
<path d="M8.99306 6.47915H8.73612V6.73609H8.99306V6.47915Z" fill="#3A3A3A"/>
<path d="M9.25 6.47915H8.99306V6.73609H9.25V6.47915Z" fill="#3A3A3A"/>
<path d="M9.50693 6.47915H9.25V6.73609H9.50693V6.47915Z" fill="#3A3A3A"/>
<path d="M9.76387 6.47915H9.50693V6.73609H9.76387V6.47915Z" fill="#3A3A3A"/>
<path d="M10.0208 6.47915H9.76387V6.73609H10.0208V6.47915Z" fill="#3A3A3A"/>
<path d="M10.2777 6.47915H10.0208V6.73609H10.2777V6.47915Z" fill="#3A3A3A"/>
<path d="M10.5347 6.47915H10.2777V6.73609H10.5347V6.47915Z" fill="#3A3A3A"/>
<path d="M10.7917 6.47915H10.5347V6.73609H10.7917V6.47915Z" fill="#3A3A3A"/>
<path d="M11.0486 6.47915H10.7917V6.73609H11.0486V6.47915Z" fill="#3A3A3A"/>
<path d="M11.3056 6.47915H11.0486V6.73609H11.3056V6.47915Z" fill="#3A3A3A"/>
<path d="M11.5625 6.47915H11.3056V6.73609H11.5625V6.47915Z" fill="#3A3A3A"/>
<path d="M11.8194 6.47915H11.5625V6.73609H11.8194V6.47915Z" fill="#3A3A3A"/>
<path d="M12.0764 6.47915H11.8194V6.73609H12.0764V6.47915Z" fill="#3A3A3A"/>
<path d="M12.3333 6.47915H12.0764V6.73609H12.3333V6.47915Z" fill="#3A3A3A"/>
<path d="M12.5902 6.47915H12.3333V6.73609H12.5902V6.47915Z" fill="#3A3A3A"/>
<path d="M12.8472 6.47915H12.5902V6.73609H12.8472V6.47915Z" fill="#3A3A3A"/>
<path d="M13.1042 6.47915H12.8472V6.73609H13.1042V6.47915Z" fill="#3A3A3A"/>
<path d="M13.3611 6.47915H13.1042V6.73609H13.3611V6.47915Z" fill="#3A3A3A"/>
<path d="M13.6181 6.47915H13.3611V6.73609H13.6181V6.47915Z" fill="#3A3A3A"/>
<path d="M13.875 6.47915H13.6181V6.73609H13.875V6.47915Z" fill="#3A3A3A"/>
<path d="M14.1319 6.47915H13.875V6.73609H14.1319V6.47915Z" fill="#3A3A3A"/>
<path d="M14.3889 6.47915H14.1319V6.73609H14.3889V6.47915Z" fill="#3A3A3A"/>
<path d="M14.6458 6.47915H14.3889V6.73609H14.6458V6.47915Z" fill="#3A3A3A"/>
<path d="M14.9028 6.47915H14.6458V6.73609H14.9028V6.47915Z" fill="#3A3A3A"/>
<path d="M15.1597 6.47915H14.9028V6.73609H15.1597V6.47915Z" fill="#3A3A3A"/>
<path d="M15.4167 6.47915H15.1597V6.73609H15.4167V6.47915Z" fill="#3A3A3A"/>
<path d="M15.6736 6.47915H15.4167V6.73609H15.6736V6.47915Z" fill="#3A3A3A"/>
<path d="M15.9305 6.47915H15.6736V6.73609H15.9305V6.47915Z" fill="#3A3A3A"/>
<path d="M16.1875 6.47915H15.9305V6.73609H16.1875V6.47915Z" fill="#3A3A3A"/>
<path d="M16.4444 6.47915H16.1875V6.73609H16.4444V6.47915Z" fill="#3A3A3A"/>
<path d="M16.7014 6.47915H16.4444V6.73609H16.7014V6.47915Z" fill="#3A3A3A"/>
<path d="M16.9583 6.47915H16.7014V6.73609H16.9583V6.47915Z" fill="#3A3A3A"/>
<path d="M17.2153 6.47915H16.9583V6.73609H17.2153V6.47915Z" fill="#3A3A3A"/>
<path d="M17.4722 6.47915H17.2153V6.73609H17.4722V6.47915Z" fill="#3A3A3A"/>
<path d="M17.7292 6.47915H17.4722V6.73609H17.7292V6.47915Z" fill="#3A3A3A"/>
<path d="M17.9861 6.47915H17.7292V6.73609H17.9861V6.47915Z" fill="#3A3A3A"/>
<path d="M0.256944 6.73609H0V6.99302H0.256944V6.73609Z" fill="#3A3A3A"/>
<path d="M0.513882 6.73609H0.256944V6.99302H0.513882V6.73609Z" fill="#3A3A3A"/>
<path d="M0.77082 6.73609H0.513882V6.99302H0.77082V6.73609Z" fill="#3A3A3A"/>
<path d="M1.02776 6.73609H0.77082V6.99302H1.02776V6.73609Z" fill="#3A3A3A"/>
<path d="M1.2847 6.73609H1.02776V6.99302H1.2847V6.73609Z" fill="#3A3A3A"/>
<path d="M1.54169 6.73609H1.2847V6.99302H1.54169V6.73609Z" fill="#3A3A3A"/>
<path d="M1.79863 6.73609H1.54169V6.99302H1.79863V6.73609Z" fill="#3A3A3A"/>
<path d="M2.05557 6.73609H1.79863V6.99302H2.05557V6.73609Z" fill="#3A3A3A"/>
<path d="M2.3125 6.73609H2.05557V6.99302H2.3125V6.73609Z" fill="#3A3A3A"/>
<path d="M2.56944 6.73609H2.3125V6.99302H2.56944V6.73609Z" fill="#3A3A3A"/>
<path d="M2.82638 6.73609H2.56944V6.99302H2.82638V6.73609Z" fill="#3A3A3A"/>
<path d="M3.08332 6.73609H2.82638V6.99302H3.08332V6.73609Z" fill="#3A3A3A"/>
<path d="M3.34026 6.73609H3.08332V6.99302H3.34026V6.73609Z" fill="#3A3A3A"/>
<path d="M3.59719 6.73609H3.34026V6.99302H3.59719V6.73609Z" fill="#3A3A3A"/>
<path d="M3.85419 6.73609H3.59719V6.99302H3.85419V6.73609Z" fill="#3A3A3A"/>
<path d="M4.11112 6.73609H3.85419V6.99302H4.11112V6.73609Z" fill="#3A3A3A"/>
<path d="M4.36806 6.73609H4.11112V6.99302H4.36806V6.73609Z" fill="#3A3A3A"/>
<path d="M4.625 6.73609H4.36806V6.99302H4.625V6.73609Z" fill="#3A3A3A"/>
<path d="M4.88194 6.73609H4.625V6.99302H4.88194V6.73609Z" fill="#3A3A3A"/>
<path d="M5.13888 6.73609H4.88194V6.99302H5.13888V6.73609Z" fill="#3A3A3A"/>
<path d="M5.39581 6.73609H5.13888V6.99302H5.39581V6.73609Z" fill="#3A3A3A"/>
<path d="M5.65275 6.73609H5.39581V6.99302H5.65275V6.73609Z" fill="#3A3A3A"/>
<path d="M5.90975 6.73609H5.65275V6.99302H5.90975V6.73609Z" fill="#3A3A3A"/>
<path d="M6.16668 6.73609H5.90975V6.99302H6.16668V6.73609Z" fill="#3A3A3A"/>
<path d="M6.42362 6.73609H6.16668V6.99302H6.42362V6.73609Z" fill="#3A3A3A"/>
<path d="M6.68056 6.73609H6.42362V6.99302H6.68056V6.73609Z" fill="#3A3A3A"/>
<path d="M6.9375 6.73609H6.68056V6.99302H6.9375V6.73609Z" fill="#3A3A3A"/>
<path d="M7.19444 6.73609H6.9375V6.99302H7.19444V6.73609Z" fill="#3A3A3A"/>
<path d="M7.45137 6.73609H7.19444V6.99302H7.45137V6.73609Z" fill="#3A3A3A"/>
<path d="M7.70831 6.73609H7.45137V6.99302H7.70831V6.73609Z" fill="#3A3A3A"/>
<path d="M7.96525 6.73609H7.70831V6.99302H7.96525V6.73609Z" fill="#3A3A3A"/>
<path d="M8.22224 6.73609H7.96525V6.99302H8.22224V6.73609Z" fill="#3A3A3A"/>
<path d="M8.47918 6.73609H8.22224V6.99302H8.47918V6.73609Z" fill="#3A3A3A"/>
<path d="M8.73612 6.73609H8.47918V6.99302H8.73612V6.73609Z" fill="#3A3A3A"/>
<path d="M8.99306 6.73609H8.73612V6.99302H8.99306V6.73609Z" fill="#3A3A3A"/>
<path d="M9.25 6.73609H8.99306V6.99302H9.25V6.73609Z" fill="#3A3A3A"/>
<path d="M9.50693 6.73609H9.25V6.99302H9.50693V6.73609Z" fill="#3A3A3A"/>
<path d="M9.76387 6.73609H9.50693V6.99302H9.76387V6.73609Z" fill="#3A3A3A"/>
<path d="M10.0208 6.73609H9.76387V6.99302H10.0208V6.73609Z" fill="#3A3A3A"/>
<path d="M10.2777 6.73609H10.0208V6.99302H10.2777V6.73609Z" fill="#3A3A3A"/>
<path d="M10.5347 6.73609H10.2777V6.99302H10.5347V6.73609Z" fill="#3A3A3A"/>
<path d="M10.7917 6.73609H10.5347V6.99302H10.7917V6.73609Z" fill="#3A3A3A"/>
<path d="M11.0486 6.73609H10.7917V6.99302H11.0486V6.73609Z" fill="#3A3A3A"/>
<path d="M11.3056 6.73609H11.0486V6.99302H11.3056V6.73609Z" fill="#3A3A3A"/>
<path d="M11.5625 6.73609H11.3056V6.99302H11.5625V6.73609Z" fill="#3A3A3A"/>
<path d="M11.8194 6.73609H11.5625V6.99302H11.8194V6.73609Z" fill="#3A3A3A"/>
<path d="M12.0764 6.73609H11.8194V6.99302H12.0764V6.73609Z" fill="#3A3A3A"/>
<path d="M12.3333 6.73609H12.0764V6.99302H12.3333V6.73609Z" fill="#3A3A3A"/>
<path d="M12.5902 6.73609H12.3333V6.99302H12.5902V6.73609Z" fill="#3A3A3A"/>
<path d="M12.8472 6.73609H12.5902V6.99302H12.8472V6.73609Z" fill="#3A3A3A"/>
<path d="M13.1042 6.73609H12.8472V6.99302H13.1042V6.73609Z" fill="#3A3A3A"/>
<path d="M13.3611 6.73609H13.1042V6.99302H13.3611V6.73609Z" fill="#3A3A3A"/>
<path d="M13.6181 6.73609H13.3611V6.99302H13.6181V6.73609Z" fill="#3A3A3A"/>
<path d="M13.875 6.73609H13.6181V6.99302H13.875V6.73609Z" fill="#3A3A3A"/>
<path d="M14.1319 6.73609H13.875V6.99302H14.1319V6.73609Z" fill="#3A3A3A"/>
<path d="M14.3889 6.73609H14.1319V6.99302H14.3889V6.73609Z" fill="#3A3A3A"/>
<path d="M14.6458 6.73609H14.3889V6.99302H14.6458V6.73609Z" fill="#3A3A3A"/>
<path d="M14.9028 6.73609H14.6458V6.99302H14.9028V6.73609Z" fill="#3A3A3A"/>
<path d="M15.1597 6.73609H14.9028V6.99302H15.1597V6.73609Z" fill="#3A3A3A"/>
<path d="M15.4167 6.73609H15.1597V6.99302H15.4167V6.73609Z" fill="#3A3A3A"/>
<path d="M15.6736 6.73609H15.4167V6.99302H15.6736V6.73609Z" fill="#3A3A3A"/>
<path d="M15.9305 6.73609H15.6736V6.99302H15.9305V6.73609Z" fill="#3A3A3A"/>
<path d="M16.1875 6.73609H15.9305V6.99302H16.1875V6.73609Z" fill="#3A3A3A"/>
<path d="M16.4444 6.73609H16.1875V6.99302H16.4444V6.73609Z" fill="#3A3A3A"/>
<path d="M16.7014 6.73609H16.4444V6.99302H16.7014V6.73609Z" fill="#3A3A3A"/>
<path d="M16.9583 6.73609H16.7014V6.99302H16.9583V6.73609Z" fill="#3A3A3A"/>
<path d="M17.2153 6.73609H16.9583V6.99302H17.2153V6.73609Z" fill="#3A3A3A"/>
<path d="M17.4722 6.73609H17.2153V6.99302H17.4722V6.73609Z" fill="#3A3A3A"/>
<path d="M17.7292 6.73609H17.4722V6.99302H17.7292V6.73609Z" fill="#3A3A3A"/>
<path d="M17.9861 6.73609H17.7292V6.99302H17.9861V6.73609Z" fill="#3A3A3A"/>
<path d="M0.256944 6.99302H0V7.24996H0.256944V6.99302Z" fill="#3A3A3A"/>
<path d="M0.513882 6.99302H0.256944V7.24996H0.513882V6.99302Z" fill="#3A3A3A"/>
<path d="M0.77082 6.99302H0.513882V7.24996H0.77082V6.99302Z" fill="#3A3A3A"/>
<path d="M1.02776 6.99302H0.77082V7.24996H1.02776V6.99302Z" fill="#3A3A3A"/>
<path d="M1.2847 6.99302H1.02776V7.24996H1.2847V6.99302Z" fill="#3A3A3A"/>
<path d="M1.54169 6.99302H1.2847V7.24996H1.54169V6.99302Z" fill="#3A3A3A"/>
<path d="M1.79863 6.99302H1.54169V7.24996H1.79863V6.99302Z" fill="#3A3A3A"/>
<path d="M2.05557 6.99302H1.79863V7.24996H2.05557V6.99302Z" fill="#3A3A3A"/>
<path d="M2.3125 6.99302H2.05557V7.24996H2.3125V6.99302Z" fill="#3A3A3A"/>
<path d="M2.56944 6.99302H2.3125V7.24996H2.56944V6.99302Z" fill="#3A3A3A"/>
<path d="M2.82638 6.99302H2.56944V7.24996H2.82638V6.99302Z" fill="#3A3A3A"/>
<path d="M3.08332 6.99302H2.82638V7.24996H3.08332V6.99302Z" fill="#3A3A3A"/>
<path d="M3.34026 6.99302H3.08332V7.24996H3.34026V6.99302Z" fill="#3A3A3A"/>
<path d="M3.59719 6.99302H3.34026V7.24996H3.59719V6.99302Z" fill="#3A3A3A"/>
<path d="M3.85419 6.99302H3.59719V7.24996H3.85419V6.99302Z" fill="#3A3A3A"/>
<path d="M4.11112 6.99302H3.85419V7.24996H4.11112V6.99302Z" fill="#3A3A3A"/>
<path d="M4.36806 6.99302H4.11112V7.24996H4.36806V6.99302Z" fill="#3A3A3A"/>
<path d="M4.625 6.99302H4.36806V7.24996H4.625V6.99302Z" fill="#3A3A3A"/>
<path d="M4.88194 6.99302H4.625V7.24996H4.88194V6.99302Z" fill="#3A3A3A"/>
<path d="M5.13888 6.99302H4.88194V7.24996H5.13888V6.99302Z" fill="#3A3A3A"/>
<path d="M5.39581 6.99302H5.13888V7.24996H5.39581V6.99302Z" fill="#3A3A3A"/>
<path d="M5.65275 6.99302H5.39581V7.24996H5.65275V6.99302Z" fill="#3A3A3A"/>
<path d="M5.90975 6.99302H5.65275V7.24996H5.90975V6.99302Z" fill="#3A3A3A"/>
<path d="M6.16668 6.99302H5.90975V7.24996H6.16668V6.99302Z" fill="#3A3A3A"/>
<path d="M6.42362 6.99302H6.16668V7.24996H6.42362V6.99302Z" fill="#3A3A3A"/>
<path d="M6.68056 6.99302H6.42362V7.24996H6.68056V6.99302Z" fill="#3A3A3A"/>
<path d="M6.9375 6.99302H6.68056V7.24996H6.9375V6.99302Z" fill="#3A3A3A"/>
<path d="M7.19444 6.99302H6.9375V7.24996H7.19444V6.99302Z" fill="#3A3A3A"/>
<path d="M7.45137 6.99302H7.19444V7.24996H7.45137V6.99302Z" fill="#3A3A3A"/>
<path d="M7.70831 6.99302H7.45137V7.24996H7.70831V6.99302Z" fill="#3A3A3A"/>
<path d="M7.96525 6.99302H7.70831V7.24996H7.96525V6.99302Z" fill="#3A3A3A"/>
<path d="M8.22224 6.99302H7.96525V7.24996H8.22224V6.99302Z" fill="#3A3A3A"/>
<path d="M8.47918 6.99302H8.22224V7.24996H8.47918V6.99302Z" fill="#3A3A3A"/>
<path d="M8.73612 6.99302H8.47918V7.24996H8.73612V6.99302Z" fill="#3A3A3A"/>
<path d="M8.99306 6.99302H8.73612V7.24996H8.99306V6.99302Z" fill="#3A3A3A"/>
<path d="M9.25 6.99302H8.99306V7.24996H9.25V6.99302Z" fill="#3A3A3A"/>
<path d="M9.50693 6.99302H9.25V7.24996H9.50693V6.99302Z" fill="#3A3A3A"/>
<path d="M9.76387 6.99302H9.50693V7.24996H9.76387V6.99302Z" fill="#3A3A3A"/>
<path d="M10.0208 6.99302H9.76387V7.24996H10.0208V6.99302Z" fill="#3A3A3A"/>
<path d="M10.2777 6.99302H10.0208V7.24996H10.2777V6.99302Z" fill="#3A3A3A"/>
<path d="M10.5347 6.99302H10.2777V7.24996H10.5347V6.99302Z" fill="#3A3A3A"/>
<path d="M10.7917 6.99302H10.5347V7.24996H10.7917V6.99302Z" fill="#3A3A3A"/>
<path d="M11.0486 6.99302H10.7917V7.24996H11.0486V6.99302Z" fill="#3A3A3A"/>
<path d="M11.3056 6.99302H11.0486V7.24996H11.3056V6.99302Z" fill="#3A3A3A"/>
<path d="M11.5625 6.99302H11.3056V7.24996H11.5625V6.99302Z" fill="#3A3A3A"/>
<path d="M11.8194 6.99302H11.5625V7.24996H11.8194V6.99302Z" fill="#3A3A3A"/>
<path d="M12.0764 6.99302H11.8194V7.24996H12.0764V6.99302Z" fill="#3A3A3A"/>
<path d="M12.3333 6.99302H12.0764V7.24996H12.3333V6.99302Z" fill="#3A3A3A"/>
<path d="M12.5902 6.99302H12.3333V7.24996H12.5902V6.99302Z" fill="#3A3A3A"/>
<path d="M12.8472 6.99302H12.5902V7.24996H12.8472V6.99302Z" fill="#3A3A3A"/>
<path d="M13.1042 6.99302H12.8472V7.24996H13.1042V6.99302Z" fill="#3A3A3A"/>
<path d="M13.3611 6.99302H13.1042V7.24996H13.3611V6.99302Z" fill="#3A3A3A"/>
<path d="M13.6181 6.99302H13.3611V7.24996H13.6181V6.99302Z" fill="#3A3A3A"/>
<path d="M13.875 6.99302H13.6181V7.24996H13.875V6.99302Z" fill="#3A3A3A"/>
<path d="M14.1319 6.99302H13.875V7.24996H14.1319V6.99302Z" fill="#3A3A3A"/>
<path d="M14.3889 6.99302H14.1319V7.24996H14.3889V6.99302Z" fill="#3A3A3A"/>
<path d="M14.6458 6.99302H14.3889V7.24996H14.6458V6.99302Z" fill="#3A3A3A"/>
<path d="M14.9028 6.99302H14.6458V7.24996H14.9028V6.99302Z" fill="#3A3A3A"/>
<path d="M15.1597 6.99302H14.9028V7.24996H15.1597V6.99302Z" fill="#3A3A3A"/>
<path d="M15.4167 6.99302H15.1597V7.24996H15.4167V6.99302Z" fill="#3A3A3A"/>
<path d="M15.6736 6.99302H15.4167V7.24996H15.6736V6.99302Z" fill="#3A3A3A"/>
<path d="M15.9305 6.99302H15.6736V7.24996H15.9305V6.99302Z" fill="#3A3A3A"/>
<path d="M16.1875 6.99302H15.9305V7.24996H16.1875V6.99302Z" fill="#3A3A3A"/>
<path d="M16.4444 6.99302H16.1875V7.24996H16.4444V6.99302Z" fill="#3A3A3A"/>
<path d="M16.7014 6.99302H16.4444V7.24996H16.7014V6.99302Z" fill="#3A3A3A"/>
<path d="M16.9583 6.99302H16.7014V7.24996H16.9583V6.99302Z" fill="#3A3A3A"/>
<path d="M17.2153 6.99302H16.9583V7.24996H17.2153V6.99302Z" fill="#3A3A3A"/>
<path d="M17.4722 6.99302H17.2153V7.24996H17.4722V6.99302Z" fill="#3A3A3A"/>
<path d="M17.7292 6.99302H17.4722V7.24996H17.7292V6.99302Z" fill="#3A3A3A"/>
<path d="M17.9861 6.99302H17.7292V7.24996H17.9861V6.99302Z" fill="#3A3A3A"/>
<path d="M0.256944 7.24996H0V7.5069H0.256944V7.24996Z" fill="#3A3A3A"/>
<path d="M0.513882 7.24996H0.256944V7.5069H0.513882V7.24996Z" fill="#3A3A3A"/>
<path d="M0.77082 7.24996H0.513882V7.5069H0.77082V7.24996Z" fill="#3A3A3A"/>
<path d="M1.02776 7.24996H0.77082V7.5069H1.02776V7.24996Z" fill="#3A3A3A"/>
<path d="M1.2847 7.24996H1.02776V7.5069H1.2847V7.24996Z" fill="#3A3A3A"/>
<path d="M1.54169 7.24996H1.2847V7.5069H1.54169V7.24996Z" fill="#3A3A3A"/>
<path d="M1.79863 7.24996H1.54169V7.5069H1.79863V7.24996Z" fill="#3A3A3A"/>
<path d="M2.05557 7.24996H1.79863V7.5069H2.05557V7.24996Z" fill="#3A3A3A"/>
<path d="M2.3125 7.24996H2.05557V7.5069H2.3125V7.24996Z" fill="#3A3A3A"/>
<path d="M2.56944 7.24996H2.3125V7.5069H2.56944V7.24996Z" fill="#3A3A3A"/>
<path d="M2.82638 7.24996H2.56944V7.5069H2.82638V7.24996Z" fill="#3A3A3A"/>
<path d="M3.08332 7.24996H2.82638V7.5069H3.08332V7.24996Z" fill="#3A3A3A"/>
<path d="M3.34026 7.24996H3.08332V7.5069H3.34026V7.24996Z" fill="#3A3A3A"/>
<path d="M3.59719 7.24996H3.34026V7.5069H3.59719V7.24996Z" fill="#3A3A3A"/>
<path d="M3.85419 7.24996H3.59719V7.5069H3.85419V7.24996Z" fill="#3A3A3A"/>
<path d="M4.11112 7.24996H3.85419V7.5069H4.11112V7.24996Z" fill="#3A3A3A"/>
<path d="M4.36806 7.24996H4.11112V7.5069H4.36806V7.24996Z" fill="#3A3A3A"/>
<path d="M4.625 7.24996H4.36806V7.5069H4.625V7.24996Z" fill="#3A3A3A"/>
<path d="M4.88194 7.24996H4.625V7.5069H4.88194V7.24996Z" fill="#3A3A3A"/>
<path d="M5.13888 7.24996H4.88194V7.5069H5.13888V7.24996Z" fill="#3A3A3A"/>
<path d="M5.39581 7.24996H5.13888V7.5069H5.39581V7.24996Z" fill="#3A3A3A"/>
<path d="M5.65275 7.24996H5.39581V7.5069H5.65275V7.24996Z" fill="#3A3A3A"/>
<path d="M5.90975 7.24996H5.65275V7.5069H5.90975V7.24996Z" fill="#3A3A3A"/>
<path d="M6.16668 7.24996H5.90975V7.5069H6.16668V7.24996Z" fill="#3A3A3A"/>
<path d="M6.42362 7.24996H6.16668V7.5069H6.42362V7.24996Z" fill="#3A3A3A"/>
<path d="M6.68056 7.24996H6.42362V7.5069H6.68056V7.24996Z" fill="#3A3A3A"/>
<path d="M6.9375 7.24996H6.68056V7.5069H6.9375V7.24996Z" fill="#3A3A3A"/>
<path d="M7.19444 7.24996H6.9375V7.5069H7.19444V7.24996Z" fill="#3A3A3A"/>
<path d="M7.45137 7.24996H7.19444V7.5069H7.45137V7.24996Z" fill="#3A3A3A"/>
<path d="M7.70831 7.24996H7.45137V7.5069H7.70831V7.24996Z" fill="#3A3A3A"/>
<path d="M7.96525 7.24996H7.70831V7.5069H7.96525V7.24996Z" fill="#3A3A3A"/>
<path d="M8.22224 7.24996H7.96525V7.5069H8.22224V7.24996Z" fill="#3A3A3A"/>
<path d="M8.47918 7.24996H8.22224V7.5069H8.47918V7.24996Z" fill="#3A3A3A"/>
<path d="M8.73612 7.24996H8.47918V7.5069H8.73612V7.24996Z" fill="#3A3A3A"/>
<path d="M8.99306 7.24996H8.73612V7.5069H8.99306V7.24996Z" fill="#3A3A3A"/>
<path d="M9.25 7.24996H8.99306V7.5069H9.25V7.24996Z" fill="#3A3A3A"/>
<path d="M9.50693 7.24996H9.25V7.5069H9.50693V7.24996Z" fill="#3A3A3A"/>
<path d="M9.76387 7.24996H9.50693V7.5069H9.76387V7.24996Z" fill="#3A3A3A"/>
<path d="M10.0208 7.24996H9.76387V7.5069H10.0208V7.24996Z" fill="#3A3A3A"/>
<path d="M10.2777 7.24996H10.0208V7.5069H10.2777V7.24996Z" fill="#3A3A3A"/>
<path d="M10.5347 7.24996H10.2777V7.5069H10.5347V7.24996Z" fill="#3A3A3A"/>
<path d="M10.7917 7.24996H10.5347V7.5069H10.7917V7.24996Z" fill="#3A3A3A"/>
<path d="M11.0486 7.24996H10.7917V7.5069H11.0486V7.24996Z" fill="#3A3A3A"/>
<path d="M11.3056 7.24996H11.0486V7.5069H11.3056V7.24996Z" fill="#3A3A3A"/>
<path d="M11.5625 7.24996H11.3056V7.5069H11.5625V7.24996Z" fill="#3A3A3A"/>
<path d="M11.8194 7.24996H11.5625V7.5069H11.8194V7.24996Z" fill="#3A3A3A"/>
<path d="M12.0764 7.24996H11.8194V7.5069H12.0764V7.24996Z" fill="#3A3A3A"/>
<path d="M12.3333 7.24996H12.0764V7.5069H12.3333V7.24996Z" fill="#3A3A3A"/>
<path d="M12.5902 7.24996H12.3333V7.5069H12.5902V7.24996Z" fill="#3A3A3A"/>
<path d="M12.8472 7.24996H12.5902V7.5069H12.8472V7.24996Z" fill="#3A3A3A"/>
<path d="M13.1042 7.24996H12.8472V7.5069H13.1042V7.24996Z" fill="#3A3A3A"/>
<path d="M13.3611 7.24996H13.1042V7.5069H13.3611V7.24996Z" fill="#3A3A3A"/>
<path d="M13.6181 7.24996H13.3611V7.5069H13.6181V7.24996Z" fill="#3A3A3A"/>
<path d="M13.875 7.24996H13.6181V7.5069H13.875V7.24996Z" fill="#3A3A3A"/>
<path d="M14.1319 7.24996H13.875V7.5069H14.1319V7.24996Z" fill="#3A3A3A"/>
<path d="M14.3889 7.24996H14.1319V7.5069H14.3889V7.24996Z" fill="#3A3A3A"/>
<path d="M14.6458 7.24996H14.3889V7.5069H14.6458V7.24996Z" fill="#3A3A3A"/>
<path d="M14.9028 7.24996H14.6458V7.5069H14.9028V7.24996Z" fill="#3A3A3A"/>
<path d="M15.1597 7.24996H14.9028V7.5069H15.1597V7.24996Z" fill="#3A3A3A"/>
<path d="M15.4167 7.24996H15.1597V7.5069H15.4167V7.24996Z" fill="#3A3A3A"/>
<path d="M15.6736 7.24996H15.4167V7.5069H15.6736V7.24996Z" fill="#3A3A3A"/>
<path d="M15.9305 7.24996H15.6736V7.5069H15.9305V7.24996Z" fill="#3A3A3A"/>
<path d="M16.1875 7.24996H15.9305V7.5069H16.1875V7.24996Z" fill="#3A3A3A"/>
<path d="M16.4444 7.24996H16.1875V7.5069H16.4444V7.24996Z" fill="#3A3A3A"/>
<path d="M16.7014 7.24996H16.4444V7.5069H16.7014V7.24996Z" fill="#3A3A3A"/>
<path d="M16.9583 7.24996H16.7014V7.5069H16.9583V7.24996Z" fill="#3A3A3A"/>
<path d="M17.2153 7.24996H16.9583V7.5069H17.2153V7.24996Z" fill="#3A3A3A"/>
<path d="M17.4722 7.24996H17.2153V7.5069H17.4722V7.24996Z" fill="#3A3A3A"/>
<path d="M17.7292 7.24996H17.4722V7.5069H17.7292V7.24996Z" fill="#3A3A3A"/>
<path d="M17.9861 7.24996H17.7292V7.5069H17.9861V7.24996Z" fill="#3A3A3A"/>
<path d="M0.256944 7.5069H0V7.76384H0.256944V7.5069Z" fill="#3A3A3A"/>
<path d="M0.513882 7.5069H0.256944V7.76384H0.513882V7.5069Z" fill="#3A3A3A"/>
<path d="M0.77082 7.5069H0.513882V7.76384H0.77082V7.5069Z" fill="#3A3A3A"/>
<path d="M1.02776 7.5069H0.77082V7.76384H1.02776V7.5069Z" fill="#3A3A3A"/>
<path d="M1.2847 7.5069H1.02776V7.76384H1.2847V7.5069Z" fill="#3A3A3A"/>
<path d="M1.54169 7.5069H1.2847V7.76384H1.54169V7.5069Z" fill="#3A3A3A"/>
<path d="M1.79863 7.5069H1.54169V7.76384H1.79863V7.5069Z" fill="#3A3A3A"/>
<path d="M2.05557 7.5069H1.79863V7.76384H2.05557V7.5069Z" fill="#3A3A3A"/>
<path d="M2.3125 7.5069H2.05557V7.76384H2.3125V7.5069Z" fill="#3A3A3A"/>
<path d="M2.56944 7.5069H2.3125V7.76384H2.56944V7.5069Z" fill="#3A3A3A"/>
<path d="M2.82638 7.5069H2.56944V7.76384H2.82638V7.5069Z" fill="#3A3A3A"/>
<path d="M3.08332 7.5069H2.82638V7.76384H3.08332V7.5069Z" fill="#3A3A3A"/>
<path d="M3.34026 7.5069H3.08332V7.76384H3.34026V7.5069Z" fill="#3A3A3A"/>
<path d="M3.59719 7.5069H3.34026V7.76384H3.59719V7.5069Z" fill="#3A3A3A"/>
<path d="M3.85419 7.5069H3.59719V7.76384H3.85419V7.5069Z" fill="#3A3A3A"/>
<path d="M4.11112 7.5069H3.85419V7.76384H4.11112V7.5069Z" fill="#3A3A3A"/>
<path d="M4.36806 7.5069H4.11112V7.76384H4.36806V7.5069Z" fill="#3A3A3A"/>
<path d="M4.625 7.5069H4.36806V7.76384H4.625V7.5069Z" fill="#3A3A3A"/>
<path d="M4.88194 7.5069H4.625V7.76384H4.88194V7.5069Z" fill="#3A3A3A"/>
<path d="M5.13888 7.5069H4.88194V7.76384H5.13888V7.5069Z" fill="#3A3A3A"/>
<path d="M5.39581 7.5069H5.13888V7.76384H5.39581V7.5069Z" fill="#3A3A3A"/>
<path d="M5.65275 7.5069H5.39581V7.76384H5.65275V7.5069Z" fill="#3A3A3A"/>
<path d="M5.90975 7.5069H5.65275V7.76384H5.90975V7.5069Z" fill="#3A3A3A"/>
<path d="M6.16668 7.5069H5.90975V7.76384H6.16668V7.5069Z" fill="#3A3A3A"/>
<path d="M6.42362 7.5069H6.16668V7.76384H6.42362V7.5069Z" fill="#3A3A3A"/>
<path d="M6.68056 7.5069H6.42362V7.76384H6.68056V7.5069Z" fill="#3A3A3A"/>
<path d="M6.9375 7.5069H6.68056V7.76384H6.9375V7.5069Z" fill="#3A3A3A"/>
<path d="M7.19444 7.5069H6.9375V7.76384H7.19444V7.5069Z" fill="#3A3A3A"/>
<path d="M7.45137 7.5069H7.19444V7.76384H7.45137V7.5069Z" fill="#3A3A3A"/>
<path d="M7.70831 7.5069H7.45137V7.76384H7.70831V7.5069Z" fill="#3A3A3A"/>
<path d="M7.96525 7.5069H7.70831V7.76384H7.96525V7.5069Z" fill="#3A3A3A"/>
<path d="M8.22224 7.5069H7.96525V7.76384H8.22224V7.5069Z" fill="#3A3A3A"/>
<path d="M8.47918 7.5069H8.22224V7.76384H8.47918V7.5069Z" fill="#3A3A3A"/>
<path d="M8.73612 7.5069H8.47918V7.76384H8.73612V7.5069Z" fill="#3A3A3A"/>
<path d="M8.99306 7.5069H8.73612V7.76384H8.99306V7.5069Z" fill="#3A3A3A"/>
<path d="M9.25 7.5069H8.99306V7.76384H9.25V7.5069Z" fill="#3A3A3A"/>
<path d="M9.50693 7.5069H9.25V7.76384H9.50693V7.5069Z" fill="#3A3A3A"/>
<path d="M9.76387 7.5069H9.50693V7.76384H9.76387V7.5069Z" fill="#3A3A3A"/>
<path d="M10.0208 7.5069H9.76387V7.76384H10.0208V7.5069Z" fill="#3A3A3A"/>
<path d="M10.2777 7.5069H10.0208V7.76384H10.2777V7.5069Z" fill="#3A3A3A"/>
<path d="M10.5347 7.5069H10.2777V7.76384H10.5347V7.5069Z" fill="#3A3A3A"/>
<path d="M10.7917 7.5069H10.5347V7.76384H10.7917V7.5069Z" fill="#3A3A3A"/>
<path d="M11.0486 7.5069H10.7917V7.76384H11.0486V7.5069Z" fill="#3A3A3A"/>
<path d="M11.3056 7.5069H11.0486V7.76384H11.3056V7.5069Z" fill="#3A3A3A"/>
<path d="M11.5625 7.5069H11.3056V7.76384H11.5625V7.5069Z" fill="#3A3A3A"/>
<path d="M11.8194 7.5069H11.5625V7.76384H11.8194V7.5069Z" fill="#3A3A3A"/>
<path d="M12.0764 7.5069H11.8194V7.76384H12.0764V7.5069Z" fill="#3A3A3A"/>
<path d="M12.3333 7.5069H12.0764V7.76384H12.3333V7.5069Z" fill="#3A3A3A"/>
<path d="M12.5902 7.5069H12.3333V7.76384H12.5902V7.5069Z" fill="#3A3A3A"/>
<path d="M12.8472 7.5069H12.5902V7.76384H12.8472V7.5069Z" fill="#3A3A3A"/>
<path d="M13.1042 7.5069H12.8472V7.76384H13.1042V7.5069Z" fill="#3A3A3A"/>
<path d="M13.3611 7.5069H13.1042V7.76384H13.3611V7.5069Z" fill="#3A3A3A"/>
<path d="M13.6181 7.5069H13.3611V7.76384H13.6181V7.5069Z" fill="#3A3A3A"/>
<path d="M13.875 7.5069H13.6181V7.76384H13.875V7.5069Z" fill="#3A3A3A"/>
<path d="M14.1319 7.5069H13.875V7.76384H14.1319V7.5069Z" fill="#3A3A3A"/>
<path d="M14.3889 7.5069H14.1319V7.76384H14.3889V7.5069Z" fill="#3A3A3A"/>
<path d="M14.6458 7.5069H14.3889V7.76384H14.6458V7.5069Z" fill="#3A3A3A"/>
<path d="M14.9028 7.5069H14.6458V7.76384H14.9028V7.5069Z" fill="#3A3A3A"/>
<path d="M15.1597 7.5069H14.9028V7.76384H15.1597V7.5069Z" fill="#3A3A3A"/>
<path d="M15.4167 7.5069H15.1597V7.76384H15.4167V7.5069Z" fill="#3A3A3A"/>
<path d="M15.6736 7.5069H15.4167V7.76384H15.6736V7.5069Z" fill="#3A3A3A"/>
<path d="M15.9305 7.5069H15.6736V7.76384H15.9305V7.5069Z" fill="#3A3A3A"/>
<path d="M16.1875 7.5069H15.9305V7.76384H16.1875V7.5069Z" fill="#3A3A3A"/>
<path d="M16.4444 7.5069H16.1875V7.76384H16.4444V7.5069Z" fill="#3A3A3A"/>
<path d="M16.7014 7.5069H16.4444V7.76384H16.7014V7.5069Z" fill="#3A3A3A"/>
<path d="M16.9583 7.5069H16.7014V7.76384H16.9583V7.5069Z" fill="#3A3A3A"/>
<path d="M17.2153 7.5069H16.9583V7.76384H17.2153V7.5069Z" fill="#3A3A3A"/>
<path d="M17.4722 7.5069H17.2153V7.76384H17.4722V7.5069Z" fill="#3A3A3A"/>
<path d="M17.7292 7.5069H17.4722V7.76384H17.7292V7.5069Z" fill="#3A3A3A"/>
<path d="M17.9861 7.5069H17.7292V7.76384H17.9861V7.5069Z" fill="#3A3A3A"/>
<path d="M0.256944 7.76384H0V8.02078H0.256944V7.76384Z" fill="#3A3A3A"/>
<path d="M0.513882 7.76384H0.256944V8.02078H0.513882V7.76384Z" fill="#3A3A3A"/>
<path d="M0.77082 7.76384H0.513882V8.02078H0.77082V7.76384Z" fill="#3A3A3A"/>
<path d="M1.02776 7.76384H0.77082V8.02078H1.02776V7.76384Z" fill="#3A3A3A"/>
<path d="M1.2847 7.76384H1.02776V8.02078H1.2847V7.76384Z" fill="#3A3A3A"/>
<path d="M1.54169 7.76384H1.2847V8.02078H1.54169V7.76384Z" fill="#3A3A3A"/>
<path d="M1.79863 7.76384H1.54169V8.02078H1.79863V7.76384Z" fill="#3A3A3A"/>
<path d="M2.05557 7.76384H1.79863V8.02078H2.05557V7.76384Z" fill="#3A3A3A"/>
<path d="M2.3125 7.76384H2.05557V8.02078H2.3125V7.76384Z" fill="#3A3A3A"/>
<path d="M2.56944 7.76384H2.3125V8.02078H2.56944V7.76384Z" fill="#3A3A3A"/>
<path d="M2.82638 7.76384H2.56944V8.02078H2.82638V7.76384Z" fill="#3A3A3A"/>
<path d="M3.08332 7.76384H2.82638V8.02078H3.08332V7.76384Z" fill="#3A3A3A"/>
<path d="M3.34026 7.76384H3.08332V8.02078H3.34026V7.76384Z" fill="#3A3A3A"/>
<path d="M3.59719 7.76384H3.34026V8.02078H3.59719V7.76384Z" fill="#3A3A3A"/>
<path d="M3.85419 7.76384H3.59719V8.02078H3.85419V7.76384Z" fill="#3A3A3A"/>
<path d="M4.11112 7.76384H3.85419V8.02078H4.11112V7.76384Z" fill="#3A3A3A"/>
<path d="M4.36806 7.76384H4.11112V8.02078H4.36806V7.76384Z" fill="#3A3A3A"/>
<path d="M4.625 7.76384H4.36806V8.02078H4.625V7.76384Z" fill="#3A3A3A"/>
<path d="M4.88194 7.76384H4.625V8.02078H4.88194V7.76384Z" fill="#3A3A3A"/>
<path d="M5.13888 7.76384H4.88194V8.02078H5.13888V7.76384Z" fill="#3A3A3A"/>
<path d="M5.39581 7.76384H5.13888V8.02078H5.39581V7.76384Z" fill="#3A3A3A"/>
<path d="M5.65275 7.76384H5.39581V8.02078H5.65275V7.76384Z" fill="#3A3A3A"/>
<path d="M5.90975 7.76384H5.65275V8.02078H5.90975V7.76384Z" fill="#3A3A3A"/>
<path d="M6.16668 7.76384H5.90975V8.02078H6.16668V7.76384Z" fill="#3A3A3A"/>
<path d="M6.42362 7.76384H6.16668V8.02078H6.42362V7.76384Z" fill="#3A3A3A"/>
<path d="M6.68056 7.76384H6.42362V8.02078H6.68056V7.76384Z" fill="#3A3A3A"/>
<path d="M6.9375 7.76384H6.68056V8.02078H6.9375V7.76384Z" fill="#3A3A3A"/>
<path d="M7.19444 7.76384H6.9375V8.02078H7.19444V7.76384Z" fill="#3A3A3A"/>
<path d="M7.45137 7.76384H7.19444V8.02078H7.45137V7.76384Z" fill="#3A3A3A"/>
<path d="M7.70831 7.76384H7.45137V8.02078H7.70831V7.76384Z" fill="#3A3A3A"/>
<path d="M7.96525 7.76384H7.70831V8.02078H7.96525V7.76384Z" fill="#3A3A3A"/>
<path d="M8.22224 7.76384H7.96525V8.02078H8.22224V7.76384Z" fill="#3A3A3A"/>
<path d="M8.47918 7.76384H8.22224V8.02078H8.47918V7.76384Z" fill="#3A3A3A"/>
<path d="M8.73612 7.76384H8.47918V8.02078H8.73612V7.76384Z" fill="#3A3A3A"/>
<path d="M8.99306 7.76384H8.73612V8.02078H8.99306V7.76384Z" fill="#3A3A3A"/>
<path d="M9.25 7.76384H8.99306V8.02078H9.25V7.76384Z" fill="#3A3A3A"/>
<path d="M9.50693 7.76384H9.25V8.02078H9.50693V7.76384Z" fill="#3A3A3A"/>
<path d="M9.76387 7.76384H9.50693V8.02078H9.76387V7.76384Z" fill="#3A3A3A"/>
<path d="M10.0208 7.76384H9.76387V8.02078H10.0208V7.76384Z" fill="#3A3A3A"/>
<path d="M10.2777 7.76384H10.0208V8.02078H10.2777V7.76384Z" fill="#3A3A3A"/>
<path d="M10.5347 7.76384H10.2777V8.02078H10.5347V7.76384Z" fill="#3A3A3A"/>
<path d="M10.7917 7.76384H10.5347V8.02078H10.7917V7.76384Z" fill="#3A3A3A"/>
<path d="M11.0486 7.76384H10.7917V8.02078H11.0486V7.76384Z" fill="#3A3A3A"/>
<path d="M11.3056 7.76384H11.0486V8.02078H11.3056V7.76384Z" fill="#3A3A3A"/>
<path d="M11.5625 7.76384H11.3056V8.02078H11.5625V7.76384Z" fill="#3A3A3A"/>
<path d="M11.8194 7.76384H11.5625V8.02078H11.8194V7.76384Z" fill="#3A3A3A"/>
<path d="M12.0764 7.76384H11.8194V8.02078H12.0764V7.76384Z" fill="#3A3A3A"/>
<path d="M12.3333 7.76384H12.0764V8.02078H12.3333V7.76384Z" fill="#3A3A3A"/>
<path d="M12.5902 7.76384H12.3333V8.02078H12.5902V7.76384Z" fill="#3A3A3A"/>
<path d="M12.8472 7.76384H12.5902V8.02078H12.8472V7.76384Z" fill="#3A3A3A"/>
<path d="M13.1042 7.76384H12.8472V8.02078H13.1042V7.76384Z" fill="#3A3A3A"/>
<path d="M13.3611 7.76384H13.1042V8.02078H13.3611V7.76384Z" fill="#3A3A3A"/>
<path d="M13.6181 7.76384H13.3611V8.02078H13.6181V7.76384Z" fill="#3A3A3A"/>
<path d="M13.875 7.76384H13.6181V8.02078H13.875V7.76384Z" fill="#3A3A3A"/>
<path d="M14.1319 7.76384H13.875V8.02078H14.1319V7.76384Z" fill="#3A3A3A"/>
<path d="M14.3889 7.76384H14.1319V8.02078H14.3889V7.76384Z" fill="#3A3A3A"/>
<path d="M14.6458 7.76384H14.3889V8.02078H14.6458V7.76384Z" fill="#3A3A3A"/>
<path d="M14.9028 7.76384H14.6458V8.02078H14.9028V7.76384Z" fill="#3A3A3A"/>
<path d="M15.1597 7.76384H14.9028V8.02078H15.1597V7.76384Z" fill="#3A3A3A"/>
<path d="M15.4167 7.76384H15.1597V8.02078H15.4167V7.76384Z" fill="#3A3A3A"/>
<path d="M15.6736 7.76384H15.4167V8.02078H15.6736V7.76384Z" fill="#3A3A3A"/>
<path d="M15.9305 7.76384H15.6736V8.02078H15.9305V7.76384Z" fill="#3A3A3A"/>
<path d="M16.1875 7.76384H15.9305V8.02078H16.1875V7.76384Z" fill="#3A3A3A"/>
<path d="M16.4444 7.76384H16.1875V8.02078H16.4444V7.76384Z" fill="#3A3A3A"/>
<path d="M16.7014 7.76384H16.4444V8.02078H16.7014V7.76384Z" fill="#3A3A3A"/>
<path d="M16.9583 7.76384H16.7014V8.02078H16.9583V7.76384Z" fill="#3A3A3A"/>
<path d="M17.2153 7.76384H16.9583V8.02078H17.2153V7.76384Z" fill="#3A3A3A"/>
<path d="M17.4722 7.76384H17.2153V8.02078H17.4722V7.76384Z" fill="#3A3A3A"/>
<path d="M17.7292 7.76384H17.4722V8.02078H17.7292V7.76384Z" fill="#3A3A3A"/>
<path d="M17.9861 7.76384H17.7292V8.02078H17.9861V7.76384Z" fill="#3A3A3A"/>
<path d="M0.256944 8.02078H0V8.27771H0.256944V8.02078Z" fill="#3A3A3A"/>
<path d="M0.513882 8.02078H0.256944V8.27771H0.513882V8.02078Z" fill="#3A3A3A"/>
<path d="M0.77082 8.02078H0.513882V8.27771H0.77082V8.02078Z" fill="#3A3A3A"/>
<path d="M1.02776 8.02078H0.77082V8.27771H1.02776V8.02078Z" fill="#3A3A3A"/>
<path d="M1.2847 8.02078H1.02776V8.27771H1.2847V8.02078Z" fill="#3A3A3A"/>
<path d="M1.54169 8.02078H1.2847V8.27771H1.54169V8.02078Z" fill="#3A3A3A"/>
<path d="M1.79863 8.02078H1.54169V8.27771H1.79863V8.02078Z" fill="#3A3A3A"/>
<path d="M2.05557 8.02078H1.79863V8.27771H2.05557V8.02078Z" fill="#3A3A3A"/>
<path d="M2.3125 8.02078H2.05557V8.27771H2.3125V8.02078Z" fill="#3A3A3A"/>
<path d="M2.56944 8.02078H2.3125V8.27771H2.56944V8.02078Z" fill="#3A3A3A"/>
<path d="M2.82638 8.02078H2.56944V8.27771H2.82638V8.02078Z" fill="#3A3A3A"/>
<path d="M3.08332 8.02078H2.82638V8.27771H3.08332V8.02078Z" fill="#3A3A3A"/>
<path d="M3.34026 8.02078H3.08332V8.27771H3.34026V8.02078Z" fill="#3A3A3A"/>
<path d="M3.59719 8.02078H3.34026V8.27771H3.59719V8.02078Z" fill="#3A3A3A"/>
<path d="M3.85419 8.02078H3.59719V8.27771H3.85419V8.02078Z" fill="#3A3A3A"/>
<path d="M4.11112 8.02078H3.85419V8.27771H4.11112V8.02078Z" fill="#3A3A3A"/>
<path d="M4.36806 8.02078H4.11112V8.27771H4.36806V8.02078Z" fill="#3A3A3A"/>
<path d="M4.625 8.02078H4.36806V8.27771H4.625V8.02078Z" fill="#3A3A3A"/>
<path d="M4.88194 8.02078H4.625V8.27771H4.88194V8.02078Z" fill="#3A3A3A"/>
<path d="M5.13888 8.02078H4.88194V8.27771H5.13888V8.02078Z" fill="#3A3A3A"/>
<path d="M5.39581 8.02078H5.13888V8.27771H5.39581V8.02078Z" fill="#3A3A3A"/>
<path d="M5.65275 8.02078H5.39581V8.27771H5.65275V8.02078Z" fill="#3A3A3A"/>
<path d="M5.90975 8.02078H5.65275V8.27771H5.90975V8.02078Z" fill="#3A3A3A"/>
<path d="M6.16668 8.02078H5.90975V8.27771H6.16668V8.02078Z" fill="#3A3A3A"/>
<path d="M6.42362 8.02078H6.16668V8.27771H6.42362V8.02078Z" fill="#3A3A3A"/>
<path d="M6.68056 8.02078H6.42362V8.27771H6.68056V8.02078Z" fill="#3A3A3A"/>
<path d="M6.9375 8.02078H6.68056V8.27771H6.9375V8.02078Z" fill="#3A3A3A"/>
<path d="M7.19444 8.02078H6.9375V8.27771H7.19444V8.02078Z" fill="#3A3A3A"/>
<path d="M7.45137 8.02078H7.19444V8.27771H7.45137V8.02078Z" fill="#3A3A3A"/>
<path d="M7.70831 8.02078H7.45137V8.27771H7.70831V8.02078Z" fill="#3A3A3A"/>
<path d="M7.96525 8.02078H7.70831V8.27771H7.96525V8.02078Z" fill="#3A3A3A"/>
<path d="M8.22224 8.02078H7.96525V8.27771H8.22224V8.02078Z" fill="#3A3A3A"/>
<path d="M8.47918 8.02078H8.22224V8.27771H8.47918V8.02078Z" fill="#3A3A3A"/>
<path d="M8.73612 8.02078H8.47918V8.27771H8.73612V8.02078Z" fill="#3A3A3A"/>
<path d="M8.99306 8.02078H8.73612V8.27771H8.99306V8.02078Z" fill="#3A3A3A"/>
<path d="M9.25 8.02078H8.99306V8.27771H9.25V8.02078Z" fill="#3A3A3A"/>
<path d="M9.50693 8.02078H9.25V8.27771H9.50693V8.02078Z" fill="#3A3A3A"/>
<path d="M9.76387 8.02078H9.50693V8.27771H9.76387V8.02078Z" fill="#3A3A3A"/>
<path d="M10.0208 8.02078H9.76387V8.27771H10.0208V8.02078Z" fill="#3A3A3A"/>
<path d="M10.2777 8.02078H10.0208V8.27771H10.2777V8.02078Z" fill="#3A3A3A"/>
<path d="M10.5347 8.02078H10.2777V8.27771H10.5347V8.02078Z" fill="#3A3A3A"/>
<path d="M10.7917 8.02078H10.5347V8.27771H10.7917V8.02078Z" fill="#3A3A3A"/>
<path d="M11.0486 8.02078H10.7917V8.27771H11.0486V8.02078Z" fill="#3A3A3A"/>
<path d="M11.3056 8.02078H11.0486V8.27771H11.3056V8.02078Z" fill="#3A3A3A"/>
<path d="M11.5625 8.02078H11.3056V8.27771H11.5625V8.02078Z" fill="#3A3A3A"/>
<path d="M11.8194 8.02078H11.5625V8.27771H11.8194V8.02078Z" fill="#3A3A3A"/>
<path d="M12.0764 8.02078H11.8194V8.27771H12.0764V8.02078Z" fill="#3A3A3A"/>
<path d="M12.3333 8.02078H12.0764V8.27771H12.3333V8.02078Z" fill="#3A3A3A"/>
<path d="M12.5902 8.02078H12.3333V8.27771H12.5902V8.02078Z" fill="#3A3A3A"/>
<path d="M12.8472 8.02078H12.5902V8.27771H12.8472V8.02078Z" fill="#3A3A3A"/>
<path d="M13.1042 8.02078H12.8472V8.27771H13.1042V8.02078Z" fill="#3A3A3A"/>
<path d="M13.3611 8.02078H13.1042V8.27771H13.3611V8.02078Z" fill="#3A3A3A"/>
<path d="M13.6181 8.02078H13.3611V8.27771H13.6181V8.02078Z" fill="#3A3A3A"/>
<path d="M13.875 8.02078H13.6181V8.27771H13.875V8.02078Z" fill="#3A3A3A"/>
<path d="M14.1319 8.02078H13.875V8.27771H14.1319V8.02078Z" fill="#3A3A3A"/>
<path d="M14.3889 8.02078H14.1319V8.27771H14.3889V8.02078Z" fill="#3A3A3A"/>
<path d="M14.6458 8.02078H14.3889V8.27771H14.6458V8.02078Z" fill="#3A3A3A"/>
<path d="M14.9028 8.02078H14.6458V8.27771H14.9028V8.02078Z" fill="#3A3A3A"/>
<path d="M15.1597 8.02078H14.9028V8.27771H15.1597V8.02078Z" fill="#3A3A3A"/>
<path d="M15.4167 8.02078H15.1597V8.27771H15.4167V8.02078Z" fill="#3A3A3A"/>
<path d="M15.6736 8.02078H15.4167V8.27771H15.6736V8.02078Z" fill="#3A3A3A"/>
<path d="M15.9305 8.02078H15.6736V8.27771H15.9305V8.02078Z" fill="#3A3A3A"/>
<path d="M16.1875 8.02078H15.9305V8.27771H16.1875V8.02078Z" fill="#3A3A3A"/>
<path d="M16.4444 8.02078H16.1875V8.27771H16.4444V8.02078Z" fill="#3A3A3A"/>
<path d="M16.7014 8.02078H16.4444V8.27771H16.7014V8.02078Z" fill="#3A3A3A"/>
<path d="M16.9583 8.02078H16.7014V8.27771H16.9583V8.02078Z" fill="#3A3A3A"/>
<path d="M17.2153 8.02078H16.9583V8.27771H17.2153V8.02078Z" fill="#3A3A3A"/>
<path d="M17.4722 8.02078H17.2153V8.27771H17.4722V8.02078Z" fill="#3A3A3A"/>
<path d="M17.7292 8.02078H17.4722V8.27771H17.7292V8.02078Z" fill="#3A3A3A"/>
<path d="M17.9861 8.02078H17.7292V8.27771H17.9861V8.02078Z" fill="#3A3A3A"/>
<path d="M7.96525 8.27771H7.70831L7.70831 8.53465H7.96525V8.27771Z" fill="#3A3A3A"/>
<path d="M8.22224 8.27771H7.96525V8.53465H8.22224V8.27771Z" fill="#3A3A3A"/>
<path d="M8.47918 8.27771H8.22224V8.53465H8.47918V8.27771Z" fill="#3A3A3A"/>
<path d="M8.73612 8.27771H8.47918V8.53465H8.73612V8.27771Z" fill="#3A3A3A"/>
<path d="M8.99306 8.27771H8.73612V8.53465H8.99306V8.27771Z" fill="#3A3A3A"/>
<path d="M9.25 8.27771H8.99306V8.53465H9.25V8.27771Z" fill="#3A3A3A"/>
<path d="M9.50693 8.27771H9.25V8.53465H9.50693V8.27771Z" fill="#3A3A3A"/>
<path d="M9.76387 8.27771H9.50693V8.53465H9.76387V8.27771Z" fill="#3A3A3A"/>
<path d="M10.0208 8.27771H9.76387V8.53465H10.0208V8.27771Z" fill="#3A3A3A"/>
<path d="M10.2777 8.27771H10.0208V8.53465H10.2777V8.27771Z" fill="#3A3A3A"/>
<path d="M10.5347 8.27771H10.2777V8.53465H10.5347V8.27771Z" fill="#3A3A3A"/>
<path d="M10.7917 8.27771H10.5347V8.53465H10.7917V8.27771Z" fill="#3A3A3A"/>
<path d="M11.0486 8.27771H10.7917V8.53465H11.0486V8.27771Z" fill="#3A3A3A"/>
<path d="M11.3056 8.27771H11.0486V8.53465H11.3056V8.27771Z" fill="#3A3A3A"/>
<path d="M11.5625 8.27771H11.3056V8.53465H11.5625V8.27771Z" fill="#3A3A3A"/>
<path d="M11.8194 8.27771H11.5625V8.53465H11.8194V8.27771Z" fill="#3A3A3A"/>
<path d="M12.0764 8.27771H11.8194V8.53465H12.0764V8.27771Z" fill="#3A3A3A"/>
<path d="M12.3333 8.27771H12.0764V8.53465H12.3333V8.27771Z" fill="#3A3A3A"/>
<path d="M12.5902 8.27771H12.3333V8.53465H12.5902V8.27771Z" fill="#3A3A3A"/>
<path d="M12.8472 8.27771H12.5902V8.53465H12.8472V8.27771Z" fill="#3A3A3A"/>
<path d="M7.96525 8.53465H7.70831V8.79159H7.96525V8.53465Z" fill="#3A3A3A"/>
<path d="M8.22224 8.53465H7.96525V8.79159H8.22224V8.53465Z" fill="#3A3A3A"/>
<path d="M8.47918 8.53465H8.22224V8.79159H8.47918V8.53465Z" fill="#3A3A3A"/>
<path d="M8.73612 8.53465H8.47918V8.79159H8.73612V8.53465Z" fill="#3A3A3A"/>
<path d="M8.99306 8.53465H8.73612V8.79159H8.99306V8.53465Z" fill="#3A3A3A"/>
<path d="M9.25 8.53465H8.99306V8.79159H9.25V8.53465Z" fill="#3A3A3A"/>
<path d="M9.50693 8.53465H9.25V8.79159H9.50693V8.53465Z" fill="#3A3A3A"/>
<path d="M9.76387 8.53465H9.50693V8.79159H9.76387V8.53465Z" fill="#3A3A3A"/>
<path d="M10.0208 8.53465H9.76387V8.79159H10.0208V8.53465Z" fill="#3A3A3A"/>
<path d="M10.2777 8.53465H10.0208V8.79159H10.2777V8.53465Z" fill="#3A3A3A"/>
<path d="M10.5347 8.53465H10.2777V8.79159H10.5347V8.53465Z" fill="#3A3A3A"/>
<path d="M10.7917 8.53465H10.5347V8.79159H10.7917V8.53465Z" fill="#3A3A3A"/>
<path d="M11.0486 8.53465H10.7917V8.79159H11.0486V8.53465Z" fill="#3A3A3A"/>
<path d="M11.3056 8.53465H11.0486V8.79159H11.3056V8.53465Z" fill="#3A3A3A"/>
<path d="M11.5625 8.53465H11.3056V8.79159H11.5625V8.53465Z" fill="#3A3A3A"/>
<path d="M11.8194 8.53465H11.5625V8.79159H11.8194V8.53465Z" fill="#3A3A3A"/>
<path d="M12.0764 8.53465H11.8194V8.79159H12.0764V8.53465Z" fill="#3A3A3A"/>
<path d="M12.3333 8.53465H12.0764V8.79159H12.3333V8.53465Z" fill="#3A3A3A"/>
<path d="M12.5902 8.53465H12.3333V8.79159H12.5902V8.53465Z" fill="#3A3A3A"/>
<path d="M12.8472 8.53465H12.5902V8.79159H12.8472V8.53465Z" fill="#3A3A3A"/>
<path d="M7.96525 8.79159H7.70831V9.04853H7.96525V8.79159Z" fill="#3A3A3A"/>
<path d="M8.22224 8.79159H7.96525V9.04853H8.22224V8.79159Z" fill="#3A3A3A"/>
<path d="M8.47918 8.79159H8.22224V9.04853H8.47918V8.79159Z" fill="#3A3A3A"/>
<path d="M8.73612 8.79159H8.47918V9.04853H8.73612V8.79159Z" fill="#3A3A3A"/>
<path d="M8.99306 8.79159H8.73612V9.04853H8.99306V8.79159Z" fill="#3A3A3A"/>
<path d="M9.25 8.79159H8.99306V9.04853H9.25V8.79159Z" fill="#3A3A3A"/>
<path d="M9.50693 8.79159H9.25V9.04853H9.50693V8.79159Z" fill="#3A3A3A"/>
<path d="M9.76387 8.79159H9.50693V9.04853H9.76387V8.79159Z" fill="#3A3A3A"/>
<path d="M10.0208 8.79159H9.76387V9.04853H10.0208V8.79159Z" fill="#3A3A3A"/>
<path d="M10.2777 8.79159H10.0208V9.04853H10.2777V8.79159Z" fill="#3A3A3A"/>
<path d="M10.5347 8.79159H10.2777V9.04853H10.5347V8.79159Z" fill="#3A3A3A"/>
<path d="M10.7917 8.79159H10.5347V9.04853H10.7917V8.79159Z" fill="#3A3A3A"/>
<path d="M11.0486 8.79159H10.7917V9.04853H11.0486V8.79159Z" fill="#3A3A3A"/>
<path d="M11.3056 8.79159H11.0486V9.04853H11.3056V8.79159Z" fill="#3A3A3A"/>
<path d="M11.5625 8.79159H11.3056V9.04853H11.5625V8.79159Z" fill="#3A3A3A"/>
<path d="M11.8194 8.79159H11.5625V9.04853H11.8194V8.79159Z" fill="#3A3A3A"/>
<path d="M12.0764 8.79159H11.8194V9.04853H12.0764V8.79159Z" fill="#3A3A3A"/>
<path d="M12.3333 8.79159H12.0764V9.04853H12.3333V8.79159Z" fill="#3A3A3A"/>
<path d="M12.5902 8.79159H12.3333V9.04853H12.5902V8.79159Z" fill="#3A3A3A"/>
<path d="M12.8472 8.79159H12.5902V9.04853H12.8472V8.79159Z" fill="#3A3A3A"/>
<path d="M7.96525 9.04853H7.70831V9.30546H7.96525V9.04853Z" fill="#3A3A3A"/>
<path d="M8.22224 9.04853H7.96525V9.30546H8.22224V9.04853Z" fill="#3A3A3A"/>
<path d="M8.47918 9.04853H8.22224V9.30546H8.47918V9.04853Z" fill="#3A3A3A"/>
<path d="M8.73612 9.04853H8.47918V9.30546H8.73612V9.04853Z" fill="#3A3A3A"/>
<path d="M8.99306 9.04853H8.73612V9.30546H8.99306V9.04853Z" fill="#3A3A3A"/>
<path d="M9.25 9.04853H8.99306V9.30546H9.25V9.04853Z" fill="#3A3A3A"/>
<path d="M9.50693 9.04853H9.25V9.30546H9.50693V9.04853Z" fill="#3A3A3A"/>
<path d="M9.76387 9.04853H9.50693V9.30546H9.76387V9.04853Z" fill="#3A3A3A"/>
<path d="M10.0208 9.04853H9.76387V9.30546H10.0208V9.04853Z" fill="#3A3A3A"/>
<path d="M10.2777 9.04853H10.0208V9.30546H10.2777V9.04853Z" fill="#3A3A3A"/>
<path d="M10.5347 9.04853H10.2777V9.30546H10.5347V9.04853Z" fill="#3A3A3A"/>
<path d="M10.7917 9.04853H10.5347V9.30546H10.7917V9.04853Z" fill="#3A3A3A"/>
<path d="M11.0486 9.04853H10.7917V9.30546H11.0486V9.04853Z" fill="#3A3A3A"/>
<path d="M11.3056 9.04853H11.0486V9.30546H11.3056V9.04853Z" fill="#3A3A3A"/>
<path d="M11.5625 9.04853H11.3056V9.30546H11.5625V9.04853Z" fill="#3A3A3A"/>
<path d="M11.8194 9.04853H11.5625V9.30546H11.8194V9.04853Z" fill="#3A3A3A"/>
<path d="M12.0764 9.04853H11.8194V9.30546H12.0764V9.04853Z" fill="#3A3A3A"/>
<path d="M12.3333 9.04853H12.0764V9.30546H12.3333V9.04853Z" fill="#3A3A3A"/>
<path d="M12.5902 9.04853H12.3333V9.30546H12.5902V9.04853Z" fill="#3A3A3A"/>
<path d="M12.8472 9.04853H12.5902V9.30546H12.8472V9.04853Z" fill="#3A3A3A"/>
<path d="M7.96525 9.30546H7.70831V9.56252H7.96525V9.30546Z" fill="#3A3A3A"/>
<path d="M8.22224 9.30546H7.96525V9.56252H8.22224V9.30546Z" fill="#3A3A3A"/>
<path d="M8.47918 9.30546H8.22224V9.56252H8.47918V9.30546Z" fill="#3A3A3A"/>
<path d="M8.73612 9.30546H8.47918V9.56252H8.73612V9.30546Z" fill="#3A3A3A"/>
<path d="M8.99306 9.30546H8.73612V9.56252H8.99306V9.30546Z" fill="#3A3A3A"/>
<path d="M9.25 9.30546H8.99306V9.56252H9.25V9.30546Z" fill="#3A3A3A"/>
<path d="M9.50693 9.30546H9.25V9.56252H9.50693V9.30546Z" fill="#3A3A3A"/>
<path d="M9.76387 9.30546H9.50693V9.56252H9.76387V9.30546Z" fill="#3A3A3A"/>
<path d="M10.0208 9.30546H9.76387V9.56252H10.0208V9.30546Z" fill="#3A3A3A"/>
<path d="M10.2777 9.30546H10.0208V9.56252H10.2777V9.30546Z" fill="#3A3A3A"/>
<path d="M10.5347 9.30546H10.2777V9.56252H10.5347V9.30546Z" fill="#3A3A3A"/>
<path d="M10.7917 9.30546H10.5347V9.56252H10.7917V9.30546Z" fill="#3A3A3A"/>
<path d="M11.0486 9.30546H10.7917V9.56252H11.0486V9.30546Z" fill="#3A3A3A"/>
<path d="M11.3056 9.30546H11.0486V9.56252H11.3056V9.30546Z" fill="#3A3A3A"/>
<path d="M11.5625 9.30546H11.3056V9.56252H11.5625V9.30546Z" fill="#3A3A3A"/>
<path d="M11.8194 9.30546H11.5625V9.56252H11.8194V9.30546Z" fill="#3A3A3A"/>
<path d="M12.0764 9.30546H11.8194V9.56252H12.0764V9.30546Z" fill="#3A3A3A"/>
<path d="M12.3333 9.30546H12.0764V9.56252H12.3333V9.30546Z" fill="#3A3A3A"/>
<path d="M12.5902 9.30546H12.3333V9.56252H12.5902V9.30546Z" fill="#3A3A3A"/>
<path d="M12.8472 9.30546H12.5902V9.56252H12.8472V9.30546Z" fill="#3A3A3A"/>
<path d="M7.96525 9.56252H7.70831V9.81945H7.96525V9.56252Z" fill="#3A3A3A"/>
<path d="M8.22224 9.56252H7.96525V9.81945H8.22224V9.56252Z" fill="#3A3A3A"/>
<path d="M8.47918 9.56252H8.22224V9.81945H8.47918V9.56252Z" fill="#3A3A3A"/>
<path d="M8.73612 9.56252H8.47918V9.81945H8.73612V9.56252Z" fill="#3A3A3A"/>
<path d="M8.99306 9.56252H8.73612V9.81945H8.99306V9.56252Z" fill="#3A3A3A"/>
<path d="M9.25 9.56252H8.99306V9.81945H9.25V9.56252Z" fill="#3A3A3A"/>
<path d="M9.50693 9.56252H9.25V9.81945H9.50693V9.56252Z" fill="#3A3A3A"/>
<path d="M9.76387 9.56252H9.50693V9.81945H9.76387V9.56252Z" fill="#3A3A3A"/>
<path d="M10.0208 9.56252H9.76387V9.81945H10.0208V9.56252Z" fill="#3A3A3A"/>
<path d="M10.2777 9.56252H10.0208V9.81945H10.2777V9.56252Z" fill="#3A3A3A"/>
<path d="M10.5347 9.56252H10.2777V9.81945H10.5347V9.56252Z" fill="#3A3A3A"/>
<path d="M10.7917 9.56252H10.5347V9.81945H10.7917V9.56252Z" fill="#3A3A3A"/>
<path d="M11.0486 9.56252H10.7917V9.81945H11.0486V9.56252Z" fill="#3A3A3A"/>
<path d="M11.3056 9.56252H11.0486V9.81945H11.3056V9.56252Z" fill="#3A3A3A"/>
<path d="M11.5625 9.56252H11.3056V9.81945H11.5625V9.56252Z" fill="#3A3A3A"/>
<path d="M11.8194 9.56252H11.5625V9.81945H11.8194V9.56252Z" fill="#3A3A3A"/>
<path d="M12.0764 9.56252H11.8194V9.81945H12.0764V9.56252Z" fill="#3A3A3A"/>
<path d="M12.3333 9.56252H12.0764V9.81945H12.3333V9.56252Z" fill="#3A3A3A"/>
<path d="M12.5902 9.56252H12.3333V9.81945H12.5902V9.56252Z" fill="#3A3A3A"/>
<path d="M12.8472 9.56252H12.5902V9.81945H12.8472V9.56252Z" fill="#3A3A3A"/>
<path d="M7.96525 9.81945H7.70831V10.0764H7.96525V9.81945Z" fill="#3A3A3A"/>
<path d="M8.22224 9.81945H7.96525V10.0764H8.22224V9.81945Z" fill="#3A3A3A"/>
<path d="M8.47918 9.81945H8.22224V10.0764H8.47918V9.81945Z" fill="#3A3A3A"/>
<path d="M8.73612 9.81945H8.47918V10.0764H8.73612V9.81945Z" fill="#3A3A3A"/>
<path d="M8.99306 9.81945H8.73612V10.0764H8.99306V9.81945Z" fill="#3A3A3A"/>
<path d="M9.25 9.81945H8.99306V10.0764H9.25V9.81945Z" fill="#3A3A3A"/>
<path d="M9.50693 9.81945H9.25V10.0764H9.50693V9.81945Z" fill="#3A3A3A"/>
<path d="M9.76387 9.81945H9.50693V10.0764H9.76387V9.81945Z" fill="#3A3A3A"/>
<path d="M10.0208 9.81945H9.76387V10.0764H10.0208V9.81945Z" fill="#3A3A3A"/>
<path d="M10.2777 9.81945H10.0208V10.0764H10.2777V9.81945Z" fill="#3A3A3A"/>
<path d="M10.5347 9.81945H10.2777V10.0764H10.5347V9.81945Z" fill="#3A3A3A"/>
<path d="M10.7917 9.81945H10.5347V10.0764H10.7917V9.81945Z" fill="#3A3A3A"/>
<path d="M11.0486 9.81945H10.7917V10.0764H11.0486V9.81945Z" fill="#3A3A3A"/>
<path d="M11.3056 9.81945H11.0486V10.0764H11.3056V9.81945Z" fill="#3A3A3A"/>
<path d="M11.5625 9.81945H11.3056V10.0764H11.5625V9.81945Z" fill="#3A3A3A"/>
<path d="M11.8194 9.81945H11.5625V10.0764H11.8194V9.81945Z" fill="#3A3A3A"/>
<path d="M12.0764 9.81945H11.8194V10.0764H12.0764V9.81945Z" fill="#3A3A3A"/>
<path d="M12.3333 9.81945H12.0764V10.0764H12.3333V9.81945Z" fill="#3A3A3A"/>
<path d="M12.5902 9.81945H12.3333V10.0764H12.5902V9.81945Z" fill="#3A3A3A"/>
<path d="M12.8472 9.81945H12.5902V10.0764H12.8472V9.81945Z" fill="#3A3A3A"/>
<path d="M7.96525 10.0764H7.70831V10.3333H7.96525V10.0764Z" fill="#3A3A3A"/>
<path d="M8.22224 10.0764H7.96525V10.3333H8.22224V10.0764Z" fill="#3A3A3A"/>
<path d="M8.47918 10.0764H8.22224V10.3333H8.47918V10.0764Z" fill="#3A3A3A"/>
<path d="M8.73612 10.0764H8.47918V10.3333H8.73612V10.0764Z" fill="#3A3A3A"/>
<path d="M8.99306 10.0764H8.73612V10.3333H8.99306V10.0764Z" fill="#3A3A3A"/>
<path d="M9.25 10.0764H8.99306V10.3333H9.25V10.0764Z" fill="#3A3A3A"/>
<path d="M9.50693 10.0764H9.25V10.3333H9.50693V10.0764Z" fill="#3A3A3A"/>
<path d="M9.76387 10.0764H9.50693V10.3333H9.76387V10.0764Z" fill="#3A3A3A"/>
<path d="M10.0208 10.0764H9.76387V10.3333H10.0208V10.0764Z" fill="#3A3A3A"/>
<path d="M10.2777 10.0764H10.0208V10.3333H10.2777V10.0764Z" fill="#3A3A3A"/>
<path d="M10.5347 10.0764H10.2777V10.3333H10.5347V10.0764Z" fill="#3A3A3A"/>
<path d="M10.7917 10.0764H10.5347V10.3333H10.7917V10.0764Z" fill="#3A3A3A"/>
<path d="M11.0486 10.0764H10.7917V10.3333H11.0486V10.0764Z" fill="#3A3A3A"/>
<path d="M11.3056 10.0764H11.0486V10.3333H11.3056V10.0764Z" fill="#3A3A3A"/>
<path d="M11.5625 10.0764H11.3056V10.3333H11.5625V10.0764Z" fill="#3A3A3A"/>
<path d="M11.8194 10.0764H11.5625V10.3333H11.8194V10.0764Z" fill="#3A3A3A"/>
<path d="M12.0764 10.0764H11.8194V10.3333H12.0764V10.0764Z" fill="#3A3A3A"/>
<path d="M12.3333 10.0764H12.0764V10.3333H12.3333V10.0764Z" fill="#3A3A3A"/>
<path d="M12.5902 10.0764H12.3333V10.3333H12.5902V10.0764Z" fill="#3A3A3A"/>
<path d="M12.8472 10.0764H12.5902V10.3333H12.8472V10.0764Z" fill="#3A3A3A"/>
<path d="M7.96525 10.3333H7.70831V10.5903H7.96525V10.3333Z" fill="#3A3A3A"/>
<path d="M8.22224 10.3333H7.96525V10.5903H8.22224V10.3333Z" fill="#3A3A3A"/>
<path d="M8.47918 10.3333H8.22224V10.5903H8.47918V10.3333Z" fill="#3A3A3A"/>
<path d="M8.73612 10.3333H8.47918V10.5903H8.73612V10.3333Z" fill="#3A3A3A"/>
<path d="M8.99306 10.3333H8.73612V10.5903H8.99306V10.3333Z" fill="#3A3A3A"/>
<path d="M9.25 10.3333H8.99306V10.5903H9.25V10.3333Z" fill="#3A3A3A"/>
<path d="M9.50693 10.3333H9.25V10.5903H9.50693V10.3333Z" fill="#3A3A3A"/>
<path d="M9.76387 10.3333H9.50693V10.5903H9.76387V10.3333Z" fill="#3A3A3A"/>
<path d="M10.0208 10.3333H9.76387V10.5903H10.0208V10.3333Z" fill="#3A3A3A"/>
<path d="M10.2777 10.3333H10.0208V10.5903H10.2777V10.3333Z" fill="#3A3A3A"/>
<path d="M10.5347 10.3333H10.2777V10.5903H10.5347V10.3333Z" fill="#3A3A3A"/>
<path d="M10.7917 10.3333H10.5347V10.5903H10.7917V10.3333Z" fill="#3A3A3A"/>
<path d="M11.0486 10.3333H10.7917V10.5903H11.0486V10.3333Z" fill="#3A3A3A"/>
<path d="M11.3056 10.3333H11.0486V10.5903H11.3056V10.3333Z" fill="#3A3A3A"/>
<path d="M11.5625 10.3333H11.3056V10.5903H11.5625V10.3333Z" fill="#3A3A3A"/>
<path d="M11.8194 10.3333H11.5625V10.5903H11.8194V10.3333Z" fill="#3A3A3A"/>
<path d="M12.0764 10.3333H11.8194V10.5903H12.0764V10.3333Z" fill="#3A3A3A"/>
<path d="M12.3333 10.3333H12.0764V10.5903H12.3333V10.3333Z" fill="#3A3A3A"/>
<path d="M12.5902 10.3333H12.3333V10.5903H12.5902V10.3333Z" fill="#3A3A3A"/>
<path d="M12.8472 10.3333H12.5902V10.5903H12.8472V10.3333Z" fill="#3A3A3A"/>
<path d="M7.96525 10.5903H7.70831V10.8472H7.96525V10.5903Z" fill="#3A3A3A"/>
<path d="M8.22224 10.5903H7.96525V10.8472H8.22224V10.5903Z" fill="#3A3A3A"/>
<path d="M8.47918 10.5903H8.22224V10.8472H8.47918V10.5903Z" fill="#3A3A3A"/>
<path d="M8.73612 10.5903H8.47918V10.8472H8.73612V10.5903Z" fill="#3A3A3A"/>
<path d="M8.99306 10.5903H8.73612V10.8472H8.99306V10.5903Z" fill="#3A3A3A"/>
<path d="M9.25 10.5903H8.99306V10.8472H9.25V10.5903Z" fill="#3A3A3A"/>
<path d="M9.50693 10.5903H9.25V10.8472H9.50693V10.5903Z" fill="#3A3A3A"/>
<path d="M9.76387 10.5903H9.50693V10.8472H9.76387V10.5903Z" fill="#3A3A3A"/>
<path d="M10.0208 10.5903H9.76387V10.8472H10.0208V10.5903Z" fill="#3A3A3A"/>
<path d="M10.2777 10.5903H10.0208V10.8472H10.2777V10.5903Z" fill="#3A3A3A"/>
<path d="M10.5347 10.5903H10.2777V10.8472H10.5347V10.5903Z" fill="#3A3A3A"/>
<path d="M10.7917 10.5903H10.5347V10.8472H10.7917V10.5903Z" fill="#3A3A3A"/>
<path d="M11.0486 10.5903H10.7917V10.8472H11.0486V10.5903Z" fill="#3A3A3A"/>
<path d="M11.3056 10.5903H11.0486V10.8472H11.3056V10.5903Z" fill="#3A3A3A"/>
<path d="M11.5625 10.5903H11.3056V10.8472H11.5625V10.5903Z" fill="#3A3A3A"/>
<path d="M11.8194 10.5903H11.5625V10.8472H11.8194V10.5903Z" fill="#3A3A3A"/>
<path d="M12.0764 10.5903H11.8194V10.8472H12.0764V10.5903Z" fill="#3A3A3A"/>
<path d="M12.3333 10.5903H12.0764V10.8472H12.3333V10.5903Z" fill="#3A3A3A"/>
<path d="M12.5902 10.5903H12.3333V10.8472H12.5902V10.5903Z" fill="#3A3A3A"/>
<path d="M12.8472 10.5903H12.5902V10.8472H12.8472V10.5903Z" fill="#3A3A3A"/>
<path d="M5.39581 10.8472H5.13887V11.1041H5.39581V10.8472Z" fill="#3A3A3A"/>
<path d="M5.65275 10.8472H5.39581V11.1041H5.65275V10.8472Z" fill="#3A3A3A"/>
<path d="M5.90975 10.8472H5.65275V11.1041H5.90975V10.8472Z" fill="#3A3A3A"/>
<path d="M6.16668 10.8472H5.90975V11.1041H6.16668V10.8472Z" fill="#3A3A3A"/>
<path d="M6.42362 10.8472H6.16668V11.1041H6.42362V10.8472Z" fill="#3A3A3A"/>
<path d="M6.68056 10.8472H6.42362V11.1041H6.68056V10.8472Z" fill="#3A3A3A"/>
<path d="M6.9375 10.8472H6.68056V11.1041H6.9375V10.8472Z" fill="#3A3A3A"/>
<path d="M7.19444 10.8472H6.9375V11.1041H7.19444V10.8472Z" fill="#3A3A3A"/>
<path d="M7.45137 10.8472H7.19444V11.1041H7.45137V10.8472Z" fill="#3A3A3A"/>
<path d="M7.70831 10.8472L7.45137 10.8472V11.1041H7.70831L7.70831 10.8472Z" fill="#3A3A3A"/>
<path d="M5.39581 11.1041H5.13887V11.3611H5.39581V11.1041Z" fill="#3A3A3A"/>
<path d="M5.65275 11.1041H5.39581V11.3611H5.65275V11.1041Z" fill="#3A3A3A"/>
<path d="M5.90975 11.1041H5.65275V11.3611H5.90975V11.1041Z" fill="#3A3A3A"/>
<path d="M6.16668 11.1041H5.90975V11.3611H6.16668V11.1041Z" fill="#3A3A3A"/>
<path d="M6.42362 11.1041H6.16668V11.3611H6.42362V11.1041Z" fill="#3A3A3A"/>
<path d="M6.68056 11.1041H6.42362V11.3611H6.68056V11.1041Z" fill="#3A3A3A"/>
<path d="M6.9375 11.1041H6.68056V11.3611H6.9375V11.1041Z" fill="#3A3A3A"/>
<path d="M7.19444 11.1041H6.9375V11.3611H7.19444V11.1041Z" fill="#3A3A3A"/>
<path d="M7.45137 11.1041H7.19444V11.3611H7.45137V11.1041Z" fill="#3A3A3A"/>
<path d="M7.70831 11.1041H7.45137V11.3611H7.70831V11.1041Z" fill="#3A3A3A"/>
<path d="M5.39581 11.3611H5.13887V11.618H5.39581V11.3611Z" fill="#3A3A3A"/>
<path d="M5.65275 11.3611H5.39581V11.618H5.65275V11.3611Z" fill="#3A3A3A"/>
<path d="M5.90975 11.3611H5.65275V11.618H5.90975V11.3611Z" fill="#3A3A3A"/>
<path d="M6.16668 11.3611H5.90975V11.618H6.16668V11.3611Z" fill="#3A3A3A"/>
<path d="M6.42362 11.3611H6.16668V11.618H6.42362V11.3611Z" fill="#3A3A3A"/>
<path d="M6.68056 11.3611H6.42362V11.618H6.68056V11.3611Z" fill="#3A3A3A"/>
<path d="M6.9375 11.3611H6.68056V11.618H6.9375V11.3611Z" fill="#3A3A3A"/>
<path d="M7.19444 11.3611H6.9375V11.618H7.19444V11.3611Z" fill="#3A3A3A"/>
<path d="M7.45137 11.3611H7.19444V11.618H7.45137V11.3611Z" fill="#3A3A3A"/>
<path d="M7.70831 11.3611H7.45137V11.618H7.70831V11.3611Z" fill="#3A3A3A"/>
<path d="M5.39581 11.618H5.13887V11.875H5.39581V11.618Z" fill="#3A3A3A"/>
<path d="M5.65275 11.618H5.39581V11.875H5.65275V11.618Z" fill="#3A3A3A"/>
<path d="M5.90975 11.618H5.65275V11.875H5.90975V11.618Z" fill="#3A3A3A"/>
<path d="M6.16668 11.618H5.90975V11.875H6.16668V11.618Z" fill="#3A3A3A"/>
<path d="M6.42362 11.618H6.16668V11.875H6.42362V11.618Z" fill="#3A3A3A"/>
<path d="M6.68056 11.618H6.42362V11.875H6.68056V11.618Z" fill="#3A3A3A"/>
<path d="M6.9375 11.618H6.68056V11.875H6.9375V11.618Z" fill="#3A3A3A"/>
<path d="M7.19444 11.618H6.9375V11.875H7.19444V11.618Z" fill="#3A3A3A"/>
<path d="M7.45137 11.618H7.19444V11.875H7.45137V11.618Z" fill="#3A3A3A"/>
<path d="M7.70831 11.618H7.45137V11.875H7.70831V11.618Z" fill="#3A3A3A"/>
<path d="M5.39581 11.875H5.13887V12.1319H5.39581V11.875Z" fill="#3A3A3A"/>
<path d="M5.65275 11.875H5.39581V12.1319H5.65275V11.875Z" fill="#3A3A3A"/>
<path d="M5.90975 11.875H5.65275V12.1319H5.90975V11.875Z" fill="#3A3A3A"/>
<path d="M6.16668 11.875H5.90975V12.1319H6.16668V11.875Z" fill="#3A3A3A"/>
<path d="M6.42362 11.875H6.16668V12.1319H6.42362V11.875Z" fill="#3A3A3A"/>
<path d="M6.68056 11.875H6.42362V12.1319H6.68056V11.875Z" fill="#3A3A3A"/>
<path d="M6.9375 11.875H6.68056V12.1319H6.9375V11.875Z" fill="#3A3A3A"/>
<path d="M7.19444 11.875H6.9375V12.1319H7.19444V11.875Z" fill="#3A3A3A"/>
<path d="M7.45137 11.875H7.19444V12.1319H7.45137V11.875Z" fill="#3A3A3A"/>
<path d="M7.70831 11.875H7.45137V12.1319H7.70831V11.875Z" fill="#3A3A3A"/>
<path d="M5.39581 12.1319H5.13887V12.3888H5.39581V12.1319Z" fill="#3A3A3A"/>
<path d="M5.65275 12.1319H5.39581V12.3888H5.65275V12.1319Z" fill="#3A3A3A"/>
<path d="M5.90975 12.1319H5.65275V12.3888H5.90975V12.1319Z" fill="#3A3A3A"/>
<path d="M6.16668 12.1319H5.90975V12.3888H6.16668V12.1319Z" fill="#3A3A3A"/>
<path d="M6.42362 12.1319H6.16668V12.3888H6.42362V12.1319Z" fill="#3A3A3A"/>
<path d="M6.68056 12.1319H6.42362V12.3888H6.68056V12.1319Z" fill="#3A3A3A"/>
<path d="M6.9375 12.1319H6.68056V12.3888H6.9375V12.1319Z" fill="#3A3A3A"/>
<path d="M7.19444 12.1319H6.9375V12.3888H7.19444V12.1319Z" fill="#3A3A3A"/>
<path d="M7.45137 12.1319H7.19444V12.3888H7.45137V12.1319Z" fill="#3A3A3A"/>
<path d="M7.70831 12.1319H7.45137V12.3888H7.70831V12.1319Z" fill="#3A3A3A"/>
<path d="M5.39581 12.3888H5.13887V12.6458H5.39581V12.3888Z" fill="#3A3A3A"/>
<path d="M5.65275 12.3888H5.39581V12.6458H5.65275V12.3888Z" fill="#3A3A3A"/>
<path d="M5.90975 12.3888H5.65275V12.6458H5.90975V12.3888Z" fill="#3A3A3A"/>
<path d="M6.16668 12.3888H5.90975V12.6458H6.16668V12.3888Z" fill="#3A3A3A"/>
<path d="M6.42362 12.3888H6.16668V12.6458H6.42362V12.3888Z" fill="#3A3A3A"/>
<path d="M6.68056 12.3888H6.42362V12.6458H6.68056V12.3888Z" fill="#3A3A3A"/>
<path d="M6.9375 12.3888H6.68056V12.6458H6.9375V12.3888Z" fill="#3A3A3A"/>
<path d="M7.19444 12.3888H6.9375V12.6458H7.19444V12.3888Z" fill="#3A3A3A"/>
<path d="M7.45137 12.3888H7.19444V12.6458H7.45137V12.3888Z" fill="#3A3A3A"/>
<path d="M7.70831 12.3888H7.45137V12.6458H7.70831V12.3888Z" fill="#3A3A3A"/>
<path d="M5.39581 12.6458H5.13887V12.9027H5.39581V12.6458Z" fill="#3A3A3A"/>
<path d="M5.65275 12.6458H5.39581V12.9027H5.65275V12.6458Z" fill="#3A3A3A"/>
<path d="M5.90975 12.6458H5.65275V12.9027H5.90975V12.6458Z" fill="#3A3A3A"/>
<path d="M6.16668 12.6458H5.90975V12.9027H6.16668V12.6458Z" fill="#3A3A3A"/>
<path d="M6.42362 12.6458H6.16668V12.9027H6.42362V12.6458Z" fill="#3A3A3A"/>
<path d="M6.68056 12.6458H6.42362V12.9027H6.68056V12.6458Z" fill="#3A3A3A"/>
<path d="M6.9375 12.6458H6.68056V12.9027H6.9375V12.6458Z" fill="#3A3A3A"/>
<path d="M7.19444 12.6458H6.9375V12.9027H7.19444V12.6458Z" fill="#3A3A3A"/>
<path d="M7.45137 12.6458H7.19444V12.9027H7.45137V12.6458Z" fill="#3A3A3A"/>
<path d="M7.70831 12.6458H7.45137V12.9027H7.70831V12.6458Z" fill="#3A3A3A"/>
<path d="M5.39581 12.9027H5.13887V13.1596H5.39581V12.9027Z" fill="#3A3A3A"/>
<path d="M5.65275 12.9027H5.39581V13.1596H5.65275V12.9027Z" fill="#3A3A3A"/>
<path d="M5.90975 12.9027H5.65275V13.1596H5.90975V12.9027Z" fill="#3A3A3A"/>
<path d="M6.16668 12.9027H5.90975V13.1596H6.16668V12.9027Z" fill="#3A3A3A"/>
<path d="M6.42362 12.9027H6.16668V13.1596H6.42362V12.9027Z" fill="#3A3A3A"/>
<path d="M6.68056 12.9027H6.42362V13.1596H6.68056V12.9027Z" fill="#3A3A3A"/>
<path d="M6.9375 12.9027H6.68056V13.1596H6.9375V12.9027Z" fill="#3A3A3A"/>
<path d="M7.19444 12.9027H6.9375V13.1596H7.19444V12.9027Z" fill="#3A3A3A"/>
<path d="M7.45137 12.9027H7.19444V13.1596H7.45137V12.9027Z" fill="#3A3A3A"/>
<path d="M7.70831 12.9027H7.45137V13.1596H7.70831V12.9027Z" fill="#3A3A3A"/>
<path d="M5.39581 13.1596H5.13887V13.4166H5.39581V13.1596Z" fill="#3A3A3A"/>
<path d="M5.65275 13.1596H5.39581V13.4166H5.65275V13.1596Z" fill="#3A3A3A"/>
<path d="M5.90975 13.1596H5.65275V13.4166H5.90975V13.1596Z" fill="#3A3A3A"/>
<path d="M6.16668 13.1596H5.90975V13.4166H6.16668V13.1596Z" fill="#3A3A3A"/>
<path d="M6.42362 13.1596H6.16668V13.4166H6.42362V13.1596Z" fill="#3A3A3A"/>
<path d="M6.68056 13.1596H6.42362V13.4166H6.68056V13.1596Z" fill="#3A3A3A"/>
<path d="M6.9375 13.1596H6.68056V13.4166H6.9375V13.1596Z" fill="#3A3A3A"/>
<path d="M7.19444 13.1596H6.9375V13.4166H7.19444V13.1596Z" fill="#3A3A3A"/>
<path d="M7.45137 13.1596H7.19444V13.4166H7.45137V13.1596Z" fill="#3A3A3A"/>
<path d="M7.70831 13.1596H7.45137V13.4166H7.70831V13.1596Z" fill="#3A3A3A"/>
</svg>
